<?xml version="1.0" encoding="utf-8" standalone="no"?>
<!DOCTYPE svg PUBLIC "-//W3C//DTD SVG 1.1//EN"
  "http://www.w3.org/Graphics/SVG/1.1/DTD/svg11.dtd">
<svg xmlns:xlink="http://www.w3.org/1999/xlink" width="569.015312pt" height="388.933125pt" viewBox="0 0 569.015312 388.933125" xmlns="http://www.w3.org/2000/svg" version="1.1">
 <metadata>
  <rdf:RDF xmlns:dc="http://purl.org/dc/elements/1.1/" xmlns:cc="http://creativecommons.org/ns#" xmlns:rdf="http://www.w3.org/1999/02/22-rdf-syntax-ns#">
   <cc:Work>
    <dc:type rdf:resource="http://purl.org/dc/dcmitype/StillImage"/>
    <dc:date>2026-01-28T09:21:04.398870</dc:date>
    <dc:format>image/svg+xml</dc:format>
    <dc:creator>
     <cc:Agent>
      <dc:title>Matplotlib v3.10.6, https://matplotlib.org/</dc:title>
     </cc:Agent>
    </dc:creator>
   </cc:Work>
  </rdf:RDF>
 </metadata>
 <defs>
  <style type="text/css">*{stroke-linejoin: round; stroke-linecap: butt}</style>
 </defs>
 <g id="figure_1">
  <g id="patch_1">
   <path d="M 0 388.933125 
L 569.015312 388.933125 
L 569.015312 0 
L 0 0 
z
" style="fill: #ffffff"/>
  </g>
  <g id="axes_1">
   <g id="patch_2">
    <path d="M 37.305313 348.043437 
L 561.815312 348.043437 
L 561.815312 26.303437 
L 37.305313 26.303437 
z
" style="fill: #eaeaf2"/>
   </g>
   <g id="matplotlib.axis_1">
    <g id="xtick_1">
     <g id="line2d_1">
      <path d="M 74.391878 348.043437 
L 74.391878 26.303437 
" clip-path="url(#p7e8e6afac0)" style="fill: none; stroke: #ffffff; stroke-linecap: round"/>
     </g>
     <g id="text_1">
      <!-- 25 -->
      <g style="fill: #262626" transform="translate(68.830941 365.70125) scale(0.1 -0.1)">
       <defs>
        <path id="ArialMT-32" d="M 3222 541 
L 3222 0 
L 194 0 
Q 188 203 259 391 
Q 375 700 629 1000 
Q 884 1300 1366 1694 
Q 2113 2306 2375 2664 
Q 2638 3022 2638 3341 
Q 2638 3675 2398 3904 
Q 2159 4134 1775 4134 
Q 1369 4134 1125 3890 
Q 881 3647 878 3216 
L 300 3275 
Q 359 3922 746 4261 
Q 1134 4600 1788 4600 
Q 2447 4600 2831 4234 
Q 3216 3869 3216 3328 
Q 3216 3053 3103 2787 
Q 2991 2522 2730 2228 
Q 2469 1934 1863 1422 
Q 1356 997 1212 845 
Q 1069 694 975 541 
L 3222 541 
z
" transform="scale(0.015625)"/>
        <path id="ArialMT-35" d="M 266 1200 
L 856 1250 
Q 922 819 1161 601 
Q 1400 384 1738 384 
Q 2144 384 2425 690 
Q 2706 997 2706 1503 
Q 2706 1984 2436 2262 
Q 2166 2541 1728 2541 
Q 1456 2541 1237 2417 
Q 1019 2294 894 2097 
L 366 2166 
L 809 4519 
L 3088 4519 
L 3088 3981 
L 1259 3981 
L 1013 2750 
Q 1425 3038 1878 3038 
Q 2478 3038 2890 2622 
Q 3303 2206 3303 1553 
Q 3303 931 2941 478 
Q 2500 -78 1738 -78 
Q 1113 -78 717 272 
Q 322 622 266 1200 
z
" transform="scale(0.015625)"/>
       </defs>
       <use xlink:href="#ArialMT-32"/>
       <use xlink:href="#ArialMT-35" transform="translate(55.615234 0)"/>
      </g>
     </g>
    </g>
    <g id="xtick_2">
     <g id="line2d_2">
      <path d="M 140.617888 348.043437 
L 140.617888 26.303437 
" clip-path="url(#p7e8e6afac0)" style="fill: none; stroke: #ffffff; stroke-linecap: round"/>
     </g>
     <g id="text_2">
      <!-- 50 -->
      <g style="fill: #262626" transform="translate(135.056951 365.70125) scale(0.1 -0.1)">
       <defs>
        <path id="ArialMT-30" d="M 266 2259 
Q 266 3072 433 3567 
Q 600 4063 929 4331 
Q 1259 4600 1759 4600 
Q 2128 4600 2406 4451 
Q 2684 4303 2865 4023 
Q 3047 3744 3150 3342 
Q 3253 2941 3253 2259 
Q 3253 1453 3087 958 
Q 2922 463 2592 192 
Q 2263 -78 1759 -78 
Q 1097 -78 719 397 
Q 266 969 266 2259 
z
M 844 2259 
Q 844 1131 1108 757 
Q 1372 384 1759 384 
Q 2147 384 2411 759 
Q 2675 1134 2675 2259 
Q 2675 3391 2411 3762 
Q 2147 4134 1753 4134 
Q 1366 4134 1134 3806 
Q 844 3388 844 2259 
z
" transform="scale(0.015625)"/>
       </defs>
       <use xlink:href="#ArialMT-35"/>
       <use xlink:href="#ArialMT-30" transform="translate(55.615234 0)"/>
      </g>
     </g>
    </g>
    <g id="xtick_3">
     <g id="line2d_3">
      <path d="M 206.843898 348.043437 
L 206.843898 26.303437 
" clip-path="url(#p7e8e6afac0)" style="fill: none; stroke: #ffffff; stroke-linecap: round"/>
     </g>
     <g id="text_3">
      <!-- 75 -->
      <g style="fill: #262626" transform="translate(201.282961 365.70125) scale(0.1 -0.1)">
       <defs>
        <path id="ArialMT-37" d="M 303 3981 
L 303 4522 
L 3269 4522 
L 3269 4084 
Q 2831 3619 2401 2847 
Q 1972 2075 1738 1259 
Q 1569 684 1522 0 
L 944 0 
Q 953 541 1156 1306 
Q 1359 2072 1739 2783 
Q 2119 3494 2547 3981 
L 303 3981 
z
" transform="scale(0.015625)"/>
       </defs>
       <use xlink:href="#ArialMT-37"/>
       <use xlink:href="#ArialMT-35" transform="translate(55.615234 0)"/>
      </g>
     </g>
    </g>
    <g id="xtick_4">
     <g id="line2d_4">
      <path d="M 273.069908 348.043437 
L 273.069908 26.303437 
" clip-path="url(#p7e8e6afac0)" style="fill: none; stroke: #ffffff; stroke-linecap: round"/>
     </g>
     <g id="text_4">
      <!-- 100 -->
      <g style="fill: #262626" transform="translate(264.728502 365.70125) scale(0.1 -0.1)">
       <defs>
        <path id="ArialMT-31" d="M 2384 0 
L 1822 0 
L 1822 3584 
Q 1619 3391 1289 3197 
Q 959 3003 697 2906 
L 697 3450 
Q 1169 3672 1522 3987 
Q 1875 4303 2022 4600 
L 2384 4600 
L 2384 0 
z
" transform="scale(0.015625)"/>
       </defs>
       <use xlink:href="#ArialMT-31"/>
       <use xlink:href="#ArialMT-30" transform="translate(55.615234 0)"/>
       <use xlink:href="#ArialMT-30" transform="translate(111.230469 0)"/>
      </g>
     </g>
    </g>
    <g id="xtick_5">
     <g id="line2d_5">
      <path d="M 339.295919 348.043437 
L 339.295919 26.303437 
" clip-path="url(#p7e8e6afac0)" style="fill: none; stroke: #ffffff; stroke-linecap: round"/>
     </g>
     <g id="text_5">
      <!-- 125 -->
      <g style="fill: #262626" transform="translate(330.954512 365.70125) scale(0.1 -0.1)">
       <use xlink:href="#ArialMT-31"/>
       <use xlink:href="#ArialMT-32" transform="translate(55.615234 0)"/>
       <use xlink:href="#ArialMT-35" transform="translate(111.230469 0)"/>
      </g>
     </g>
    </g>
    <g id="xtick_6">
     <g id="line2d_6">
      <path d="M 405.521929 348.043437 
L 405.521929 26.303437 
" clip-path="url(#p7e8e6afac0)" style="fill: none; stroke: #ffffff; stroke-linecap: round"/>
     </g>
     <g id="text_6">
      <!-- 150 -->
      <g style="fill: #262626" transform="translate(397.180522 365.70125) scale(0.1 -0.1)">
       <use xlink:href="#ArialMT-31"/>
       <use xlink:href="#ArialMT-35" transform="translate(55.615234 0)"/>
       <use xlink:href="#ArialMT-30" transform="translate(111.230469 0)"/>
      </g>
     </g>
    </g>
    <g id="xtick_7">
     <g id="line2d_7">
      <path d="M 471.747939 348.043437 
L 471.747939 26.303437 
" clip-path="url(#p7e8e6afac0)" style="fill: none; stroke: #ffffff; stroke-linecap: round"/>
     </g>
     <g id="text_7">
      <!-- 175 -->
      <g style="fill: #262626" transform="translate(463.406533 365.70125) scale(0.1 -0.1)">
       <use xlink:href="#ArialMT-31"/>
       <use xlink:href="#ArialMT-37" transform="translate(55.615234 0)"/>
       <use xlink:href="#ArialMT-35" transform="translate(111.230469 0)"/>
      </g>
     </g>
    </g>
    <g id="xtick_8">
     <g id="line2d_8">
      <path d="M 537.973949 348.043437 
L 537.973949 26.303437 
" clip-path="url(#p7e8e6afac0)" style="fill: none; stroke: #ffffff; stroke-linecap: round"/>
     </g>
     <g id="text_8">
      <!-- 200 -->
      <g style="fill: #262626" transform="translate(529.632543 365.70125) scale(0.1 -0.1)">
       <use xlink:href="#ArialMT-32"/>
       <use xlink:href="#ArialMT-30" transform="translate(55.615234 0)"/>
       <use xlink:href="#ArialMT-30" transform="translate(111.230469 0)"/>
      </g>
     </g>
    </g>
    <g id="text_9">
     <!-- Total sample size -->
     <g style="fill: #262626" transform="translate(254.425078 379.562344) scale(0.11 -0.11)">
      <defs>
       <path id="Arial-BoldMT-54" d="M 1497 0 
L 1497 3806 
L 138 3806 
L 138 4581 
L 3778 4581 
L 3778 3806 
L 2422 3806 
L 2422 0 
L 1497 0 
z
" transform="scale(0.015625)"/>
       <path id="Arial-BoldMT-6f" d="M 256 1706 
Q 256 2144 472 2553 
Q 688 2963 1083 3178 
Q 1478 3394 1966 3394 
Q 2719 3394 3200 2905 
Q 3681 2416 3681 1669 
Q 3681 916 3195 420 
Q 2709 -75 1972 -75 
Q 1516 -75 1102 131 
Q 688 338 472 736 
Q 256 1134 256 1706 
z
M 1156 1659 
Q 1156 1166 1390 903 
Q 1625 641 1969 641 
Q 2313 641 2545 903 
Q 2778 1166 2778 1666 
Q 2778 2153 2545 2415 
Q 2313 2678 1969 2678 
Q 1625 2678 1390 2415 
Q 1156 2153 1156 1659 
z
" transform="scale(0.015625)"/>
       <path id="Arial-BoldMT-74" d="M 1981 3319 
L 1981 2619 
L 1381 2619 
L 1381 1281 
Q 1381 875 1398 808 
Q 1416 741 1477 697 
Q 1538 653 1625 653 
Q 1747 653 1978 738 
L 2053 56 
Q 1747 -75 1359 -75 
Q 1122 -75 931 4 
Q 741 84 652 211 
Q 563 338 528 553 
Q 500 706 500 1172 
L 500 2619 
L 97 2619 
L 97 3319 
L 500 3319 
L 500 3978 
L 1381 4491 
L 1381 3319 
L 1981 3319 
z
" transform="scale(0.015625)"/>
       <path id="Arial-BoldMT-61" d="M 1116 2306 
L 319 2450 
Q 453 2931 781 3162 
Q 1109 3394 1756 3394 
Q 2344 3394 2631 3255 
Q 2919 3116 3036 2902 
Q 3153 2688 3153 2116 
L 3144 1091 
Q 3144 653 3186 445 
Q 3228 238 3344 0 
L 2475 0 
Q 2441 88 2391 259 
Q 2369 338 2359 363 
Q 2134 144 1878 34 
Q 1622 -75 1331 -75 
Q 819 -75 523 203 
Q 228 481 228 906 
Q 228 1188 362 1408 
Q 497 1628 739 1745 
Q 981 1863 1438 1950 
Q 2053 2066 2291 2166 
L 2291 2253 
Q 2291 2506 2166 2614 
Q 2041 2722 1694 2722 
Q 1459 2722 1328 2630 
Q 1197 2538 1116 2306 
z
M 2291 1594 
Q 2122 1538 1756 1459 
Q 1391 1381 1278 1306 
Q 1106 1184 1106 997 
Q 1106 813 1243 678 
Q 1381 544 1594 544 
Q 1831 544 2047 700 
Q 2206 819 2256 991 
Q 2291 1103 2291 1419 
L 2291 1594 
z
" transform="scale(0.015625)"/>
       <path id="Arial-BoldMT-6c" d="M 459 0 
L 459 4581 
L 1338 4581 
L 1338 0 
L 459 0 
z
" transform="scale(0.015625)"/>
       <path id="Arial-BoldMT-20" transform="scale(0.015625)"/>
       <path id="Arial-BoldMT-73" d="M 150 947 
L 1031 1081 
Q 1088 825 1259 692 
Q 1431 559 1741 559 
Q 2081 559 2253 684 
Q 2369 772 2369 919 
Q 2369 1019 2306 1084 
Q 2241 1147 2013 1200 
Q 950 1434 666 1628 
Q 272 1897 272 2375 
Q 272 2806 612 3100 
Q 953 3394 1669 3394 
Q 2350 3394 2681 3172 
Q 3013 2950 3138 2516 
L 2309 2363 
Q 2256 2556 2107 2659 
Q 1959 2763 1684 2763 
Q 1338 2763 1188 2666 
Q 1088 2597 1088 2488 
Q 1088 2394 1175 2328 
Q 1294 2241 1995 2081 
Q 2697 1922 2975 1691 
Q 3250 1456 3250 1038 
Q 3250 581 2869 253 
Q 2488 -75 1741 -75 
Q 1063 -75 667 200 
Q 272 475 150 947 
z
" transform="scale(0.015625)"/>
       <path id="Arial-BoldMT-6d" d="M 394 3319 
L 1203 3319 
L 1203 2866 
Q 1638 3394 2238 3394 
Q 2556 3394 2790 3262 
Q 3025 3131 3175 2866 
Q 3394 3131 3647 3262 
Q 3900 3394 4188 3394 
Q 4553 3394 4806 3245 
Q 5059 3097 5184 2809 
Q 5275 2597 5275 2122 
L 5275 0 
L 4397 0 
L 4397 1897 
Q 4397 2391 4306 2534 
Q 4184 2722 3931 2722 
Q 3747 2722 3584 2609 
Q 3422 2497 3350 2280 
Q 3278 2063 3278 1594 
L 3278 0 
L 2400 0 
L 2400 1819 
Q 2400 2303 2353 2443 
Q 2306 2584 2207 2653 
Q 2109 2722 1941 2722 
Q 1738 2722 1575 2612 
Q 1413 2503 1342 2297 
Q 1272 2091 1272 1613 
L 1272 0 
L 394 0 
L 394 3319 
z
" transform="scale(0.015625)"/>
       <path id="Arial-BoldMT-70" d="M 434 3319 
L 1253 3319 
L 1253 2831 
Q 1413 3081 1684 3237 
Q 1956 3394 2288 3394 
Q 2866 3394 3269 2941 
Q 3672 2488 3672 1678 
Q 3672 847 3265 386 
Q 2859 -75 2281 -75 
Q 2006 -75 1782 34 
Q 1559 144 1313 409 
L 1313 -1263 
L 434 -1263 
L 434 3319 
z
M 1303 1716 
Q 1303 1156 1525 889 
Q 1747 622 2066 622 
Q 2372 622 2575 867 
Q 2778 1113 2778 1672 
Q 2778 2194 2568 2447 
Q 2359 2700 2050 2700 
Q 1728 2700 1515 2451 
Q 1303 2203 1303 1716 
z
" transform="scale(0.015625)"/>
       <path id="Arial-BoldMT-65" d="M 2381 1056 
L 3256 909 
Q 3088 428 2723 176 
Q 2359 -75 1813 -75 
Q 947 -75 531 491 
Q 203 944 203 1634 
Q 203 2459 634 2926 
Q 1066 3394 1725 3394 
Q 2466 3394 2894 2905 
Q 3322 2416 3303 1406 
L 1103 1406 
Q 1113 1016 1316 798 
Q 1519 581 1822 581 
Q 2028 581 2168 693 
Q 2309 806 2381 1056 
z
M 2431 1944 
Q 2422 2325 2234 2523 
Q 2047 2722 1778 2722 
Q 1491 2722 1303 2513 
Q 1116 2303 1119 1944 
L 2431 1944 
z
" transform="scale(0.015625)"/>
       <path id="Arial-BoldMT-69" d="M 459 3769 
L 459 4581 
L 1338 4581 
L 1338 3769 
L 459 3769 
z
M 459 0 
L 459 3319 
L 1338 3319 
L 1338 0 
L 459 0 
z
" transform="scale(0.015625)"/>
       <path id="Arial-BoldMT-7a" d="M 106 0 
L 106 684 
L 1350 2113 
Q 1656 2463 1803 2609 
Q 1650 2600 1400 2597 
L 228 2591 
L 228 3319 
L 2972 3319 
L 2972 2697 
L 1703 1234 
L 1256 750 
Q 1622 772 1709 772 
L 3069 772 
L 3069 0 
L 106 0 
z
" transform="scale(0.015625)"/>
      </defs>
      <use xlink:href="#Arial-BoldMT-54"/>
      <use xlink:href="#Arial-BoldMT-6f" transform="translate(53.708984 0)"/>
      <use xlink:href="#Arial-BoldMT-74" transform="translate(114.792969 0)"/>
      <use xlink:href="#Arial-BoldMT-61" transform="translate(148.09375 0)"/>
      <use xlink:href="#Arial-BoldMT-6c" transform="translate(203.708984 0)"/>
      <use xlink:href="#Arial-BoldMT-20" transform="translate(231.492188 0)"/>
      <use xlink:href="#Arial-BoldMT-73" transform="translate(259.275391 0)"/>
      <use xlink:href="#Arial-BoldMT-61" transform="translate(314.890625 0)"/>
      <use xlink:href="#Arial-BoldMT-6d" transform="translate(370.505859 0)"/>
      <use xlink:href="#Arial-BoldMT-70" transform="translate(459.421875 0)"/>
      <use xlink:href="#Arial-BoldMT-6c" transform="translate(520.505859 0)"/>
      <use xlink:href="#Arial-BoldMT-65" transform="translate(548.289062 0)"/>
      <use xlink:href="#Arial-BoldMT-20" transform="translate(603.904297 0)"/>
      <use xlink:href="#Arial-BoldMT-73" transform="translate(631.6875 0)"/>
      <use xlink:href="#Arial-BoldMT-69" transform="translate(687.302734 0)"/>
      <use xlink:href="#Arial-BoldMT-7a" transform="translate(715.085938 0)"/>
      <use xlink:href="#Arial-BoldMT-65" transform="translate(765.085938 0)"/>
     </g>
    </g>
   </g>
   <g id="matplotlib.axis_2">
    <g id="ytick_1">
     <g id="line2d_9">
      <path d="M 37.305313 285.30853 
L 561.815312 285.30853 
" clip-path="url(#p7e8e6afac0)" style="fill: none; stroke: #ffffff; stroke-linecap: round"/>
     </g>
     <g id="text_10">
      <!-- 2 -->
      <g style="fill: #262626" transform="translate(21.244375 288.887436) scale(0.1 -0.1)">
       <use xlink:href="#ArialMT-32"/>
      </g>
     </g>
    </g>
    <g id="ytick_2">
     <g id="line2d_10">
      <path d="M 37.305313 218.779647 
L 561.815312 218.779647 
" clip-path="url(#p7e8e6afac0)" style="fill: none; stroke: #ffffff; stroke-linecap: round"/>
     </g>
     <g id="text_11">
      <!-- 4 -->
      <g style="fill: #262626" transform="translate(21.244375 222.358553) scale(0.1 -0.1)">
       <defs>
        <path id="ArialMT-34" d="M 2069 0 
L 2069 1097 
L 81 1097 
L 81 1613 
L 2172 4581 
L 2631 4581 
L 2631 1613 
L 3250 1613 
L 3250 1097 
L 2631 1097 
L 2631 0 
L 2069 0 
z
M 2069 1613 
L 2069 3678 
L 634 1613 
L 2069 1613 
z
" transform="scale(0.015625)"/>
       </defs>
       <use xlink:href="#ArialMT-34"/>
      </g>
     </g>
    </g>
    <g id="ytick_3">
     <g id="line2d_11">
      <path d="M 37.305313 152.250763 
L 561.815312 152.250763 
" clip-path="url(#p7e8e6afac0)" style="fill: none; stroke: #ffffff; stroke-linecap: round"/>
     </g>
     <g id="text_12">
      <!-- 6 -->
      <g style="fill: #262626" transform="translate(21.244375 155.82967) scale(0.1 -0.1)">
       <defs>
        <path id="ArialMT-36" d="M 3184 3459 
L 2625 3416 
Q 2550 3747 2413 3897 
Q 2184 4138 1850 4138 
Q 1581 4138 1378 3988 
Q 1113 3794 959 3422 
Q 806 3050 800 2363 
Q 1003 2672 1297 2822 
Q 1591 2972 1913 2972 
Q 2475 2972 2870 2558 
Q 3266 2144 3266 1488 
Q 3266 1056 3080 686 
Q 2894 316 2569 119 
Q 2244 -78 1831 -78 
Q 1128 -78 684 439 
Q 241 956 241 2144 
Q 241 3472 731 4075 
Q 1159 4600 1884 4600 
Q 2425 4600 2770 4297 
Q 3116 3994 3184 3459 
z
M 888 1484 
Q 888 1194 1011 928 
Q 1134 663 1356 523 
Q 1578 384 1822 384 
Q 2178 384 2434 671 
Q 2691 959 2691 1453 
Q 2691 1928 2437 2201 
Q 2184 2475 1800 2475 
Q 1419 2475 1153 2201 
Q 888 1928 888 1484 
z
" transform="scale(0.015625)"/>
       </defs>
       <use xlink:href="#ArialMT-36"/>
      </g>
     </g>
    </g>
    <g id="ytick_4">
     <g id="line2d_12">
      <path d="M 37.305313 85.72188 
L 561.815312 85.72188 
" clip-path="url(#p7e8e6afac0)" style="fill: none; stroke: #ffffff; stroke-linecap: round"/>
     </g>
     <g id="text_13">
      <!-- 8 -->
      <g style="fill: #262626" transform="translate(21.244375 89.300786) scale(0.1 -0.1)">
       <defs>
        <path id="ArialMT-38" d="M 1131 2484 
Q 781 2613 612 2850 
Q 444 3088 444 3419 
Q 444 3919 803 4259 
Q 1163 4600 1759 4600 
Q 2359 4600 2725 4251 
Q 3091 3903 3091 3403 
Q 3091 3084 2923 2848 
Q 2756 2613 2416 2484 
Q 2838 2347 3058 2040 
Q 3278 1734 3278 1309 
Q 3278 722 2862 322 
Q 2447 -78 1769 -78 
Q 1091 -78 675 323 
Q 259 725 259 1325 
Q 259 1772 486 2073 
Q 713 2375 1131 2484 
z
M 1019 3438 
Q 1019 3113 1228 2906 
Q 1438 2700 1772 2700 
Q 2097 2700 2305 2904 
Q 2513 3109 2513 3406 
Q 2513 3716 2298 3927 
Q 2084 4138 1766 4138 
Q 1444 4138 1231 3931 
Q 1019 3725 1019 3438 
z
M 838 1322 
Q 838 1081 952 856 
Q 1066 631 1291 507 
Q 1516 384 1775 384 
Q 2178 384 2440 643 
Q 2703 903 2703 1303 
Q 2703 1709 2433 1975 
Q 2163 2241 1756 2241 
Q 1359 2241 1098 1978 
Q 838 1716 838 1322 
z
" transform="scale(0.015625)"/>
       </defs>
       <use xlink:href="#ArialMT-38"/>
      </g>
     </g>
    </g>
    <g id="text_14">
     <!-- MoE of the GMG difference -->
     <g style="fill: #262626" transform="translate(15.073594 257.755625) rotate(-90) scale(0.11 -0.11)">
      <defs>
       <path id="Arial-BoldMT-4d" d="M 453 0 
L 453 4581 
L 1838 4581 
L 2669 1456 
L 3491 4581 
L 4878 4581 
L 4878 0 
L 4019 0 
L 4019 3606 
L 3109 0 
L 2219 0 
L 1313 3606 
L 1313 0 
L 453 0 
z
" transform="scale(0.015625)"/>
       <path id="Arial-BoldMT-45" d="M 466 0 
L 466 4581 
L 3863 4581 
L 3863 3806 
L 1391 3806 
L 1391 2791 
L 3691 2791 
L 3691 2019 
L 1391 2019 
L 1391 772 
L 3950 772 
L 3950 0 
L 466 0 
z
" transform="scale(0.015625)"/>
       <path id="Arial-BoldMT-66" d="M 75 3319 
L 563 3319 
L 563 3569 
Q 563 3988 652 4194 
Q 741 4400 980 4529 
Q 1219 4659 1584 4659 
Q 1959 4659 2319 4547 
L 2200 3934 
Q 1991 3984 1797 3984 
Q 1606 3984 1523 3895 
Q 1441 3806 1441 3553 
L 1441 3319 
L 2097 3319 
L 2097 2628 
L 1441 2628 
L 1441 0 
L 563 0 
L 563 2628 
L 75 2628 
L 75 3319 
z
" transform="scale(0.015625)"/>
       <path id="Arial-BoldMT-68" d="M 1334 4581 
L 1334 2897 
Q 1759 3394 2350 3394 
Q 2653 3394 2897 3281 
Q 3141 3169 3264 2994 
Q 3388 2819 3433 2606 
Q 3478 2394 3478 1947 
L 3478 0 
L 2600 0 
L 2600 1753 
Q 2600 2275 2550 2415 
Q 2500 2556 2373 2639 
Q 2247 2722 2056 2722 
Q 1838 2722 1666 2615 
Q 1494 2509 1414 2295 
Q 1334 2081 1334 1663 
L 1334 0 
L 456 0 
L 456 4581 
L 1334 4581 
z
" transform="scale(0.015625)"/>
       <path id="Arial-BoldMT-47" d="M 2597 1684 
L 2597 2456 
L 4591 2456 
L 4591 631 
Q 4300 350 3748 136 
Q 3197 -78 2631 -78 
Q 1913 -78 1378 223 
Q 844 525 575 1086 
Q 306 1647 306 2306 
Q 306 3022 606 3578 
Q 906 4134 1484 4431 
Q 1925 4659 2581 4659 
Q 3434 4659 3914 4301 
Q 4394 3944 4531 3313 
L 3613 3141 
Q 3516 3478 3248 3673 
Q 2981 3869 2581 3869 
Q 1975 3869 1617 3484 
Q 1259 3100 1259 2344 
Q 1259 1528 1621 1120 
Q 1984 713 2572 713 
Q 2863 713 3155 827 
Q 3447 941 3656 1103 
L 3656 1684 
L 2597 1684 
z
" transform="scale(0.015625)"/>
       <path id="Arial-BoldMT-64" d="M 3503 0 
L 2688 0 
L 2688 488 
Q 2484 203 2207 64 
Q 1931 -75 1650 -75 
Q 1078 -75 670 386 
Q 263 847 263 1672 
Q 263 2516 659 2955 
Q 1056 3394 1663 3394 
Q 2219 3394 2625 2931 
L 2625 4581 
L 3503 4581 
L 3503 0 
z
M 1159 1731 
Q 1159 1200 1306 963 
Q 1519 619 1900 619 
Q 2203 619 2415 876 
Q 2628 1134 2628 1647 
Q 2628 2219 2422 2470 
Q 2216 2722 1894 2722 
Q 1581 2722 1370 2473 
Q 1159 2225 1159 1731 
z
" transform="scale(0.015625)"/>
       <path id="Arial-BoldMT-72" d="M 1300 0 
L 422 0 
L 422 3319 
L 1238 3319 
L 1238 2847 
Q 1447 3181 1614 3287 
Q 1781 3394 1994 3394 
Q 2294 3394 2572 3228 
L 2300 2463 
Q 2078 2606 1888 2606 
Q 1703 2606 1575 2504 
Q 1447 2403 1373 2137 
Q 1300 1872 1300 1025 
L 1300 0 
z
" transform="scale(0.015625)"/>
       <path id="Arial-BoldMT-6e" d="M 3478 0 
L 2600 0 
L 2600 1694 
Q 2600 2231 2544 2389 
Q 2488 2547 2361 2634 
Q 2234 2722 2056 2722 
Q 1828 2722 1647 2597 
Q 1466 2472 1398 2265 
Q 1331 2059 1331 1503 
L 1331 0 
L 453 0 
L 453 3319 
L 1269 3319 
L 1269 2831 
Q 1703 3394 2363 3394 
Q 2653 3394 2893 3289 
Q 3134 3184 3257 3021 
Q 3381 2859 3429 2653 
Q 3478 2447 3478 2063 
L 3478 0 
z
" transform="scale(0.015625)"/>
       <path id="Arial-BoldMT-63" d="M 3353 2338 
L 2488 2181 
Q 2444 2441 2289 2572 
Q 2134 2703 1888 2703 
Q 1559 2703 1364 2476 
Q 1169 2250 1169 1719 
Q 1169 1128 1367 884 
Q 1566 641 1900 641 
Q 2150 641 2309 783 
Q 2469 925 2534 1272 
L 3397 1125 
Q 3263 531 2881 228 
Q 2500 -75 1859 -75 
Q 1131 -75 698 384 
Q 266 844 266 1656 
Q 266 2478 700 2936 
Q 1134 3394 1875 3394 
Q 2481 3394 2839 3133 
Q 3197 2872 3353 2338 
z
" transform="scale(0.015625)"/>
      </defs>
      <use xlink:href="#Arial-BoldMT-4d"/>
      <use xlink:href="#Arial-BoldMT-6f" transform="translate(83.300781 0)"/>
      <use xlink:href="#Arial-BoldMT-45" transform="translate(144.384766 0)"/>
      <use xlink:href="#Arial-BoldMT-20" transform="translate(211.083984 0)"/>
      <use xlink:href="#Arial-BoldMT-6f" transform="translate(238.867188 0)"/>
      <use xlink:href="#Arial-BoldMT-66" transform="translate(299.951172 0)"/>
      <use xlink:href="#Arial-BoldMT-20" transform="translate(333.251953 0)"/>
      <use xlink:href="#Arial-BoldMT-74" transform="translate(361.035156 0)"/>
      <use xlink:href="#Arial-BoldMT-68" transform="translate(394.335938 0)"/>
      <use xlink:href="#Arial-BoldMT-65" transform="translate(455.419922 0)"/>
      <use xlink:href="#Arial-BoldMT-20" transform="translate(511.035156 0)"/>
      <use xlink:href="#Arial-BoldMT-47" transform="translate(538.818359 0)"/>
      <use xlink:href="#Arial-BoldMT-4d" transform="translate(616.601562 0)"/>
      <use xlink:href="#Arial-BoldMT-47" transform="translate(699.902344 0)"/>
      <use xlink:href="#Arial-BoldMT-20" transform="translate(777.685547 0)"/>
      <use xlink:href="#Arial-BoldMT-64" transform="translate(805.46875 0)"/>
      <use xlink:href="#Arial-BoldMT-69" transform="translate(866.552734 0)"/>
      <use xlink:href="#Arial-BoldMT-66" transform="translate(894.335938 0)"/>
      <use xlink:href="#Arial-BoldMT-66" transform="translate(927.636719 0)"/>
      <use xlink:href="#Arial-BoldMT-65" transform="translate(960.9375 0)"/>
      <use xlink:href="#Arial-BoldMT-72" transform="translate(1016.552734 0)"/>
      <use xlink:href="#Arial-BoldMT-65" transform="translate(1055.46875 0)"/>
      <use xlink:href="#Arial-BoldMT-6e" transform="translate(1111.083984 0)"/>
      <use xlink:href="#Arial-BoldMT-63" transform="translate(1172.167969 0)"/>
      <use xlink:href="#Arial-BoldMT-65" transform="translate(1227.783203 0)"/>
     </g>
    </g>
   </g>
   <g id="line2d_13">
    <path d="M 61.146676 290.74394 
L 114.127484 309.305498 
L 167.108292 317.548427 
L 220.0891 322.281957 
L 273.069908 325.445405 
L 326.050717 327.92028 
L 379.031525 329.666663 
L 432.012333 331.166889 
L 484.993141 332.377715 
L 537.973949 333.418892 
" clip-path="url(#p7e8e6afac0)" style="fill: none; stroke: #1f77b4; stroke-width: 1.75; stroke-linecap: round"/>
   </g>
   <g id="line2d_14">
    <path d="M 61.146676 228.815529 
L 114.127484 267.229306 
L 167.108292 283.143015 
L 220.0891 292.869538 
L 273.069908 299.153191 
L 326.050717 303.823518 
L 379.031525 307.449342 
L 432.012333 310.316737 
L 484.993141 312.745042 
L 537.973949 314.75754 
" clip-path="url(#p7e8e6afac0)" style="fill: none; stroke: #ff7f0e; stroke-width: 1.75; stroke-linecap: round"/>
   </g>
   <g id="line2d_15">
    <path d="M 61.146676 169.914182 
L 114.127484 224.481172 
L 167.108292 248.531363 
L 220.0891 262.53902 
L 273.069908 272.335398 
L 326.050717 279.696819 
L 379.031525 284.762993 
L 432.012333 289.054106 
L 484.993141 292.896149 
L 537.973949 295.939846 
" clip-path="url(#p7e8e6afac0)" style="fill: none; stroke: #2ca02c; stroke-width: 1.75; stroke-linecap: round"/>
   </g>
   <g id="line2d_16">
    <path d="M 61.146676 109.416142 
L 114.127484 183.249897 
L 167.108292 215.103926 
L 220.0891 234.018087 
L 273.069908 247.287273 
L 326.050717 256.86078 
L 379.031525 263.833007 
L 432.012333 269.544511 
L 484.993141 274.334591 
L 537.973949 278.346282 
" clip-path="url(#p7e8e6afac0)" style="fill: none; stroke: #d62728; stroke-width: 1.75; stroke-linecap: round"/>
   </g>
   <g id="line2d_17">
    <path d="M 61.146676 40.927983 
L 114.127484 138.835214 
L 167.108292 180.302667 
L 220.0891 205.038106 
L 273.069908 220.536009 
L 326.050717 232.268378 
L 379.031525 241.249777 
L 432.012333 248.551322 
L 484.993141 254.731855 
L 537.973949 259.654993 
" clip-path="url(#p7e8e6afac0)" style="fill: none; stroke: #9467bd; stroke-width: 1.75; stroke-linecap: round"/>
   </g>
   <g id="line2d_18"/>
   <g id="line2d_19"/>
   <g id="line2d_20"/>
   <g id="line2d_21"/>
   <g id="line2d_22"/>
   <g id="patch_3">
    <path d="M 37.305313 348.043437 
L 37.305313 26.303437 
" style="fill: none; stroke: #ffffff; stroke-width: 0.8; stroke-linejoin: miter; stroke-linecap: square"/>
   </g>
   <g id="patch_4">
    <path d="M 561.815312 348.043437 
L 561.815312 26.303437 
" style="fill: none; stroke: #ffffff; stroke-width: 0.8; stroke-linejoin: miter; stroke-linecap: square"/>
   </g>
   <g id="patch_5">
    <path d="M 37.305313 348.043437 
L 561.815313 348.043437 
" style="fill: none; stroke: #ffffff; stroke-width: 0.8; stroke-linejoin: miter; stroke-linecap: square"/>
   </g>
   <g id="patch_6">
    <path d="M 37.305313 26.303437 
L 561.815313 26.303437 
" style="fill: none; stroke: #ffffff; stroke-width: 0.8; stroke-linejoin: miter; stroke-linecap: square"/>
   </g>
   <g id="text_15">
    <!-- MoE of the GMG difference vs sample size -->
    <g style="fill: #262626" transform="translate(118.526719 20.303437) scale(0.18 -0.18)">
     <defs>
      <path id="Arial-BoldMT-76" d="M 1372 0 
L 34 3319 
L 956 3319 
L 1581 1625 
L 1763 1059 
Q 1834 1275 1853 1344 
Q 1897 1484 1947 1625 
L 2578 3319 
L 3481 3319 
L 2163 0 
L 1372 0 
z
" transform="scale(0.015625)"/>
     </defs>
     <use xlink:href="#Arial-BoldMT-4d"/>
     <use xlink:href="#Arial-BoldMT-6f" transform="translate(83.300781 0)"/>
     <use xlink:href="#Arial-BoldMT-45" transform="translate(144.384766 0)"/>
     <use xlink:href="#Arial-BoldMT-20" transform="translate(211.083984 0)"/>
     <use xlink:href="#Arial-BoldMT-6f" transform="translate(238.867188 0)"/>
     <use xlink:href="#Arial-BoldMT-66" transform="translate(299.951172 0)"/>
     <use xlink:href="#Arial-BoldMT-20" transform="translate(333.251953 0)"/>
     <use xlink:href="#Arial-BoldMT-74" transform="translate(361.035156 0)"/>
     <use xlink:href="#Arial-BoldMT-68" transform="translate(394.335938 0)"/>
     <use xlink:href="#Arial-BoldMT-65" transform="translate(455.419922 0)"/>
     <use xlink:href="#Arial-BoldMT-20" transform="translate(511.035156 0)"/>
     <use xlink:href="#Arial-BoldMT-47" transform="translate(538.818359 0)"/>
     <use xlink:href="#Arial-BoldMT-4d" transform="translate(616.601562 0)"/>
     <use xlink:href="#Arial-BoldMT-47" transform="translate(699.902344 0)"/>
     <use xlink:href="#Arial-BoldMT-20" transform="translate(777.685547 0)"/>
     <use xlink:href="#Arial-BoldMT-64" transform="translate(805.46875 0)"/>
     <use xlink:href="#Arial-BoldMT-69" transform="translate(866.552734 0)"/>
     <use xlink:href="#Arial-BoldMT-66" transform="translate(894.335938 0)"/>
     <use xlink:href="#Arial-BoldMT-66" transform="translate(927.636719 0)"/>
     <use xlink:href="#Arial-BoldMT-65" transform="translate(960.9375 0)"/>
     <use xlink:href="#Arial-BoldMT-72" transform="translate(1016.552734 0)"/>
     <use xlink:href="#Arial-BoldMT-65" transform="translate(1055.46875 0)"/>
     <use xlink:href="#Arial-BoldMT-6e" transform="translate(1111.083984 0)"/>
     <use xlink:href="#Arial-BoldMT-63" transform="translate(1172.167969 0)"/>
     <use xlink:href="#Arial-BoldMT-65" transform="translate(1227.783203 0)"/>
     <use xlink:href="#Arial-BoldMT-20" transform="translate(1283.398438 0)"/>
     <use xlink:href="#Arial-BoldMT-76" transform="translate(1311.181641 0)"/>
     <use xlink:href="#Arial-BoldMT-73" transform="translate(1366.796875 0)"/>
     <use xlink:href="#Arial-BoldMT-20" transform="translate(1422.412109 0)"/>
     <use xlink:href="#Arial-BoldMT-73" transform="translate(1450.195312 0)"/>
     <use xlink:href="#Arial-BoldMT-61" transform="translate(1505.810547 0)"/>
     <use xlink:href="#Arial-BoldMT-6d" transform="translate(1561.425781 0)"/>
     <use xlink:href="#Arial-BoldMT-70" transform="translate(1650.341797 0)"/>
     <use xlink:href="#Arial-BoldMT-6c" transform="translate(1711.425781 0)"/>
     <use xlink:href="#Arial-BoldMT-65" transform="translate(1739.208984 0)"/>
     <use xlink:href="#Arial-BoldMT-20" transform="translate(1794.824219 0)"/>
     <use xlink:href="#Arial-BoldMT-73" transform="translate(1822.607422 0)"/>
     <use xlink:href="#Arial-BoldMT-69" transform="translate(1878.222656 0)"/>
     <use xlink:href="#Arial-BoldMT-7a" transform="translate(1906.005859 0)"/>
     <use xlink:href="#Arial-BoldMT-65" transform="translate(1956.005859 0)"/>
    </g>
   </g>
   <g id="legend_1">
    <g id="patch_7">
     <path d="M 419.984062 120.356562 
L 554.815312 120.356562 
Q 556.815312 120.356562 556.815312 118.356562 
L 556.815312 33.303437 
Q 556.815312 31.303437 554.815312 31.303437 
L 419.984062 31.303437 
Q 417.984062 31.303437 417.984062 33.303437 
L 417.984062 118.356562 
Q 417.984062 120.356562 419.984062 120.356562 
z
" style="fill: #eaeaf2; opacity: 0.8; stroke: #cccccc; stroke-width: 0.3; stroke-linejoin: miter"/>
    </g>
    <g id="text_16">
     <!-- Scenarios -->
     <g style="fill: #262626" transform="translate(463.499687 42.46125) scale(0.1 -0.1)">
      <defs>
       <path id="Arial-BoldMT-53" d="M 231 1491 
L 1131 1578 
Q 1213 1125 1461 912 
Q 1709 700 2131 700 
Q 2578 700 2804 889 
Q 3031 1078 3031 1331 
Q 3031 1494 2936 1608 
Q 2841 1722 2603 1806 
Q 2441 1863 1863 2006 
Q 1119 2191 819 2459 
Q 397 2838 397 3381 
Q 397 3731 595 4036 
Q 794 4341 1167 4500 
Q 1541 4659 2069 4659 
Q 2931 4659 3367 4281 
Q 3803 3903 3825 3272 
L 2900 3231 
Q 2841 3584 2645 3739 
Q 2450 3894 2059 3894 
Q 1656 3894 1428 3728 
Q 1281 3622 1281 3444 
Q 1281 3281 1419 3166 
Q 1594 3019 2269 2859 
Q 2944 2700 3267 2529 
Q 3591 2359 3773 2064 
Q 3956 1769 3956 1334 
Q 3956 941 3737 597 
Q 3519 253 3119 86 
Q 2719 -81 2122 -81 
Q 1253 -81 787 320 
Q 322 722 231 1491 
z
" transform="scale(0.015625)"/>
      </defs>
      <use xlink:href="#Arial-BoldMT-53"/>
      <use xlink:href="#Arial-BoldMT-63" transform="translate(66.699219 0)"/>
      <use xlink:href="#Arial-BoldMT-65" transform="translate(122.314453 0)"/>
      <use xlink:href="#Arial-BoldMT-6e" transform="translate(177.929688 0)"/>
      <use xlink:href="#Arial-BoldMT-61" transform="translate(239.013672 0)"/>
      <use xlink:href="#Arial-BoldMT-72" transform="translate(294.628906 0)"/>
      <use xlink:href="#Arial-BoldMT-69" transform="translate(333.544922 0)"/>
      <use xlink:href="#Arial-BoldMT-6f" transform="translate(361.328125 0)"/>
      <use xlink:href="#Arial-BoldMT-73" transform="translate(422.412109 0)"/>
     </g>
    </g>
    <g id="line2d_23">
     <path d="M 421.984062 53.214375 
L 431.984062 53.214375 
L 441.984062 53.214375 
" style="fill: none; stroke: #1f77b4; stroke-width: 1.75; stroke-linecap: round"/>
    </g>
    <g id="text_17">
     <!-- Δguess 0mg; SD 2mg -->
     <g style="fill: #262626" transform="translate(449.984062 56.714375) scale(0.1 -0.1)">
      <defs>
       <path id="ArialMT-394" d="M -6 0 
L 1753 4581 
L 2406 4581 
L 4281 0 
L -6 0 
z
M 834 541 
L 3381 541 
L 2391 3150 
Q 2169 3738 2066 4100 
Q 1981 3675 1819 3225 
L 834 541 
z
" transform="scale(0.015625)"/>
       <path id="ArialMT-67" d="M 319 -275 
L 866 -356 
Q 900 -609 1056 -725 
Q 1266 -881 1628 -881 
Q 2019 -881 2231 -725 
Q 2444 -569 2519 -288 
Q 2563 -116 2559 434 
Q 2191 0 1641 0 
Q 956 0 581 494 
Q 206 988 206 1678 
Q 206 2153 378 2554 
Q 550 2956 876 3175 
Q 1203 3394 1644 3394 
Q 2231 3394 2613 2919 
L 2613 3319 
L 3131 3319 
L 3131 450 
Q 3131 -325 2973 -648 
Q 2816 -972 2473 -1159 
Q 2131 -1347 1631 -1347 
Q 1038 -1347 672 -1080 
Q 306 -813 319 -275 
z
M 784 1719 
Q 784 1066 1043 766 
Q 1303 466 1694 466 
Q 2081 466 2343 764 
Q 2606 1063 2606 1700 
Q 2606 2309 2336 2618 
Q 2066 2928 1684 2928 
Q 1309 2928 1046 2623 
Q 784 2319 784 1719 
z
" transform="scale(0.015625)"/>
       <path id="ArialMT-75" d="M 2597 0 
L 2597 488 
Q 2209 -75 1544 -75 
Q 1250 -75 995 37 
Q 741 150 617 320 
Q 494 491 444 738 
Q 409 903 409 1263 
L 409 3319 
L 972 3319 
L 972 1478 
Q 972 1038 1006 884 
Q 1059 663 1231 536 
Q 1403 409 1656 409 
Q 1909 409 2131 539 
Q 2353 669 2445 892 
Q 2538 1116 2538 1541 
L 2538 3319 
L 3100 3319 
L 3100 0 
L 2597 0 
z
" transform="scale(0.015625)"/>
       <path id="ArialMT-65" d="M 2694 1069 
L 3275 997 
Q 3138 488 2766 206 
Q 2394 -75 1816 -75 
Q 1088 -75 661 373 
Q 234 822 234 1631 
Q 234 2469 665 2931 
Q 1097 3394 1784 3394 
Q 2450 3394 2872 2941 
Q 3294 2488 3294 1666 
Q 3294 1616 3291 1516 
L 816 1516 
Q 847 969 1125 678 
Q 1403 388 1819 388 
Q 2128 388 2347 550 
Q 2566 713 2694 1069 
z
M 847 1978 
L 2700 1978 
Q 2663 2397 2488 2606 
Q 2219 2931 1791 2931 
Q 1403 2931 1139 2672 
Q 875 2413 847 1978 
z
" transform="scale(0.015625)"/>
       <path id="ArialMT-73" d="M 197 991 
L 753 1078 
Q 800 744 1014 566 
Q 1228 388 1613 388 
Q 2000 388 2187 545 
Q 2375 703 2375 916 
Q 2375 1106 2209 1216 
Q 2094 1291 1634 1406 
Q 1016 1563 777 1677 
Q 538 1791 414 1992 
Q 291 2194 291 2438 
Q 291 2659 392 2848 
Q 494 3038 669 3163 
Q 800 3259 1026 3326 
Q 1253 3394 1513 3394 
Q 1903 3394 2198 3281 
Q 2494 3169 2634 2976 
Q 2775 2784 2828 2463 
L 2278 2388 
Q 2241 2644 2061 2787 
Q 1881 2931 1553 2931 
Q 1166 2931 1000 2803 
Q 834 2675 834 2503 
Q 834 2394 903 2306 
Q 972 2216 1119 2156 
Q 1203 2125 1616 2013 
Q 2213 1853 2448 1751 
Q 2684 1650 2818 1456 
Q 2953 1263 2953 975 
Q 2953 694 2789 445 
Q 2625 197 2315 61 
Q 2006 -75 1616 -75 
Q 969 -75 630 194 
Q 291 463 197 991 
z
" transform="scale(0.015625)"/>
       <path id="ArialMT-20" transform="scale(0.015625)"/>
       <path id="ArialMT-6d" d="M 422 0 
L 422 3319 
L 925 3319 
L 925 2853 
Q 1081 3097 1340 3245 
Q 1600 3394 1931 3394 
Q 2300 3394 2536 3241 
Q 2772 3088 2869 2813 
Q 3263 3394 3894 3394 
Q 4388 3394 4653 3120 
Q 4919 2847 4919 2278 
L 4919 0 
L 4359 0 
L 4359 2091 
Q 4359 2428 4304 2576 
Q 4250 2725 4106 2815 
Q 3963 2906 3769 2906 
Q 3419 2906 3187 2673 
Q 2956 2441 2956 1928 
L 2956 0 
L 2394 0 
L 2394 2156 
Q 2394 2531 2256 2718 
Q 2119 2906 1806 2906 
Q 1569 2906 1367 2781 
Q 1166 2656 1075 2415 
Q 984 2175 984 1722 
L 984 0 
L 422 0 
z
" transform="scale(0.015625)"/>
       <path id="ArialMT-3b" d="M 569 2678 
L 569 3319 
L 1209 3319 
L 1209 2678 
L 569 2678 
z
M 569 0 
L 569 641 
L 1209 641 
L 1209 0 
Q 1209 -353 1084 -570 
Q 959 -788 688 -906 
L 531 -666 
Q 709 -588 793 -436 
Q 878 -284 888 0 
L 569 0 
z
" transform="scale(0.015625)"/>
       <path id="ArialMT-53" d="M 288 1472 
L 859 1522 
Q 900 1178 1048 958 
Q 1197 738 1509 602 
Q 1822 466 2213 466 
Q 2559 466 2825 569 
Q 3091 672 3220 851 
Q 3350 1031 3350 1244 
Q 3350 1459 3225 1620 
Q 3100 1781 2813 1891 
Q 2628 1963 1997 2114 
Q 1366 2266 1113 2400 
Q 784 2572 623 2826 
Q 463 3081 463 3397 
Q 463 3744 659 4045 
Q 856 4347 1234 4503 
Q 1613 4659 2075 4659 
Q 2584 4659 2973 4495 
Q 3363 4331 3572 4012 
Q 3781 3694 3797 3291 
L 3216 3247 
Q 3169 3681 2898 3903 
Q 2628 4125 2100 4125 
Q 1550 4125 1298 3923 
Q 1047 3722 1047 3438 
Q 1047 3191 1225 3031 
Q 1400 2872 2139 2705 
Q 2878 2538 3153 2413 
Q 3553 2228 3743 1945 
Q 3934 1663 3934 1294 
Q 3934 928 3725 604 
Q 3516 281 3123 101 
Q 2731 -78 2241 -78 
Q 1619 -78 1198 103 
Q 778 284 539 648 
Q 300 1013 288 1472 
z
" transform="scale(0.015625)"/>
       <path id="ArialMT-44" d="M 494 0 
L 494 4581 
L 2072 4581 
Q 2606 4581 2888 4516 
Q 3281 4425 3559 4188 
Q 3922 3881 4101 3404 
Q 4281 2928 4281 2316 
Q 4281 1794 4159 1391 
Q 4038 988 3847 723 
Q 3656 459 3429 307 
Q 3203 156 2883 78 
Q 2563 0 2147 0 
L 494 0 
z
M 1100 541 
L 2078 541 
Q 2531 541 2789 625 
Q 3047 709 3200 863 
Q 3416 1078 3536 1442 
Q 3656 1806 3656 2325 
Q 3656 3044 3420 3430 
Q 3184 3816 2847 3947 
Q 2603 4041 2063 4041 
L 1100 4041 
L 1100 541 
z
" transform="scale(0.015625)"/>
      </defs>
      <use xlink:href="#ArialMT-394"/>
      <use xlink:href="#ArialMT-67" transform="translate(66.796875 0)"/>
      <use xlink:href="#ArialMT-75" transform="translate(122.412109 0)"/>
      <use xlink:href="#ArialMT-65" transform="translate(178.027344 0)"/>
      <use xlink:href="#ArialMT-73" transform="translate(233.642578 0)"/>
      <use xlink:href="#ArialMT-73" transform="translate(283.642578 0)"/>
      <use xlink:href="#ArialMT-20" transform="translate(333.642578 0)"/>
      <use xlink:href="#ArialMT-30" transform="translate(361.425781 0)"/>
      <use xlink:href="#ArialMT-6d" transform="translate(417.041016 0)"/>
      <use xlink:href="#ArialMT-67" transform="translate(500.341797 0)"/>
      <use xlink:href="#ArialMT-3b" transform="translate(555.957031 0)"/>
      <use xlink:href="#ArialMT-20" transform="translate(583.740234 0)"/>
      <use xlink:href="#ArialMT-53" transform="translate(611.523438 0)"/>
      <use xlink:href="#ArialMT-44" transform="translate(678.222656 0)"/>
      <use xlink:href="#ArialMT-20" transform="translate(750.439453 0)"/>
      <use xlink:href="#ArialMT-32" transform="translate(778.222656 0)"/>
      <use xlink:href="#ArialMT-6d" transform="translate(833.837891 0)"/>
      <use xlink:href="#ArialMT-67" transform="translate(917.138672 0)"/>
     </g>
    </g>
    <g id="line2d_24">
     <path d="M 421.984062 67.59875 
L 431.984062 67.59875 
L 441.984062 67.59875 
" style="fill: none; stroke: #ff7f0e; stroke-width: 1.75; stroke-linecap: round"/>
    </g>
    <g id="text_18">
     <!-- Δguess 0mg; SD 4mg -->
     <g style="fill: #262626" transform="translate(449.984062 71.09875) scale(0.1 -0.1)">
      <use xlink:href="#ArialMT-394"/>
      <use xlink:href="#ArialMT-67" transform="translate(66.796875 0)"/>
      <use xlink:href="#ArialMT-75" transform="translate(122.412109 0)"/>
      <use xlink:href="#ArialMT-65" transform="translate(178.027344 0)"/>
      <use xlink:href="#ArialMT-73" transform="translate(233.642578 0)"/>
      <use xlink:href="#ArialMT-73" transform="translate(283.642578 0)"/>
      <use xlink:href="#ArialMT-20" transform="translate(333.642578 0)"/>
      <use xlink:href="#ArialMT-30" transform="translate(361.425781 0)"/>
      <use xlink:href="#ArialMT-6d" transform="translate(417.041016 0)"/>
      <use xlink:href="#ArialMT-67" transform="translate(500.341797 0)"/>
      <use xlink:href="#ArialMT-3b" transform="translate(555.957031 0)"/>
      <use xlink:href="#ArialMT-20" transform="translate(583.740234 0)"/>
      <use xlink:href="#ArialMT-53" transform="translate(611.523438 0)"/>
      <use xlink:href="#ArialMT-44" transform="translate(678.222656 0)"/>
      <use xlink:href="#ArialMT-20" transform="translate(750.439453 0)"/>
      <use xlink:href="#ArialMT-34" transform="translate(778.222656 0)"/>
      <use xlink:href="#ArialMT-6d" transform="translate(833.837891 0)"/>
      <use xlink:href="#ArialMT-67" transform="translate(917.138672 0)"/>
     </g>
    </g>
    <g id="line2d_25">
     <path d="M 421.984062 81.983125 
L 431.984062 81.983125 
L 441.984062 81.983125 
" style="fill: none; stroke: #2ca02c; stroke-width: 1.75; stroke-linecap: round"/>
    </g>
    <g id="text_19">
     <!-- Δguess 0mg; SD 6mg -->
     <g style="fill: #262626" transform="translate(449.984062 85.483125) scale(0.1 -0.1)">
      <use xlink:href="#ArialMT-394"/>
      <use xlink:href="#ArialMT-67" transform="translate(66.796875 0)"/>
      <use xlink:href="#ArialMT-75" transform="translate(122.412109 0)"/>
      <use xlink:href="#ArialMT-65" transform="translate(178.027344 0)"/>
      <use xlink:href="#ArialMT-73" transform="translate(233.642578 0)"/>
      <use xlink:href="#ArialMT-73" transform="translate(283.642578 0)"/>
      <use xlink:href="#ArialMT-20" transform="translate(333.642578 0)"/>
      <use xlink:href="#ArialMT-30" transform="translate(361.425781 0)"/>
      <use xlink:href="#ArialMT-6d" transform="translate(417.041016 0)"/>
      <use xlink:href="#ArialMT-67" transform="translate(500.341797 0)"/>
      <use xlink:href="#ArialMT-3b" transform="translate(555.957031 0)"/>
      <use xlink:href="#ArialMT-20" transform="translate(583.740234 0)"/>
      <use xlink:href="#ArialMT-53" transform="translate(611.523438 0)"/>
      <use xlink:href="#ArialMT-44" transform="translate(678.222656 0)"/>
      <use xlink:href="#ArialMT-20" transform="translate(750.439453 0)"/>
      <use xlink:href="#ArialMT-36" transform="translate(778.222656 0)"/>
      <use xlink:href="#ArialMT-6d" transform="translate(833.837891 0)"/>
      <use xlink:href="#ArialMT-67" transform="translate(917.138672 0)"/>
     </g>
    </g>
    <g id="line2d_26">
     <path d="M 421.984062 96.3675 
L 431.984062 96.3675 
L 441.984062 96.3675 
" style="fill: none; stroke: #d62728; stroke-width: 1.75; stroke-linecap: round"/>
    </g>
    <g id="text_20">
     <!-- Δguess 0mg; SD 8mg -->
     <g style="fill: #262626" transform="translate(449.984062 99.8675) scale(0.1 -0.1)">
      <use xlink:href="#ArialMT-394"/>
      <use xlink:href="#ArialMT-67" transform="translate(66.796875 0)"/>
      <use xlink:href="#ArialMT-75" transform="translate(122.412109 0)"/>
      <use xlink:href="#ArialMT-65" transform="translate(178.027344 0)"/>
      <use xlink:href="#ArialMT-73" transform="translate(233.642578 0)"/>
      <use xlink:href="#ArialMT-73" transform="translate(283.642578 0)"/>
      <use xlink:href="#ArialMT-20" transform="translate(333.642578 0)"/>
      <use xlink:href="#ArialMT-30" transform="translate(361.425781 0)"/>
      <use xlink:href="#ArialMT-6d" transform="translate(417.041016 0)"/>
      <use xlink:href="#ArialMT-67" transform="translate(500.341797 0)"/>
      <use xlink:href="#ArialMT-3b" transform="translate(555.957031 0)"/>
      <use xlink:href="#ArialMT-20" transform="translate(583.740234 0)"/>
      <use xlink:href="#ArialMT-53" transform="translate(611.523438 0)"/>
      <use xlink:href="#ArialMT-44" transform="translate(678.222656 0)"/>
      <use xlink:href="#ArialMT-20" transform="translate(750.439453 0)"/>
      <use xlink:href="#ArialMT-38" transform="translate(778.222656 0)"/>
      <use xlink:href="#ArialMT-6d" transform="translate(833.837891 0)"/>
      <use xlink:href="#ArialMT-67" transform="translate(917.138672 0)"/>
     </g>
    </g>
    <g id="line2d_27">
     <path d="M 421.984062 110.751875 
L 431.984062 110.751875 
L 441.984062 110.751875 
" style="fill: none; stroke: #9467bd; stroke-width: 1.75; stroke-linecap: round"/>
    </g>
    <g id="text_21">
     <!-- Δguess 0mg; SD 10mg -->
     <g style="fill: #262626" transform="translate(449.984062 114.251875) scale(0.1 -0.1)">
      <use xlink:href="#ArialMT-394"/>
      <use xlink:href="#ArialMT-67" transform="translate(66.796875 0)"/>
      <use xlink:href="#ArialMT-75" transform="translate(122.412109 0)"/>
      <use xlink:href="#ArialMT-65" transform="translate(178.027344 0)"/>
      <use xlink:href="#ArialMT-73" transform="translate(233.642578 0)"/>
      <use xlink:href="#ArialMT-73" transform="translate(283.642578 0)"/>
      <use xlink:href="#ArialMT-20" transform="translate(333.642578 0)"/>
      <use xlink:href="#ArialMT-30" transform="translate(361.425781 0)"/>
      <use xlink:href="#ArialMT-6d" transform="translate(417.041016 0)"/>
      <use xlink:href="#ArialMT-67" transform="translate(500.341797 0)"/>
      <use xlink:href="#ArialMT-3b" transform="translate(555.957031 0)"/>
      <use xlink:href="#ArialMT-20" transform="translate(583.740234 0)"/>
      <use xlink:href="#ArialMT-53" transform="translate(611.523438 0)"/>
      <use xlink:href="#ArialMT-44" transform="translate(678.222656 0)"/>
      <use xlink:href="#ArialMT-20" transform="translate(750.439453 0)"/>
      <use xlink:href="#ArialMT-31" transform="translate(778.222656 0)"/>
      <use xlink:href="#ArialMT-30" transform="translate(833.837891 0)"/>
      <use xlink:href="#ArialMT-6d" transform="translate(889.453125 0)"/>
      <use xlink:href="#ArialMT-67" transform="translate(972.753906 0)"/>
     </g>
    </g>
   </g>
  </g>
 </g>
 <defs>
  <clipPath id="p7e8e6afac0">
   <rect x="37.305313" y="26.303437" width="524.51" height="321.74"/>
  </clipPath>
 </defs>
</svg>
