<?xml version="1.0" encoding="utf-8" standalone="no"?>
<!DOCTYPE svg PUBLIC "-//W3C//DTD SVG 1.1//EN"
  "http://www.w3.org/Graphics/SVG/1.1/DTD/svg11.dtd">
<svg xmlns:xlink="http://www.w3.org/1999/xlink" width="507.864219pt" height="371.89375pt" viewBox="0 0 507.864219 371.89375" xmlns="http://www.w3.org/2000/svg" version="1.1">
 <metadata>
  <rdf:RDF xmlns:dc="http://purl.org/dc/elements/1.1/" xmlns:cc="http://creativecommons.org/ns#" xmlns:rdf="http://www.w3.org/1999/02/22-rdf-syntax-ns#">
   <cc:Work>
    <dc:type rdf:resource="http://purl.org/dc/dcmitype/StillImage"/>
    <dc:date>2026-01-14T09:30:48.841196</dc:date>
    <dc:format>image/svg+xml</dc:format>
    <dc:creator>
     <cc:Agent>
      <dc:title>Matplotlib v3.10.6, https://matplotlib.org/</dc:title>
     </cc:Agent>
    </dc:creator>
   </cc:Work>
  </rdf:RDF>
 </metadata>
 <defs>
  <style type="text/css">*{stroke-linejoin: round; stroke-linecap: butt}</style>
 </defs>
 <g id="figure_1">
  <g id="patch_1">
   <path d="M 0 371.89375 
L 507.864219 371.89375 
L 507.864219 0 
L 0 0 
z
" style="fill: #ffffff"/>
  </g>
  <g id="axes_1">
   <g id="patch_2">
    <path d="M 45.922813 331.004062 
L 492.322812 331.004062 
L 492.322812 26.084062 
L 45.922813 26.084062 
z
" style="fill: #eaeaf2"/>
   </g>
   <g id="matplotlib.axis_1">
    <g id="xtick_1">
     <g id="line2d_1">
      <path d="M 78.989479 331.004062 
L 78.989479 26.084062 
" clip-path="url(#p87030148a7)" style="fill: none; stroke: #ffffff; stroke-linecap: round"/>
     </g>
     <g id="text_1">
      <!-- 50 -->
      <g style="fill: #262626" transform="translate(73.428542 348.661875) scale(0.1 -0.1)">
       <defs>
        <path id="ArialMT-35" d="M 266 1200 
L 856 1250 
Q 922 819 1161 601 
Q 1400 384 1738 384 
Q 2144 384 2425 690 
Q 2706 997 2706 1503 
Q 2706 1984 2436 2262 
Q 2166 2541 1728 2541 
Q 1456 2541 1237 2417 
Q 1019 2294 894 2097 
L 366 2166 
L 809 4519 
L 3088 4519 
L 3088 3981 
L 1259 3981 
L 1013 2750 
Q 1425 3038 1878 3038 
Q 2478 3038 2890 2622 
Q 3303 2206 3303 1553 
Q 3303 931 2941 478 
Q 2500 -78 1738 -78 
Q 1113 -78 717 272 
Q 322 622 266 1200 
z
" transform="scale(0.015625)"/>
        <path id="ArialMT-30" d="M 266 2259 
Q 266 3072 433 3567 
Q 600 4063 929 4331 
Q 1259 4600 1759 4600 
Q 2128 4600 2406 4451 
Q 2684 4303 2865 4023 
Q 3047 3744 3150 3342 
Q 3253 2941 3253 2259 
Q 3253 1453 3087 958 
Q 2922 463 2592 192 
Q 2263 -78 1759 -78 
Q 1097 -78 719 397 
Q 266 969 266 2259 
z
M 844 2259 
Q 844 1131 1108 757 
Q 1372 384 1759 384 
Q 2147 384 2411 759 
Q 2675 1134 2675 2259 
Q 2675 3391 2411 3762 
Q 2147 4134 1753 4134 
Q 1366 4134 1134 3806 
Q 844 3388 844 2259 
z
" transform="scale(0.015625)"/>
       </defs>
       <use xlink:href="#ArialMT-35"/>
       <use xlink:href="#ArialMT-30" transform="translate(55.615234 0)"/>
      </g>
     </g>
    </g>
    <g id="xtick_2">
     <g id="line2d_2">
      <path d="M 161.656146 331.004062 
L 161.656146 26.084062 
" clip-path="url(#p87030148a7)" style="fill: none; stroke: #ffffff; stroke-linecap: round"/>
     </g>
     <g id="text_2">
      <!-- 100 -->
      <g style="fill: #262626" transform="translate(153.31474 348.661875) scale(0.1 -0.1)">
       <defs>
        <path id="ArialMT-31" d="M 2384 0 
L 1822 0 
L 1822 3584 
Q 1619 3391 1289 3197 
Q 959 3003 697 2906 
L 697 3450 
Q 1169 3672 1522 3987 
Q 1875 4303 2022 4600 
L 2384 4600 
L 2384 0 
z
" transform="scale(0.015625)"/>
       </defs>
       <use xlink:href="#ArialMT-31"/>
       <use xlink:href="#ArialMT-30" transform="translate(55.615234 0)"/>
       <use xlink:href="#ArialMT-30" transform="translate(111.230469 0)"/>
      </g>
     </g>
    </g>
    <g id="xtick_3">
     <g id="line2d_3">
      <path d="M 244.322812 331.004062 
L 244.322812 26.084062 
" clip-path="url(#p87030148a7)" style="fill: none; stroke: #ffffff; stroke-linecap: round"/>
     </g>
     <g id="text_3">
      <!-- 150 -->
      <g style="fill: #262626" transform="translate(235.981406 348.661875) scale(0.1 -0.1)">
       <use xlink:href="#ArialMT-31"/>
       <use xlink:href="#ArialMT-35" transform="translate(55.615234 0)"/>
       <use xlink:href="#ArialMT-30" transform="translate(111.230469 0)"/>
      </g>
     </g>
    </g>
    <g id="xtick_4">
     <g id="line2d_4">
      <path d="M 326.989479 331.004062 
L 326.989479 26.084062 
" clip-path="url(#p87030148a7)" style="fill: none; stroke: #ffffff; stroke-linecap: round"/>
     </g>
     <g id="text_4">
      <!-- 200 -->
      <g style="fill: #262626" transform="translate(318.648073 348.661875) scale(0.1 -0.1)">
       <defs>
        <path id="ArialMT-32" d="M 3222 541 
L 3222 0 
L 194 0 
Q 188 203 259 391 
Q 375 700 629 1000 
Q 884 1300 1366 1694 
Q 2113 2306 2375 2664 
Q 2638 3022 2638 3341 
Q 2638 3675 2398 3904 
Q 2159 4134 1775 4134 
Q 1369 4134 1125 3890 
Q 881 3647 878 3216 
L 300 3275 
Q 359 3922 746 4261 
Q 1134 4600 1788 4600 
Q 2447 4600 2831 4234 
Q 3216 3869 3216 3328 
Q 3216 3053 3103 2787 
Q 2991 2522 2730 2228 
Q 2469 1934 1863 1422 
Q 1356 997 1212 845 
Q 1069 694 975 541 
L 3222 541 
z
" transform="scale(0.015625)"/>
       </defs>
       <use xlink:href="#ArialMT-32"/>
       <use xlink:href="#ArialMT-30" transform="translate(55.615234 0)"/>
       <use xlink:href="#ArialMT-30" transform="translate(111.230469 0)"/>
      </g>
     </g>
    </g>
    <g id="xtick_5">
     <g id="line2d_5">
      <path d="M 409.656146 331.004062 
L 409.656146 26.084062 
" clip-path="url(#p87030148a7)" style="fill: none; stroke: #ffffff; stroke-linecap: round"/>
     </g>
     <g id="text_5">
      <!-- 250 -->
      <g style="fill: #262626" transform="translate(401.31474 348.661875) scale(0.1 -0.1)">
       <use xlink:href="#ArialMT-32"/>
       <use xlink:href="#ArialMT-35" transform="translate(55.615234 0)"/>
       <use xlink:href="#ArialMT-30" transform="translate(111.230469 0)"/>
      </g>
     </g>
    </g>
    <g id="xtick_6">
     <g id="line2d_6">
      <path d="M 492.322812 331.004062 
L 492.322812 26.084062 
" clip-path="url(#p87030148a7)" style="fill: none; stroke: #ffffff; stroke-linecap: round"/>
     </g>
     <g id="text_6">
      <!-- 300 -->
      <g style="fill: #262626" transform="translate(483.981406 348.661875) scale(0.1 -0.1)">
       <defs>
        <path id="ArialMT-33" d="M 269 1209 
L 831 1284 
Q 928 806 1161 595 
Q 1394 384 1728 384 
Q 2125 384 2398 659 
Q 2672 934 2672 1341 
Q 2672 1728 2419 1979 
Q 2166 2231 1775 2231 
Q 1616 2231 1378 2169 
L 1441 2663 
Q 1497 2656 1531 2656 
Q 1891 2656 2178 2843 
Q 2466 3031 2466 3422 
Q 2466 3731 2256 3934 
Q 2047 4138 1716 4138 
Q 1388 4138 1169 3931 
Q 950 3725 888 3313 
L 325 3413 
Q 428 3978 793 4289 
Q 1159 4600 1703 4600 
Q 2078 4600 2393 4439 
Q 2709 4278 2876 4000 
Q 3044 3722 3044 3409 
Q 3044 3113 2884 2869 
Q 2725 2625 2413 2481 
Q 2819 2388 3044 2092 
Q 3269 1797 3269 1353 
Q 3269 753 2831 336 
Q 2394 -81 1725 -81 
Q 1122 -81 723 278 
Q 325 638 269 1209 
z
" transform="scale(0.015625)"/>
       </defs>
       <use xlink:href="#ArialMT-33"/>
       <use xlink:href="#ArialMT-30" transform="translate(55.615234 0)"/>
       <use xlink:href="#ArialMT-30" transform="translate(111.230469 0)"/>
      </g>
     </g>
    </g>
    <g id="text_7">
     <!-- Total sample size -->
     <g style="fill: #262626" transform="translate(223.987578 362.522969) scale(0.11 -0.11)">
      <defs>
       <path id="Arial-BoldMT-54" d="M 1497 0 
L 1497 3806 
L 138 3806 
L 138 4581 
L 3778 4581 
L 3778 3806 
L 2422 3806 
L 2422 0 
L 1497 0 
z
" transform="scale(0.015625)"/>
       <path id="Arial-BoldMT-6f" d="M 256 1706 
Q 256 2144 472 2553 
Q 688 2963 1083 3178 
Q 1478 3394 1966 3394 
Q 2719 3394 3200 2905 
Q 3681 2416 3681 1669 
Q 3681 916 3195 420 
Q 2709 -75 1972 -75 
Q 1516 -75 1102 131 
Q 688 338 472 736 
Q 256 1134 256 1706 
z
M 1156 1659 
Q 1156 1166 1390 903 
Q 1625 641 1969 641 
Q 2313 641 2545 903 
Q 2778 1166 2778 1666 
Q 2778 2153 2545 2415 
Q 2313 2678 1969 2678 
Q 1625 2678 1390 2415 
Q 1156 2153 1156 1659 
z
" transform="scale(0.015625)"/>
       <path id="Arial-BoldMT-74" d="M 1981 3319 
L 1981 2619 
L 1381 2619 
L 1381 1281 
Q 1381 875 1398 808 
Q 1416 741 1477 697 
Q 1538 653 1625 653 
Q 1747 653 1978 738 
L 2053 56 
Q 1747 -75 1359 -75 
Q 1122 -75 931 4 
Q 741 84 652 211 
Q 563 338 528 553 
Q 500 706 500 1172 
L 500 2619 
L 97 2619 
L 97 3319 
L 500 3319 
L 500 3978 
L 1381 4491 
L 1381 3319 
L 1981 3319 
z
" transform="scale(0.015625)"/>
       <path id="Arial-BoldMT-61" d="M 1116 2306 
L 319 2450 
Q 453 2931 781 3162 
Q 1109 3394 1756 3394 
Q 2344 3394 2631 3255 
Q 2919 3116 3036 2902 
Q 3153 2688 3153 2116 
L 3144 1091 
Q 3144 653 3186 445 
Q 3228 238 3344 0 
L 2475 0 
Q 2441 88 2391 259 
Q 2369 338 2359 363 
Q 2134 144 1878 34 
Q 1622 -75 1331 -75 
Q 819 -75 523 203 
Q 228 481 228 906 
Q 228 1188 362 1408 
Q 497 1628 739 1745 
Q 981 1863 1438 1950 
Q 2053 2066 2291 2166 
L 2291 2253 
Q 2291 2506 2166 2614 
Q 2041 2722 1694 2722 
Q 1459 2722 1328 2630 
Q 1197 2538 1116 2306 
z
M 2291 1594 
Q 2122 1538 1756 1459 
Q 1391 1381 1278 1306 
Q 1106 1184 1106 997 
Q 1106 813 1243 678 
Q 1381 544 1594 544 
Q 1831 544 2047 700 
Q 2206 819 2256 991 
Q 2291 1103 2291 1419 
L 2291 1594 
z
" transform="scale(0.015625)"/>
       <path id="Arial-BoldMT-6c" d="M 459 0 
L 459 4581 
L 1338 4581 
L 1338 0 
L 459 0 
z
" transform="scale(0.015625)"/>
       <path id="Arial-BoldMT-20" transform="scale(0.015625)"/>
       <path id="Arial-BoldMT-73" d="M 150 947 
L 1031 1081 
Q 1088 825 1259 692 
Q 1431 559 1741 559 
Q 2081 559 2253 684 
Q 2369 772 2369 919 
Q 2369 1019 2306 1084 
Q 2241 1147 2013 1200 
Q 950 1434 666 1628 
Q 272 1897 272 2375 
Q 272 2806 612 3100 
Q 953 3394 1669 3394 
Q 2350 3394 2681 3172 
Q 3013 2950 3138 2516 
L 2309 2363 
Q 2256 2556 2107 2659 
Q 1959 2763 1684 2763 
Q 1338 2763 1188 2666 
Q 1088 2597 1088 2488 
Q 1088 2394 1175 2328 
Q 1294 2241 1995 2081 
Q 2697 1922 2975 1691 
Q 3250 1456 3250 1038 
Q 3250 581 2869 253 
Q 2488 -75 1741 -75 
Q 1063 -75 667 200 
Q 272 475 150 947 
z
" transform="scale(0.015625)"/>
       <path id="Arial-BoldMT-6d" d="M 394 3319 
L 1203 3319 
L 1203 2866 
Q 1638 3394 2238 3394 
Q 2556 3394 2790 3262 
Q 3025 3131 3175 2866 
Q 3394 3131 3647 3262 
Q 3900 3394 4188 3394 
Q 4553 3394 4806 3245 
Q 5059 3097 5184 2809 
Q 5275 2597 5275 2122 
L 5275 0 
L 4397 0 
L 4397 1897 
Q 4397 2391 4306 2534 
Q 4184 2722 3931 2722 
Q 3747 2722 3584 2609 
Q 3422 2497 3350 2280 
Q 3278 2063 3278 1594 
L 3278 0 
L 2400 0 
L 2400 1819 
Q 2400 2303 2353 2443 
Q 2306 2584 2207 2653 
Q 2109 2722 1941 2722 
Q 1738 2722 1575 2612 
Q 1413 2503 1342 2297 
Q 1272 2091 1272 1613 
L 1272 0 
L 394 0 
L 394 3319 
z
" transform="scale(0.015625)"/>
       <path id="Arial-BoldMT-70" d="M 434 3319 
L 1253 3319 
L 1253 2831 
Q 1413 3081 1684 3237 
Q 1956 3394 2288 3394 
Q 2866 3394 3269 2941 
Q 3672 2488 3672 1678 
Q 3672 847 3265 386 
Q 2859 -75 2281 -75 
Q 2006 -75 1782 34 
Q 1559 144 1313 409 
L 1313 -1263 
L 434 -1263 
L 434 3319 
z
M 1303 1716 
Q 1303 1156 1525 889 
Q 1747 622 2066 622 
Q 2372 622 2575 867 
Q 2778 1113 2778 1672 
Q 2778 2194 2568 2447 
Q 2359 2700 2050 2700 
Q 1728 2700 1515 2451 
Q 1303 2203 1303 1716 
z
" transform="scale(0.015625)"/>
       <path id="Arial-BoldMT-65" d="M 2381 1056 
L 3256 909 
Q 3088 428 2723 176 
Q 2359 -75 1813 -75 
Q 947 -75 531 491 
Q 203 944 203 1634 
Q 203 2459 634 2926 
Q 1066 3394 1725 3394 
Q 2466 3394 2894 2905 
Q 3322 2416 3303 1406 
L 1103 1406 
Q 1113 1016 1316 798 
Q 1519 581 1822 581 
Q 2028 581 2168 693 
Q 2309 806 2381 1056 
z
M 2431 1944 
Q 2422 2325 2234 2523 
Q 2047 2722 1778 2722 
Q 1491 2722 1303 2513 
Q 1116 2303 1119 1944 
L 2431 1944 
z
" transform="scale(0.015625)"/>
       <path id="Arial-BoldMT-69" d="M 459 3769 
L 459 4581 
L 1338 4581 
L 1338 3769 
L 459 3769 
z
M 459 0 
L 459 3319 
L 1338 3319 
L 1338 0 
L 459 0 
z
" transform="scale(0.015625)"/>
       <path id="Arial-BoldMT-7a" d="M 106 0 
L 106 684 
L 1350 2113 
Q 1656 2463 1803 2609 
Q 1650 2600 1400 2597 
L 228 2591 
L 228 3319 
L 2972 3319 
L 2972 2697 
L 1703 1234 
L 1256 750 
Q 1622 772 1709 772 
L 3069 772 
L 3069 0 
L 106 0 
z
" transform="scale(0.015625)"/>
      </defs>
      <use xlink:href="#Arial-BoldMT-54"/>
      <use xlink:href="#Arial-BoldMT-6f" transform="translate(53.708984 0)"/>
      <use xlink:href="#Arial-BoldMT-74" transform="translate(114.792969 0)"/>
      <use xlink:href="#Arial-BoldMT-61" transform="translate(148.09375 0)"/>
      <use xlink:href="#Arial-BoldMT-6c" transform="translate(203.708984 0)"/>
      <use xlink:href="#Arial-BoldMT-20" transform="translate(231.492188 0)"/>
      <use xlink:href="#Arial-BoldMT-73" transform="translate(259.275391 0)"/>
      <use xlink:href="#Arial-BoldMT-61" transform="translate(314.890625 0)"/>
      <use xlink:href="#Arial-BoldMT-6d" transform="translate(370.505859 0)"/>
      <use xlink:href="#Arial-BoldMT-70" transform="translate(459.421875 0)"/>
      <use xlink:href="#Arial-BoldMT-6c" transform="translate(520.505859 0)"/>
      <use xlink:href="#Arial-BoldMT-65" transform="translate(548.289062 0)"/>
      <use xlink:href="#Arial-BoldMT-20" transform="translate(603.904297 0)"/>
      <use xlink:href="#Arial-BoldMT-73" transform="translate(631.6875 0)"/>
      <use xlink:href="#Arial-BoldMT-69" transform="translate(687.302734 0)"/>
      <use xlink:href="#Arial-BoldMT-7a" transform="translate(715.085938 0)"/>
      <use xlink:href="#Arial-BoldMT-65" transform="translate(765.085938 0)"/>
     </g>
    </g>
   </g>
   <g id="matplotlib.axis_2">
    <g id="ytick_1">
     <g id="line2d_7">
      <path d="M 45.922813 331.004062 
L 492.322812 331.004062 
" clip-path="url(#p87030148a7)" style="fill: none; stroke: #ffffff; stroke-linecap: round"/>
     </g>
     <g id="text_8">
      <!-- 0.0 -->
      <g style="fill: #262626" transform="translate(21.522813 334.582969) scale(0.1 -0.1)">
       <defs>
        <path id="ArialMT-2e" d="M 581 0 
L 581 641 
L 1222 641 
L 1222 0 
L 581 0 
z
" transform="scale(0.015625)"/>
       </defs>
       <use xlink:href="#ArialMT-30"/>
       <use xlink:href="#ArialMT-2e" transform="translate(55.615234 0)"/>
       <use xlink:href="#ArialMT-30" transform="translate(83.398438 0)"/>
      </g>
     </g>
    </g>
    <g id="ytick_2">
     <g id="line2d_8">
      <path d="M 45.922813 272.924062 
L 492.322812 272.924062 
" clip-path="url(#p87030148a7)" style="fill: none; stroke: #ffffff; stroke-linecap: round"/>
     </g>
     <g id="text_9">
      <!-- 0.2 -->
      <g style="fill: #262626" transform="translate(21.522813 276.502969) scale(0.1 -0.1)">
       <use xlink:href="#ArialMT-30"/>
       <use xlink:href="#ArialMT-2e" transform="translate(55.615234 0)"/>
       <use xlink:href="#ArialMT-32" transform="translate(83.398438 0)"/>
      </g>
     </g>
    </g>
    <g id="ytick_3">
     <g id="line2d_9">
      <path d="M 45.922813 214.844062 
L 492.322812 214.844062 
" clip-path="url(#p87030148a7)" style="fill: none; stroke: #ffffff; stroke-linecap: round"/>
     </g>
     <g id="text_10">
      <!-- 0.4 -->
      <g style="fill: #262626" transform="translate(21.522813 218.422969) scale(0.1 -0.1)">
       <defs>
        <path id="ArialMT-34" d="M 2069 0 
L 2069 1097 
L 81 1097 
L 81 1613 
L 2172 4581 
L 2631 4581 
L 2631 1613 
L 3250 1613 
L 3250 1097 
L 2631 1097 
L 2631 0 
L 2069 0 
z
M 2069 1613 
L 2069 3678 
L 634 1613 
L 2069 1613 
z
" transform="scale(0.015625)"/>
       </defs>
       <use xlink:href="#ArialMT-30"/>
       <use xlink:href="#ArialMT-2e" transform="translate(55.615234 0)"/>
       <use xlink:href="#ArialMT-34" transform="translate(83.398438 0)"/>
      </g>
     </g>
    </g>
    <g id="ytick_4">
     <g id="line2d_10">
      <path d="M 45.922813 156.764062 
L 492.322812 156.764062 
" clip-path="url(#p87030148a7)" style="fill: none; stroke: #ffffff; stroke-linecap: round"/>
     </g>
     <g id="text_11">
      <!-- 0.6 -->
      <g style="fill: #262626" transform="translate(21.522813 160.342969) scale(0.1 -0.1)">
       <defs>
        <path id="ArialMT-36" d="M 3184 3459 
L 2625 3416 
Q 2550 3747 2413 3897 
Q 2184 4138 1850 4138 
Q 1581 4138 1378 3988 
Q 1113 3794 959 3422 
Q 806 3050 800 2363 
Q 1003 2672 1297 2822 
Q 1591 2972 1913 2972 
Q 2475 2972 2870 2558 
Q 3266 2144 3266 1488 
Q 3266 1056 3080 686 
Q 2894 316 2569 119 
Q 2244 -78 1831 -78 
Q 1128 -78 684 439 
Q 241 956 241 2144 
Q 241 3472 731 4075 
Q 1159 4600 1884 4600 
Q 2425 4600 2770 4297 
Q 3116 3994 3184 3459 
z
M 888 1484 
Q 888 1194 1011 928 
Q 1134 663 1356 523 
Q 1578 384 1822 384 
Q 2178 384 2434 671 
Q 2691 959 2691 1453 
Q 2691 1928 2437 2201 
Q 2184 2475 1800 2475 
Q 1419 2475 1153 2201 
Q 888 1928 888 1484 
z
" transform="scale(0.015625)"/>
       </defs>
       <use xlink:href="#ArialMT-30"/>
       <use xlink:href="#ArialMT-2e" transform="translate(55.615234 0)"/>
       <use xlink:href="#ArialMT-36" transform="translate(83.398438 0)"/>
      </g>
     </g>
    </g>
    <g id="ytick_5">
     <g id="line2d_11">
      <path d="M 45.922813 98.684062 
L 492.322812 98.684062 
" clip-path="url(#p87030148a7)" style="fill: none; stroke: #ffffff; stroke-linecap: round"/>
     </g>
     <g id="text_12">
      <!-- 0.8 -->
      <g style="fill: #262626" transform="translate(21.522813 102.262969) scale(0.1 -0.1)">
       <defs>
        <path id="ArialMT-38" d="M 1131 2484 
Q 781 2613 612 2850 
Q 444 3088 444 3419 
Q 444 3919 803 4259 
Q 1163 4600 1759 4600 
Q 2359 4600 2725 4251 
Q 3091 3903 3091 3403 
Q 3091 3084 2923 2848 
Q 2756 2613 2416 2484 
Q 2838 2347 3058 2040 
Q 3278 1734 3278 1309 
Q 3278 722 2862 322 
Q 2447 -78 1769 -78 
Q 1091 -78 675 323 
Q 259 725 259 1325 
Q 259 1772 486 2073 
Q 713 2375 1131 2484 
z
M 1019 3438 
Q 1019 3113 1228 2906 
Q 1438 2700 1772 2700 
Q 2097 2700 2305 2904 
Q 2513 3109 2513 3406 
Q 2513 3716 2298 3927 
Q 2084 4138 1766 4138 
Q 1444 4138 1231 3931 
Q 1019 3725 1019 3438 
z
M 838 1322 
Q 838 1081 952 856 
Q 1066 631 1291 507 
Q 1516 384 1775 384 
Q 2178 384 2440 643 
Q 2703 903 2703 1303 
Q 2703 1709 2433 1975 
Q 2163 2241 1756 2241 
Q 1359 2241 1098 1978 
Q 838 1716 838 1322 
z
" transform="scale(0.015625)"/>
       </defs>
       <use xlink:href="#ArialMT-30"/>
       <use xlink:href="#ArialMT-2e" transform="translate(55.615234 0)"/>
       <use xlink:href="#ArialMT-38" transform="translate(83.398438 0)"/>
      </g>
     </g>
    </g>
    <g id="ytick_6">
     <g id="line2d_12">
      <path d="M 45.922813 40.604062 
L 492.322812 40.604062 
" clip-path="url(#p87030148a7)" style="fill: none; stroke: #ffffff; stroke-linecap: round"/>
     </g>
     <g id="text_13">
      <!-- 1.0 -->
      <g style="fill: #262626" transform="translate(21.522813 44.182969) scale(0.1 -0.1)">
       <use xlink:href="#ArialMT-31"/>
       <use xlink:href="#ArialMT-2e" transform="translate(55.615234 0)"/>
       <use xlink:href="#ArialMT-30" transform="translate(83.398438 0)"/>
      </g>
     </g>
    </g>
    <g id="text_14">
     <!-- Ratio of trials with significant unmasking -->
     <g style="fill: #262626" transform="translate(15.207656 285.796641) rotate(-90) scale(0.11 -0.11)">
      <defs>
       <path id="Arial-BoldMT-52" d="M 469 0 
L 469 4581 
L 2416 4581 
Q 3150 4581 3483 4457 
Q 3816 4334 4016 4018 
Q 4216 3703 4216 3297 
Q 4216 2781 3912 2445 
Q 3609 2109 3006 2022 
Q 3306 1847 3501 1637 
Q 3697 1428 4028 894 
L 4588 0 
L 3481 0 
L 2813 997 
Q 2456 1531 2325 1670 
Q 2194 1809 2047 1861 
Q 1900 1913 1581 1913 
L 1394 1913 
L 1394 0 
L 469 0 
z
M 1394 2644 
L 2078 2644 
Q 2744 2644 2909 2700 
Q 3075 2756 3169 2893 
Q 3263 3031 3263 3238 
Q 3263 3469 3139 3611 
Q 3016 3753 2791 3791 
Q 2678 3806 2116 3806 
L 1394 3806 
L 1394 2644 
z
" transform="scale(0.015625)"/>
       <path id="Arial-BoldMT-66" d="M 75 3319 
L 563 3319 
L 563 3569 
Q 563 3988 652 4194 
Q 741 4400 980 4529 
Q 1219 4659 1584 4659 
Q 1959 4659 2319 4547 
L 2200 3934 
Q 1991 3984 1797 3984 
Q 1606 3984 1523 3895 
Q 1441 3806 1441 3553 
L 1441 3319 
L 2097 3319 
L 2097 2628 
L 1441 2628 
L 1441 0 
L 563 0 
L 563 2628 
L 75 2628 
L 75 3319 
z
" transform="scale(0.015625)"/>
       <path id="Arial-BoldMT-72" d="M 1300 0 
L 422 0 
L 422 3319 
L 1238 3319 
L 1238 2847 
Q 1447 3181 1614 3287 
Q 1781 3394 1994 3394 
Q 2294 3394 2572 3228 
L 2300 2463 
Q 2078 2606 1888 2606 
Q 1703 2606 1575 2504 
Q 1447 2403 1373 2137 
Q 1300 1872 1300 1025 
L 1300 0 
z
" transform="scale(0.015625)"/>
       <path id="Arial-BoldMT-77" d="M 1078 0 
L 28 3319 
L 881 3319 
L 1503 1144 
L 2075 3319 
L 2922 3319 
L 3475 1144 
L 4109 3319 
L 4975 3319 
L 3909 0 
L 3066 0 
L 2494 2134 
L 1931 0 
L 1078 0 
z
" transform="scale(0.015625)"/>
       <path id="Arial-BoldMT-68" d="M 1334 4581 
L 1334 2897 
Q 1759 3394 2350 3394 
Q 2653 3394 2897 3281 
Q 3141 3169 3264 2994 
Q 3388 2819 3433 2606 
Q 3478 2394 3478 1947 
L 3478 0 
L 2600 0 
L 2600 1753 
Q 2600 2275 2550 2415 
Q 2500 2556 2373 2639 
Q 2247 2722 2056 2722 
Q 1838 2722 1666 2615 
Q 1494 2509 1414 2295 
Q 1334 2081 1334 1663 
L 1334 0 
L 456 0 
L 456 4581 
L 1334 4581 
z
" transform="scale(0.015625)"/>
       <path id="Arial-BoldMT-67" d="M 378 -219 
L 1381 -341 
Q 1406 -516 1497 -581 
Q 1622 -675 1891 -675 
Q 2234 -675 2406 -572 
Q 2522 -503 2581 -350 
Q 2622 -241 2622 53 
L 2622 538 
Q 2228 0 1628 0 
Q 959 0 569 566 
Q 263 1013 263 1678 
Q 263 2513 664 2953 
Q 1066 3394 1663 3394 
Q 2278 3394 2678 2853 
L 2678 3319 
L 3500 3319 
L 3500 341 
Q 3500 -247 3403 -537 
Q 3306 -828 3131 -993 
Q 2956 -1159 2664 -1253 
Q 2372 -1347 1925 -1347 
Q 1081 -1347 728 -1058 
Q 375 -769 375 -325 
Q 375 -281 378 -219 
z
M 1163 1728 
Q 1163 1200 1367 954 
Q 1572 709 1872 709 
Q 2194 709 2416 961 
Q 2638 1213 2638 1706 
Q 2638 2222 2425 2472 
Q 2213 2722 1888 2722 
Q 1572 2722 1367 2476 
Q 1163 2231 1163 1728 
z
" transform="scale(0.015625)"/>
       <path id="Arial-BoldMT-6e" d="M 3478 0 
L 2600 0 
L 2600 1694 
Q 2600 2231 2544 2389 
Q 2488 2547 2361 2634 
Q 2234 2722 2056 2722 
Q 1828 2722 1647 2597 
Q 1466 2472 1398 2265 
Q 1331 2059 1331 1503 
L 1331 0 
L 453 0 
L 453 3319 
L 1269 3319 
L 1269 2831 
Q 1703 3394 2363 3394 
Q 2653 3394 2893 3289 
Q 3134 3184 3257 3021 
Q 3381 2859 3429 2653 
Q 3478 2447 3478 2063 
L 3478 0 
z
" transform="scale(0.015625)"/>
       <path id="Arial-BoldMT-63" d="M 3353 2338 
L 2488 2181 
Q 2444 2441 2289 2572 
Q 2134 2703 1888 2703 
Q 1559 2703 1364 2476 
Q 1169 2250 1169 1719 
Q 1169 1128 1367 884 
Q 1566 641 1900 641 
Q 2150 641 2309 783 
Q 2469 925 2534 1272 
L 3397 1125 
Q 3263 531 2881 228 
Q 2500 -75 1859 -75 
Q 1131 -75 698 384 
Q 266 844 266 1656 
Q 266 2478 700 2936 
Q 1134 3394 1875 3394 
Q 2481 3394 2839 3133 
Q 3197 2872 3353 2338 
z
" transform="scale(0.015625)"/>
       <path id="Arial-BoldMT-75" d="M 2644 0 
L 2644 497 
Q 2463 231 2167 78 
Q 1872 -75 1544 -75 
Q 1209 -75 943 72 
Q 678 219 559 484 
Q 441 750 441 1219 
L 441 3319 
L 1319 3319 
L 1319 1794 
Q 1319 1094 1367 936 
Q 1416 778 1544 686 
Q 1672 594 1869 594 
Q 2094 594 2272 717 
Q 2450 841 2515 1023 
Q 2581 1206 2581 1919 
L 2581 3319 
L 3459 3319 
L 3459 0 
L 2644 0 
z
" transform="scale(0.015625)"/>
       <path id="Arial-BoldMT-6b" d="M 428 0 
L 428 4581 
L 1306 4581 
L 1306 2150 
L 2334 3319 
L 3416 3319 
L 2281 2106 
L 3497 0 
L 2550 0 
L 1716 1491 
L 1306 1063 
L 1306 0 
L 428 0 
z
" transform="scale(0.015625)"/>
      </defs>
      <use xlink:href="#Arial-BoldMT-52"/>
      <use xlink:href="#Arial-BoldMT-61" transform="translate(72.216797 0)"/>
      <use xlink:href="#Arial-BoldMT-74" transform="translate(127.832031 0)"/>
      <use xlink:href="#Arial-BoldMT-69" transform="translate(161.132812 0)"/>
      <use xlink:href="#Arial-BoldMT-6f" transform="translate(188.916016 0)"/>
      <use xlink:href="#Arial-BoldMT-20" transform="translate(250 0)"/>
      <use xlink:href="#Arial-BoldMT-6f" transform="translate(277.783203 0)"/>
      <use xlink:href="#Arial-BoldMT-66" transform="translate(338.867188 0)"/>
      <use xlink:href="#Arial-BoldMT-20" transform="translate(372.167969 0)"/>
      <use xlink:href="#Arial-BoldMT-74" transform="translate(399.951172 0)"/>
      <use xlink:href="#Arial-BoldMT-72" transform="translate(433.251953 0)"/>
      <use xlink:href="#Arial-BoldMT-69" transform="translate(472.167969 0)"/>
      <use xlink:href="#Arial-BoldMT-61" transform="translate(499.951172 0)"/>
      <use xlink:href="#Arial-BoldMT-6c" transform="translate(555.566406 0)"/>
      <use xlink:href="#Arial-BoldMT-73" transform="translate(583.349609 0)"/>
      <use xlink:href="#Arial-BoldMT-20" transform="translate(638.964844 0)"/>
      <use xlink:href="#Arial-BoldMT-77" transform="translate(666.748047 0)"/>
      <use xlink:href="#Arial-BoldMT-69" transform="translate(744.53125 0)"/>
      <use xlink:href="#Arial-BoldMT-74" transform="translate(772.314453 0)"/>
      <use xlink:href="#Arial-BoldMT-68" transform="translate(805.615234 0)"/>
      <use xlink:href="#Arial-BoldMT-20" transform="translate(866.699219 0)"/>
      <use xlink:href="#Arial-BoldMT-73" transform="translate(894.482422 0)"/>
      <use xlink:href="#Arial-BoldMT-69" transform="translate(950.097656 0)"/>
      <use xlink:href="#Arial-BoldMT-67" transform="translate(977.880859 0)"/>
      <use xlink:href="#Arial-BoldMT-6e" transform="translate(1038.964844 0)"/>
      <use xlink:href="#Arial-BoldMT-69" transform="translate(1100.048828 0)"/>
      <use xlink:href="#Arial-BoldMT-66" transform="translate(1127.832031 0)"/>
      <use xlink:href="#Arial-BoldMT-69" transform="translate(1161.132812 0)"/>
      <use xlink:href="#Arial-BoldMT-63" transform="translate(1188.916016 0)"/>
      <use xlink:href="#Arial-BoldMT-61" transform="translate(1244.53125 0)"/>
      <use xlink:href="#Arial-BoldMT-6e" transform="translate(1300.146484 0)"/>
      <use xlink:href="#Arial-BoldMT-74" transform="translate(1361.230469 0)"/>
      <use xlink:href="#Arial-BoldMT-20" transform="translate(1394.53125 0)"/>
      <use xlink:href="#Arial-BoldMT-75" transform="translate(1422.314453 0)"/>
      <use xlink:href="#Arial-BoldMT-6e" transform="translate(1483.398438 0)"/>
      <use xlink:href="#Arial-BoldMT-6d" transform="translate(1544.482422 0)"/>
      <use xlink:href="#Arial-BoldMT-61" transform="translate(1633.398438 0)"/>
      <use xlink:href="#Arial-BoldMT-73" transform="translate(1689.013672 0)"/>
      <use xlink:href="#Arial-BoldMT-6b" transform="translate(1744.628906 0)"/>
      <use xlink:href="#Arial-BoldMT-69" transform="translate(1800.244141 0)"/>
      <use xlink:href="#Arial-BoldMT-6e" transform="translate(1828.027344 0)"/>
      <use xlink:href="#Arial-BoldMT-67" transform="translate(1889.111328 0)"/>
     </g>
    </g>
   </g>
   <g id="FillBetweenPolyCollection_1">
    <defs>
     <path id="m0bea038906" d="M 45.922813 -59.281688 
L 45.922813 -46.697688 
L 62.456146 -48.633688 
L 78.989479 -44.761688 
L 95.522813 -46.697688 
L 112.056146 -49.601688 
L 128.589479 -48.633688 
L 145.122813 -46.697688 
L 161.656146 -48.633688 
L 194.722813 -48.633688 
L 227.789479 -46.697688 
L 260.856146 -46.697688 
L 293.922813 -44.761688 
L 326.989479 -42.825688 
L 360.056146 -43.793688 
L 393.122813 -45.729688 
L 426.189479 -44.761688 
L 459.256146 -45.705488 
L 492.322812 -48.633688 
L 492.322812 -62.185688 
L 492.322812 -62.185688 
L 459.256146 -57.345688 
L 426.189479 -56.377688 
L 393.122813 -56.377688 
L 360.056146 -54.441688 
L 326.989479 -51.537688 
L 293.922813 -55.433887 
L 260.856146 -59.281688 
L 227.789479 -60.249688 
L 194.722813 -61.217688 
L 161.656146 -63.153688 
L 145.122813 -59.281688 
L 128.589479 -63.153688 
L 112.056146 -65.089688 
L 95.522813 -59.281688 
L 78.989479 -57.345688 
L 62.456146 -62.185688 
L 45.922813 -59.281688 
z
" style="stroke: #1f77b4; stroke-opacity: 0.2; stroke-width: 0.3"/>
    </defs>
    <g clip-path="url(#p87030148a7)">
     <use xlink:href="#m0bea038906" x="0" y="371.89375" style="fill: #1f77b4; fill-opacity: 0.2; stroke: #1f77b4; stroke-opacity: 0.2; stroke-width: 0.3"/>
    </g>
   </g>
   <g id="FillBetweenPolyCollection_2">
    <defs>
     <path id="mb4ced0b60a" d="M 45.922813 -79.609688 
L 45.922813 -61.193488 
L 62.456146 -64.121688 
L 78.989479 -65.089688 
L 95.522813 -67.993688 
L 112.056146 -67.025688 
L 128.589479 -74.769688 
L 145.122813 -77.673688 
L 161.656146 -79.609688 
L 194.722813 -87.329488 
L 227.789479 -84.449688 
L 260.856146 -94.129688 
L 293.922813 -95.097688 
L 326.989479 -99.937688 
L 360.056146 -106.713688 
L 393.122813 -115.425688 
L 426.189479 -121.209488 
L 459.256146 -128.009688 
L 492.322812 -131.881688 
L 492.322812 -162.857687 
L 492.322812 -162.857687 
L 459.256146 -158.985688 
L 426.189479 -150.273688 
L 393.122813 -146.401688 
L 360.056146 -136.721688 
L 326.989479 -128.977688 
L 293.922813 -122.201688 
L 260.856146 -122.201688 
L 227.789479 -108.649688 
L 194.722813 -112.545888 
L 161.656146 -103.809688 
L 145.122813 -102.841688 
L 128.589479 -98.969688 
L 112.056146 -89.289688 
L 95.522813 -90.257688 
L 78.989479 -86.385688 
L 62.456146 -85.417687 
L 45.922813 -79.609688 
z
" style="stroke: #ff7f0e; stroke-opacity: 0.2; stroke-width: 0.3"/>
    </defs>
    <g clip-path="url(#p87030148a7)">
     <use xlink:href="#mb4ced0b60a" x="0" y="371.89375" style="fill: #ff7f0e; fill-opacity: 0.2; stroke: #ff7f0e; stroke-opacity: 0.2; stroke-width: 0.3"/>
    </g>
   </g>
   <g id="FillBetweenPolyCollection_3">
    <defs>
     <path id="md5d97854b3" d="M 45.922813 -99.937688 
L 45.922813 -75.737688 
L 62.456146 -81.545688 
L 78.989479 -102.841688 
L 95.522813 -115.425688 
L 112.056146 -121.233688 
L 128.589479 -138.657688 
L 145.122813 -153.153488 
L 161.656146 -153.177688 
L 194.722813 -193.833688 
L 227.789479 -218.033688 
L 260.856146 -226.745688 
L 293.922813 -246.105688 
L 326.989479 -259.657688 
L 360.056146 -276.089488 
L 393.122813 -287.729688 
L 426.189479 -287.729688 
L 459.256146 -297.409688 
L 492.322812 -306.121688 
L 492.322812 -321.609688 
L 492.322812 -321.609688 
L 459.256146 -315.801688 
L 426.189479 -308.057688 
L 393.122813 -308.081887 
L 360.056146 -299.345688 
L 326.989479 -284.825688 
L 293.922813 -274.177688 
L 260.856146 -255.785688 
L 227.789479 -248.041688 
L 194.722813 -225.777688 
L 161.656146 -185.121688 
L 145.122813 -185.121688 
L 128.589479 -171.569688 
L 112.056146 -152.209688 
L 95.522813 -144.489888 
L 78.989479 -130.913688 
L 62.456146 -107.681688 
L 45.922813 -99.937688 
z
" style="stroke: #2ca02c; stroke-opacity: 0.2; stroke-width: 0.3"/>
    </defs>
    <g clip-path="url(#p87030148a7)">
     <use xlink:href="#md5d97854b3" x="0" y="371.89375" style="fill: #2ca02c; fill-opacity: 0.2; stroke: #2ca02c; stroke-opacity: 0.2; stroke-width: 0.3"/>
    </g>
   </g>
   <g id="FillBetweenPolyCollection_4">
    <defs>
     <path id="mb416375e9a" d="M 45.922813 -164.817888 
L 45.922813 -134.785687 
L 62.456146 -160.921688 
L 78.989479 -186.089688 
L 95.522813 -205.449688 
L 112.056146 -219.001688 
L 128.589479 -245.137688 
L 145.122813 -257.721688 
L 161.656146 -279.985688 
L 194.722813 -296.441688 
L 227.789479 -305.153688 
L 260.856146 -312.897688 
L 293.922813 -321.609688 
L 326.989479 -326.449687 
L 360.056146 -327.417688 
L 393.122813 -328.385688 
L 426.189479 -328.385688 
L 459.256146 -328.385688 
L 492.322812 -331.289688 
L 492.322812 -331.289688 
L 492.322812 -331.289688 
L 459.256146 -331.289688 
L 426.189479 -331.289688 
L 393.122813 -331.289688 
L 360.056146 -331.289688 
L 326.989479 -331.289688 
L 293.922813 -330.321688 
L 260.856146 -325.481688 
L 227.789479 -320.641688 
L 194.722813 -314.833687 
L 161.656146 -302.249688 
L 145.122813 -285.793688 
L 128.589479 -273.209688 
L 112.056146 -250.945688 
L 95.522813 -238.361688 
L 78.989479 -218.033688 
L 62.456146 -193.833688 
L 45.922813 -164.817888 
z
" style="stroke: #d62728; stroke-opacity: 0.2; stroke-width: 0.3"/>
    </defs>
    <g clip-path="url(#p87030148a7)">
     <use xlink:href="#mb416375e9a" x="0" y="371.89375" style="fill: #d62728; fill-opacity: 0.2; stroke: #d62728; stroke-opacity: 0.2; stroke-width: 0.3"/>
    </g>
   </g>
   <g id="line2d_13">
    <path d="M 45.922813 319.388062 
L 62.456146 317.452062 
L 78.989479 321.324062 
L 95.522813 319.388062 
L 112.056146 314.548062 
L 128.589479 316.484062 
L 145.122813 319.388062 
L 161.656146 316.484062 
L 194.722813 317.452062 
L 227.789479 318.420062 
L 260.856146 318.420062 
L 293.922813 322.292062 
L 326.989479 325.196062 
L 360.056146 323.260062 
L 393.122813 321.324062 
L 426.189479 321.324062 
L 459.256146 320.356062 
L 492.322812 317.452062 
" clip-path="url(#p87030148a7)" style="fill: none; stroke: #1f77b4; stroke-width: 1.75; stroke-linecap: round"/>
   </g>
   <g id="line2d_14">
    <path d="M 45.922813 301.964062 
L 62.456146 297.124062 
L 78.989479 297.124062 
L 95.522813 293.252062 
L 112.056146 293.252062 
L 128.589479 285.508062 
L 145.122813 281.636062 
L 161.656146 280.668062 
L 194.722813 271.956062 
L 227.789479 275.828062 
L 260.856146 264.212062 
L 293.922813 263.244062 
L 326.989479 258.404062 
L 360.056146 250.660062 
L 393.122813 240.980062 
L 426.189479 236.140062 
L 459.256146 228.396062 
L 492.322812 224.524062 
" clip-path="url(#p87030148a7)" style="fill: none; stroke: #ff7f0e; stroke-width: 1.75; stroke-linecap: round"/>
   </g>
   <g id="line2d_15">
    <path d="M 45.922813 284.540062 
L 62.456146 277.764062 
L 78.989479 255.500062 
L 95.522813 241.948062 
L 112.056146 236.140062 
L 128.589479 215.812062 
L 145.122813 202.260062 
L 161.656146 202.260062 
L 194.722813 162.572062 
L 227.789479 139.340062 
L 260.856146 129.660062 
L 293.922813 112.236062 
L 326.989479 98.684062 
L 360.056146 84.164062 
L 393.122813 73.516062 
L 426.189479 73.516062 
L 459.256146 64.804062 
L 492.322812 57.060062 
" clip-path="url(#p87030148a7)" style="fill: none; stroke: #2ca02c; stroke-width: 1.75; stroke-linecap: round"/>
   </g>
   <g id="line2d_16">
    <path d="M 45.922813 222.588062 
L 62.456146 194.516062 
L 78.989479 170.316062 
L 95.522813 149.020062 
L 112.056146 137.404062 
L 128.589479 112.236062 
L 145.122813 99.652062 
L 161.656146 80.292062 
L 194.722813 65.772062 
L 227.789479 58.996062 
L 260.856146 52.220062 
L 293.922813 45.444062 
L 326.989479 42.540062 
L 360.056146 41.572062 
L 393.122813 41.572062 
L 426.189479 41.572062 
L 459.256146 41.572062 
L 492.322812 40.604062 
" clip-path="url(#p87030148a7)" style="fill: none; stroke: #d62728; stroke-width: 1.75; stroke-linecap: round"/>
   </g>
   <g id="line2d_17"/>
   <g id="line2d_18"/>
   <g id="line2d_19"/>
   <g id="line2d_20"/>
   <g id="patch_3">
    <path d="M 45.922813 331.004062 
L 45.922813 26.084062 
" style="fill: none; stroke: #ffffff; stroke-width: 0.8; stroke-linejoin: miter; stroke-linecap: square"/>
   </g>
   <g id="patch_4">
    <path d="M 492.322812 331.004062 
L 492.322812 26.084062 
" style="fill: none; stroke: #ffffff; stroke-width: 0.8; stroke-linejoin: miter; stroke-linecap: square"/>
   </g>
   <g id="patch_5">
    <path d="M 45.922813 331.004062 
L 492.322812 331.004062 
" style="fill: none; stroke: #ffffff; stroke-width: 0.8; stroke-linejoin: miter; stroke-linecap: square"/>
   </g>
   <g id="patch_6">
    <path d="M 45.922813 26.084062 
L 492.322812 26.084062 
" style="fill: none; stroke: #ffffff; stroke-width: 0.8; stroke-linejoin: miter; stroke-linecap: square"/>
   </g>
   <g id="text_15">
    <!-- Unmasking power - guessed mg -->
    <g style="fill: #262626" transform="translate(131.103594 20.084062) scale(0.18 -0.18)">
     <defs>
      <path id="Arial-BoldMT-55" d="M 459 4581 
L 1384 4581 
L 1384 2100 
Q 1384 1509 1419 1334 
Q 1478 1053 1701 883 
Q 1925 713 2313 713 
Q 2706 713 2906 873 
Q 3106 1034 3147 1268 
Q 3188 1503 3188 2047 
L 3188 4581 
L 4113 4581 
L 4113 2175 
Q 4113 1350 4038 1009 
Q 3963 669 3761 434 
Q 3559 200 3221 61 
Q 2884 -78 2341 -78 
Q 1684 -78 1345 73 
Q 1006 225 809 467 
Q 613 709 550 975 
Q 459 1369 459 2138 
L 459 4581 
z
" transform="scale(0.015625)"/>
      <path id="Arial-BoldMT-2d" d="M 359 1222 
L 359 2100 
L 2084 2100 
L 2084 1222 
L 359 1222 
z
" transform="scale(0.015625)"/>
      <path id="Arial-BoldMT-64" d="M 3503 0 
L 2688 0 
L 2688 488 
Q 2484 203 2207 64 
Q 1931 -75 1650 -75 
Q 1078 -75 670 386 
Q 263 847 263 1672 
Q 263 2516 659 2955 
Q 1056 3394 1663 3394 
Q 2219 3394 2625 2931 
L 2625 4581 
L 3503 4581 
L 3503 0 
z
M 1159 1731 
Q 1159 1200 1306 963 
Q 1519 619 1900 619 
Q 2203 619 2415 876 
Q 2628 1134 2628 1647 
Q 2628 2219 2422 2470 
Q 2216 2722 1894 2722 
Q 1581 2722 1370 2473 
Q 1159 2225 1159 1731 
z
" transform="scale(0.015625)"/>
     </defs>
     <use xlink:href="#Arial-BoldMT-55"/>
     <use xlink:href="#Arial-BoldMT-6e" transform="translate(72.216797 0)"/>
     <use xlink:href="#Arial-BoldMT-6d" transform="translate(133.300781 0)"/>
     <use xlink:href="#Arial-BoldMT-61" transform="translate(222.216797 0)"/>
     <use xlink:href="#Arial-BoldMT-73" transform="translate(277.832031 0)"/>
     <use xlink:href="#Arial-BoldMT-6b" transform="translate(333.447266 0)"/>
     <use xlink:href="#Arial-BoldMT-69" transform="translate(389.0625 0)"/>
     <use xlink:href="#Arial-BoldMT-6e" transform="translate(416.845703 0)"/>
     <use xlink:href="#Arial-BoldMT-67" transform="translate(477.929688 0)"/>
     <use xlink:href="#Arial-BoldMT-20" transform="translate(539.013672 0)"/>
     <use xlink:href="#Arial-BoldMT-70" transform="translate(566.796875 0)"/>
     <use xlink:href="#Arial-BoldMT-6f" transform="translate(627.880859 0)"/>
     <use xlink:href="#Arial-BoldMT-77" transform="translate(688.964844 0)"/>
     <use xlink:href="#Arial-BoldMT-65" transform="translate(766.748047 0)"/>
     <use xlink:href="#Arial-BoldMT-72" transform="translate(822.363281 0)"/>
     <use xlink:href="#Arial-BoldMT-20" transform="translate(861.279297 0)"/>
     <use xlink:href="#Arial-BoldMT-2d" transform="translate(889.0625 0)"/>
     <use xlink:href="#Arial-BoldMT-20" transform="translate(922.363281 0)"/>
     <use xlink:href="#Arial-BoldMT-67" transform="translate(950.146484 0)"/>
     <use xlink:href="#Arial-BoldMT-75" transform="translate(1011.230469 0)"/>
     <use xlink:href="#Arial-BoldMT-65" transform="translate(1072.314453 0)"/>
     <use xlink:href="#Arial-BoldMT-73" transform="translate(1127.929688 0)"/>
     <use xlink:href="#Arial-BoldMT-73" transform="translate(1183.544922 0)"/>
     <use xlink:href="#Arial-BoldMT-65" transform="translate(1239.160156 0)"/>
     <use xlink:href="#Arial-BoldMT-64" transform="translate(1294.775391 0)"/>
     <use xlink:href="#Arial-BoldMT-20" transform="translate(1355.859375 0)"/>
     <use xlink:href="#Arial-BoldMT-6d" transform="translate(1383.642578 0)"/>
     <use xlink:href="#Arial-BoldMT-67" transform="translate(1472.558594 0)"/>
    </g>
   </g>
   <g id="legend_1">
    <g id="patch_7">
     <path d="M 52.922813 105.354375 
L 151.082188 105.354375 
Q 153.082188 105.354375 153.082188 103.354375 
L 153.082188 33.084062 
Q 153.082188 31.084062 151.082188 31.084062 
L 52.922813 31.084062 
Q 50.922813 31.084062 50.922813 33.084062 
L 50.922813 103.354375 
Q 50.922813 105.354375 52.922813 105.354375 
z
" style="fill: #eaeaf2; opacity: 0.8; stroke: #cccccc; stroke-width: 0.3; stroke-linejoin: miter"/>
    </g>
    <g id="text_16">
     <!-- Scenario -->
     <g style="fill: #262626" transform="translate(80.882969 42.241875) scale(0.1 -0.1)">
      <defs>
       <path id="Arial-BoldMT-53" d="M 231 1491 
L 1131 1578 
Q 1213 1125 1461 912 
Q 1709 700 2131 700 
Q 2578 700 2804 889 
Q 3031 1078 3031 1331 
Q 3031 1494 2936 1608 
Q 2841 1722 2603 1806 
Q 2441 1863 1863 2006 
Q 1119 2191 819 2459 
Q 397 2838 397 3381 
Q 397 3731 595 4036 
Q 794 4341 1167 4500 
Q 1541 4659 2069 4659 
Q 2931 4659 3367 4281 
Q 3803 3903 3825 3272 
L 2900 3231 
Q 2841 3584 2645 3739 
Q 2450 3894 2059 3894 
Q 1656 3894 1428 3728 
Q 1281 3622 1281 3444 
Q 1281 3281 1419 3166 
Q 1594 3019 2269 2859 
Q 2944 2700 3267 2529 
Q 3591 2359 3773 2064 
Q 3956 1769 3956 1334 
Q 3956 941 3737 597 
Q 3519 253 3119 86 
Q 2719 -81 2122 -81 
Q 1253 -81 787 320 
Q 322 722 231 1491 
z
" transform="scale(0.015625)"/>
      </defs>
      <use xlink:href="#Arial-BoldMT-53"/>
      <use xlink:href="#Arial-BoldMT-63" transform="translate(66.699219 0)"/>
      <use xlink:href="#Arial-BoldMT-65" transform="translate(122.314453 0)"/>
      <use xlink:href="#Arial-BoldMT-6e" transform="translate(177.929688 0)"/>
      <use xlink:href="#Arial-BoldMT-61" transform="translate(239.013672 0)"/>
      <use xlink:href="#Arial-BoldMT-72" transform="translate(294.628906 0)"/>
      <use xlink:href="#Arial-BoldMT-69" transform="translate(333.544922 0)"/>
      <use xlink:href="#Arial-BoldMT-6f" transform="translate(361.328125 0)"/>
     </g>
    </g>
    <g id="line2d_21">
     <path d="M 54.922813 52.902812 
L 64.922813 52.902812 
L 74.922813 52.902812 
" style="fill: none; stroke: #1f77b4; stroke-width: 1.75; stroke-linecap: round"/>
    </g>
    <g id="text_17">
     <!-- Δ guess 0.0mg -->
     <g style="fill: #262626" transform="translate(82.922813 56.402812) scale(0.1 -0.1)">
      <defs>
       <path id="ArialMT-394" d="M -6 0 
L 1753 4581 
L 2406 4581 
L 4281 0 
L -6 0 
z
M 834 541 
L 3381 541 
L 2391 3150 
Q 2169 3738 2066 4100 
Q 1981 3675 1819 3225 
L 834 541 
z
" transform="scale(0.015625)"/>
       <path id="ArialMT-20" transform="scale(0.015625)"/>
       <path id="ArialMT-67" d="M 319 -275 
L 866 -356 
Q 900 -609 1056 -725 
Q 1266 -881 1628 -881 
Q 2019 -881 2231 -725 
Q 2444 -569 2519 -288 
Q 2563 -116 2559 434 
Q 2191 0 1641 0 
Q 956 0 581 494 
Q 206 988 206 1678 
Q 206 2153 378 2554 
Q 550 2956 876 3175 
Q 1203 3394 1644 3394 
Q 2231 3394 2613 2919 
L 2613 3319 
L 3131 3319 
L 3131 450 
Q 3131 -325 2973 -648 
Q 2816 -972 2473 -1159 
Q 2131 -1347 1631 -1347 
Q 1038 -1347 672 -1080 
Q 306 -813 319 -275 
z
M 784 1719 
Q 784 1066 1043 766 
Q 1303 466 1694 466 
Q 2081 466 2343 764 
Q 2606 1063 2606 1700 
Q 2606 2309 2336 2618 
Q 2066 2928 1684 2928 
Q 1309 2928 1046 2623 
Q 784 2319 784 1719 
z
" transform="scale(0.015625)"/>
       <path id="ArialMT-75" d="M 2597 0 
L 2597 488 
Q 2209 -75 1544 -75 
Q 1250 -75 995 37 
Q 741 150 617 320 
Q 494 491 444 738 
Q 409 903 409 1263 
L 409 3319 
L 972 3319 
L 972 1478 
Q 972 1038 1006 884 
Q 1059 663 1231 536 
Q 1403 409 1656 409 
Q 1909 409 2131 539 
Q 2353 669 2445 892 
Q 2538 1116 2538 1541 
L 2538 3319 
L 3100 3319 
L 3100 0 
L 2597 0 
z
" transform="scale(0.015625)"/>
       <path id="ArialMT-65" d="M 2694 1069 
L 3275 997 
Q 3138 488 2766 206 
Q 2394 -75 1816 -75 
Q 1088 -75 661 373 
Q 234 822 234 1631 
Q 234 2469 665 2931 
Q 1097 3394 1784 3394 
Q 2450 3394 2872 2941 
Q 3294 2488 3294 1666 
Q 3294 1616 3291 1516 
L 816 1516 
Q 847 969 1125 678 
Q 1403 388 1819 388 
Q 2128 388 2347 550 
Q 2566 713 2694 1069 
z
M 847 1978 
L 2700 1978 
Q 2663 2397 2488 2606 
Q 2219 2931 1791 2931 
Q 1403 2931 1139 2672 
Q 875 2413 847 1978 
z
" transform="scale(0.015625)"/>
       <path id="ArialMT-73" d="M 197 991 
L 753 1078 
Q 800 744 1014 566 
Q 1228 388 1613 388 
Q 2000 388 2187 545 
Q 2375 703 2375 916 
Q 2375 1106 2209 1216 
Q 2094 1291 1634 1406 
Q 1016 1563 777 1677 
Q 538 1791 414 1992 
Q 291 2194 291 2438 
Q 291 2659 392 2848 
Q 494 3038 669 3163 
Q 800 3259 1026 3326 
Q 1253 3394 1513 3394 
Q 1903 3394 2198 3281 
Q 2494 3169 2634 2976 
Q 2775 2784 2828 2463 
L 2278 2388 
Q 2241 2644 2061 2787 
Q 1881 2931 1553 2931 
Q 1166 2931 1000 2803 
Q 834 2675 834 2503 
Q 834 2394 903 2306 
Q 972 2216 1119 2156 
Q 1203 2125 1616 2013 
Q 2213 1853 2448 1751 
Q 2684 1650 2818 1456 
Q 2953 1263 2953 975 
Q 2953 694 2789 445 
Q 2625 197 2315 61 
Q 2006 -75 1616 -75 
Q 969 -75 630 194 
Q 291 463 197 991 
z
" transform="scale(0.015625)"/>
       <path id="ArialMT-6d" d="M 422 0 
L 422 3319 
L 925 3319 
L 925 2853 
Q 1081 3097 1340 3245 
Q 1600 3394 1931 3394 
Q 2300 3394 2536 3241 
Q 2772 3088 2869 2813 
Q 3263 3394 3894 3394 
Q 4388 3394 4653 3120 
Q 4919 2847 4919 2278 
L 4919 0 
L 4359 0 
L 4359 2091 
Q 4359 2428 4304 2576 
Q 4250 2725 4106 2815 
Q 3963 2906 3769 2906 
Q 3419 2906 3187 2673 
Q 2956 2441 2956 1928 
L 2956 0 
L 2394 0 
L 2394 2156 
Q 2394 2531 2256 2718 
Q 2119 2906 1806 2906 
Q 1569 2906 1367 2781 
Q 1166 2656 1075 2415 
Q 984 2175 984 1722 
L 984 0 
L 422 0 
z
" transform="scale(0.015625)"/>
      </defs>
      <use xlink:href="#ArialMT-394"/>
      <use xlink:href="#ArialMT-20" transform="translate(61.296875 0)"/>
      <use xlink:href="#ArialMT-67" transform="translate(89.080078 0)"/>
      <use xlink:href="#ArialMT-75" transform="translate(144.695312 0)"/>
      <use xlink:href="#ArialMT-65" transform="translate(200.310547 0)"/>
      <use xlink:href="#ArialMT-73" transform="translate(255.925781 0)"/>
      <use xlink:href="#ArialMT-73" transform="translate(305.925781 0)"/>
      <use xlink:href="#ArialMT-20" transform="translate(355.925781 0)"/>
      <use xlink:href="#ArialMT-30" transform="translate(383.708984 0)"/>
      <use xlink:href="#ArialMT-2e" transform="translate(439.324219 0)"/>
      <use xlink:href="#ArialMT-30" transform="translate(467.107422 0)"/>
      <use xlink:href="#ArialMT-6d" transform="translate(522.722656 0)"/>
      <use xlink:href="#ArialMT-67" transform="translate(606.023438 0)"/>
     </g>
    </g>
    <g id="line2d_22">
     <path d="M 54.922813 67.195 
L 64.922813 67.195 
L 74.922813 67.195 
" style="fill: none; stroke: #ff7f0e; stroke-width: 1.75; stroke-linecap: round"/>
    </g>
    <g id="text_18">
     <!-- Δ guess 1.5mg -->
     <g style="fill: #262626" transform="translate(82.922813 70.695) scale(0.1 -0.1)">
      <use xlink:href="#ArialMT-394"/>
      <use xlink:href="#ArialMT-20" transform="translate(61.296875 0)"/>
      <use xlink:href="#ArialMT-67" transform="translate(89.080078 0)"/>
      <use xlink:href="#ArialMT-75" transform="translate(144.695312 0)"/>
      <use xlink:href="#ArialMT-65" transform="translate(200.310547 0)"/>
      <use xlink:href="#ArialMT-73" transform="translate(255.925781 0)"/>
      <use xlink:href="#ArialMT-73" transform="translate(305.925781 0)"/>
      <use xlink:href="#ArialMT-20" transform="translate(355.925781 0)"/>
      <use xlink:href="#ArialMT-31" transform="translate(383.708984 0)"/>
      <use xlink:href="#ArialMT-2e" transform="translate(439.324219 0)"/>
      <use xlink:href="#ArialMT-35" transform="translate(467.107422 0)"/>
      <use xlink:href="#ArialMT-6d" transform="translate(522.722656 0)"/>
      <use xlink:href="#ArialMT-67" transform="translate(606.023438 0)"/>
     </g>
    </g>
    <g id="line2d_23">
     <path d="M 54.922813 81.487187 
L 64.922813 81.487187 
L 74.922813 81.487187 
" style="fill: none; stroke: #2ca02c; stroke-width: 1.75; stroke-linecap: round"/>
    </g>
    <g id="text_19">
     <!-- Δ guess 3.0mg -->
     <g style="fill: #262626" transform="translate(82.922813 84.987187) scale(0.1 -0.1)">
      <use xlink:href="#ArialMT-394"/>
      <use xlink:href="#ArialMT-20" transform="translate(61.296875 0)"/>
      <use xlink:href="#ArialMT-67" transform="translate(89.080078 0)"/>
      <use xlink:href="#ArialMT-75" transform="translate(144.695312 0)"/>
      <use xlink:href="#ArialMT-65" transform="translate(200.310547 0)"/>
      <use xlink:href="#ArialMT-73" transform="translate(255.925781 0)"/>
      <use xlink:href="#ArialMT-73" transform="translate(305.925781 0)"/>
      <use xlink:href="#ArialMT-20" transform="translate(355.925781 0)"/>
      <use xlink:href="#ArialMT-33" transform="translate(383.708984 0)"/>
      <use xlink:href="#ArialMT-2e" transform="translate(439.324219 0)"/>
      <use xlink:href="#ArialMT-30" transform="translate(467.107422 0)"/>
      <use xlink:href="#ArialMT-6d" transform="translate(522.722656 0)"/>
      <use xlink:href="#ArialMT-67" transform="translate(606.023438 0)"/>
     </g>
    </g>
    <g id="line2d_24">
     <path d="M 54.922813 95.749687 
L 64.922813 95.749687 
L 74.922813 95.749687 
" style="fill: none; stroke: #d62728; stroke-width: 1.75; stroke-linecap: round"/>
    </g>
    <g id="text_20">
     <!-- Δ guess 4.5mg -->
     <g style="fill: #262626" transform="translate(82.922813 99.249687) scale(0.1 -0.1)">
      <use xlink:href="#ArialMT-394"/>
      <use xlink:href="#ArialMT-20" transform="translate(61.296875 0)"/>
      <use xlink:href="#ArialMT-67" transform="translate(89.080078 0)"/>
      <use xlink:href="#ArialMT-75" transform="translate(144.695312 0)"/>
      <use xlink:href="#ArialMT-65" transform="translate(200.310547 0)"/>
      <use xlink:href="#ArialMT-73" transform="translate(255.925781 0)"/>
      <use xlink:href="#ArialMT-73" transform="translate(305.925781 0)"/>
      <use xlink:href="#ArialMT-20" transform="translate(355.925781 0)"/>
      <use xlink:href="#ArialMT-34" transform="translate(383.708984 0)"/>
      <use xlink:href="#ArialMT-2e" transform="translate(439.324219 0)"/>
      <use xlink:href="#ArialMT-35" transform="translate(467.107422 0)"/>
      <use xlink:href="#ArialMT-6d" transform="translate(522.722656 0)"/>
      <use xlink:href="#ArialMT-67" transform="translate(606.023438 0)"/>
     </g>
    </g>
   </g>
  </g>
 </g>
 <defs>
  <clipPath id="p87030148a7">
   <rect x="45.922813" y="26.084062" width="446.4" height="304.92"/>
  </clipPath>
 </defs>
</svg>
