<?xml version="1.0" encoding="utf-8" standalone="no"?>
<!DOCTYPE svg PUBLIC "-//W3C//DTD SVG 1.1//EN"
  "http://www.w3.org/Graphics/SVG/1.1/DTD/svg11.dtd">
<svg xmlns:xlink="http://www.w3.org/1999/xlink" width="510.644688pt" height="372.113125pt" viewBox="0 0 510.644688 372.113125" xmlns="http://www.w3.org/2000/svg" version="1.1">
 <metadata>
  <rdf:RDF xmlns:dc="http://purl.org/dc/elements/1.1/" xmlns:cc="http://creativecommons.org/ns#" xmlns:rdf="http://www.w3.org/1999/02/22-rdf-syntax-ns#">
   <cc:Work>
    <dc:type rdf:resource="http://purl.org/dc/dcmitype/StillImage"/>
    <dc:date>2026-01-14T14:41:47.682250</dc:date>
    <dc:format>image/svg+xml</dc:format>
    <dc:creator>
     <cc:Agent>
      <dc:title>Matplotlib v3.10.6, https://matplotlib.org/</dc:title>
     </cc:Agent>
    </dc:creator>
   </cc:Work>
  </rdf:RDF>
 </metadata>
 <defs>
  <style type="text/css">*{stroke-linejoin: round; stroke-linecap: butt}</style>
 </defs>
 <g id="figure_1">
  <g id="patch_1">
   <path d="M 0 372.113125 
L 510.644688 372.113125 
L 510.644688 0 
L 0 0 
z
" style="fill: #ffffff"/>
  </g>
  <g id="axes_1">
   <g id="patch_2">
    <path d="M 45.922813 331.223438 
L 492.322812 331.223438 
L 492.322812 26.303437 
L 45.922813 26.303437 
z
" style="fill: #eaeaf2"/>
   </g>
   <g id="matplotlib.axis_1">
    <g id="xtick_1">
     <g id="line2d_1">
      <path d="M 124.157864 331.223438 
L 124.157864 26.303437 
" clip-path="url(#p17eebf7a4e)" style="fill: none; stroke: #ffffff; stroke-linecap: round"/>
     </g>
     <g id="text_1">
      <!-- 200 -->
      <g style="fill: #262626" transform="translate(115.816458 348.88125) scale(0.1 -0.1)">
       <defs>
        <path id="ArialMT-32" d="M 3222 541 
L 3222 0 
L 194 0 
Q 188 203 259 391 
Q 375 700 629 1000 
Q 884 1300 1366 1694 
Q 2113 2306 2375 2664 
Q 2638 3022 2638 3341 
Q 2638 3675 2398 3904 
Q 2159 4134 1775 4134 
Q 1369 4134 1125 3890 
Q 881 3647 878 3216 
L 300 3275 
Q 359 3922 746 4261 
Q 1134 4600 1788 4600 
Q 2447 4600 2831 4234 
Q 3216 3869 3216 3328 
Q 3216 3053 3103 2787 
Q 2991 2522 2730 2228 
Q 2469 1934 1863 1422 
Q 1356 997 1212 845 
Q 1069 694 975 541 
L 3222 541 
z
" transform="scale(0.015625)"/>
        <path id="ArialMT-30" d="M 266 2259 
Q 266 3072 433 3567 
Q 600 4063 929 4331 
Q 1259 4600 1759 4600 
Q 2128 4600 2406 4451 
Q 2684 4303 2865 4023 
Q 3047 3744 3150 3342 
Q 3253 2941 3253 2259 
Q 3253 1453 3087 958 
Q 2922 463 2592 192 
Q 2263 -78 1759 -78 
Q 1097 -78 719 397 
Q 266 969 266 2259 
z
M 844 2259 
Q 844 1131 1108 757 
Q 1372 384 1759 384 
Q 2147 384 2411 759 
Q 2675 1134 2675 2259 
Q 2675 3391 2411 3762 
Q 2147 4134 1753 4134 
Q 1366 4134 1134 3806 
Q 844 3388 844 2259 
z
" transform="scale(0.015625)"/>
       </defs>
       <use xlink:href="#ArialMT-32"/>
       <use xlink:href="#ArialMT-30" transform="translate(55.615234 0)"/>
       <use xlink:href="#ArialMT-30" transform="translate(111.230469 0)"/>
      </g>
     </g>
    </g>
    <g id="xtick_2">
     <g id="line2d_2">
      <path d="M 216.199101 331.223438 
L 216.199101 26.303437 
" clip-path="url(#p17eebf7a4e)" style="fill: none; stroke: #ffffff; stroke-linecap: round"/>
     </g>
     <g id="text_2">
      <!-- 400 -->
      <g style="fill: #262626" transform="translate(207.857695 348.88125) scale(0.1 -0.1)">
       <defs>
        <path id="ArialMT-34" d="M 2069 0 
L 2069 1097 
L 81 1097 
L 81 1613 
L 2172 4581 
L 2631 4581 
L 2631 1613 
L 3250 1613 
L 3250 1097 
L 2631 1097 
L 2631 0 
L 2069 0 
z
M 2069 1613 
L 2069 3678 
L 634 1613 
L 2069 1613 
z
" transform="scale(0.015625)"/>
       </defs>
       <use xlink:href="#ArialMT-34"/>
       <use xlink:href="#ArialMT-30" transform="translate(55.615234 0)"/>
       <use xlink:href="#ArialMT-30" transform="translate(111.230469 0)"/>
      </g>
     </g>
    </g>
    <g id="xtick_3">
     <g id="line2d_3">
      <path d="M 308.240338 331.223438 
L 308.240338 26.303437 
" clip-path="url(#p17eebf7a4e)" style="fill: none; stroke: #ffffff; stroke-linecap: round"/>
     </g>
     <g id="text_3">
      <!-- 600 -->
      <g style="fill: #262626" transform="translate(299.898932 348.88125) scale(0.1 -0.1)">
       <defs>
        <path id="ArialMT-36" d="M 3184 3459 
L 2625 3416 
Q 2550 3747 2413 3897 
Q 2184 4138 1850 4138 
Q 1581 4138 1378 3988 
Q 1113 3794 959 3422 
Q 806 3050 800 2363 
Q 1003 2672 1297 2822 
Q 1591 2972 1913 2972 
Q 2475 2972 2870 2558 
Q 3266 2144 3266 1488 
Q 3266 1056 3080 686 
Q 2894 316 2569 119 
Q 2244 -78 1831 -78 
Q 1128 -78 684 439 
Q 241 956 241 2144 
Q 241 3472 731 4075 
Q 1159 4600 1884 4600 
Q 2425 4600 2770 4297 
Q 3116 3994 3184 3459 
z
M 888 1484 
Q 888 1194 1011 928 
Q 1134 663 1356 523 
Q 1578 384 1822 384 
Q 2178 384 2434 671 
Q 2691 959 2691 1453 
Q 2691 1928 2437 2201 
Q 2184 2475 1800 2475 
Q 1419 2475 1153 2201 
Q 888 1928 888 1484 
z
" transform="scale(0.015625)"/>
       </defs>
       <use xlink:href="#ArialMT-36"/>
       <use xlink:href="#ArialMT-30" transform="translate(55.615234 0)"/>
       <use xlink:href="#ArialMT-30" transform="translate(111.230469 0)"/>
      </g>
     </g>
    </g>
    <g id="xtick_4">
     <g id="line2d_4">
      <path d="M 400.281575 331.223438 
L 400.281575 26.303437 
" clip-path="url(#p17eebf7a4e)" style="fill: none; stroke: #ffffff; stroke-linecap: round"/>
     </g>
     <g id="text_4">
      <!-- 800 -->
      <g style="fill: #262626" transform="translate(391.940169 348.88125) scale(0.1 -0.1)">
       <defs>
        <path id="ArialMT-38" d="M 1131 2484 
Q 781 2613 612 2850 
Q 444 3088 444 3419 
Q 444 3919 803 4259 
Q 1163 4600 1759 4600 
Q 2359 4600 2725 4251 
Q 3091 3903 3091 3403 
Q 3091 3084 2923 2848 
Q 2756 2613 2416 2484 
Q 2838 2347 3058 2040 
Q 3278 1734 3278 1309 
Q 3278 722 2862 322 
Q 2447 -78 1769 -78 
Q 1091 -78 675 323 
Q 259 725 259 1325 
Q 259 1772 486 2073 
Q 713 2375 1131 2484 
z
M 1019 3438 
Q 1019 3113 1228 2906 
Q 1438 2700 1772 2700 
Q 2097 2700 2305 2904 
Q 2513 3109 2513 3406 
Q 2513 3716 2298 3927 
Q 2084 4138 1766 4138 
Q 1444 4138 1231 3931 
Q 1019 3725 1019 3438 
z
M 838 1322 
Q 838 1081 952 856 
Q 1066 631 1291 507 
Q 1516 384 1775 384 
Q 2178 384 2440 643 
Q 2703 903 2703 1303 
Q 2703 1709 2433 1975 
Q 2163 2241 1756 2241 
Q 1359 2241 1098 1978 
Q 838 1716 838 1322 
z
" transform="scale(0.015625)"/>
       </defs>
       <use xlink:href="#ArialMT-38"/>
       <use xlink:href="#ArialMT-30" transform="translate(55.615234 0)"/>
       <use xlink:href="#ArialMT-30" transform="translate(111.230469 0)"/>
      </g>
     </g>
    </g>
    <g id="xtick_5">
     <g id="line2d_5">
      <path d="M 492.322812 331.223438 
L 492.322812 26.303437 
" clip-path="url(#p17eebf7a4e)" style="fill: none; stroke: #ffffff; stroke-linecap: round"/>
     </g>
     <g id="text_5">
      <!-- 1000 -->
      <g style="fill: #262626" transform="translate(481.200938 348.88125) scale(0.1 -0.1)">
       <defs>
        <path id="ArialMT-31" d="M 2384 0 
L 1822 0 
L 1822 3584 
Q 1619 3391 1289 3197 
Q 959 3003 697 2906 
L 697 3450 
Q 1169 3672 1522 3987 
Q 1875 4303 2022 4600 
L 2384 4600 
L 2384 0 
z
" transform="scale(0.015625)"/>
       </defs>
       <use xlink:href="#ArialMT-31"/>
       <use xlink:href="#ArialMT-30" transform="translate(55.615234 0)"/>
       <use xlink:href="#ArialMT-30" transform="translate(111.230469 0)"/>
       <use xlink:href="#ArialMT-30" transform="translate(166.845703 0)"/>
      </g>
     </g>
    </g>
    <g id="text_6">
     <!-- Total sample size -->
     <g style="fill: #262626" transform="translate(223.987578 362.742344) scale(0.11 -0.11)">
      <defs>
       <path id="Arial-BoldMT-54" d="M 1497 0 
L 1497 3806 
L 138 3806 
L 138 4581 
L 3778 4581 
L 3778 3806 
L 2422 3806 
L 2422 0 
L 1497 0 
z
" transform="scale(0.015625)"/>
       <path id="Arial-BoldMT-6f" d="M 256 1706 
Q 256 2144 472 2553 
Q 688 2963 1083 3178 
Q 1478 3394 1966 3394 
Q 2719 3394 3200 2905 
Q 3681 2416 3681 1669 
Q 3681 916 3195 420 
Q 2709 -75 1972 -75 
Q 1516 -75 1102 131 
Q 688 338 472 736 
Q 256 1134 256 1706 
z
M 1156 1659 
Q 1156 1166 1390 903 
Q 1625 641 1969 641 
Q 2313 641 2545 903 
Q 2778 1166 2778 1666 
Q 2778 2153 2545 2415 
Q 2313 2678 1969 2678 
Q 1625 2678 1390 2415 
Q 1156 2153 1156 1659 
z
" transform="scale(0.015625)"/>
       <path id="Arial-BoldMT-74" d="M 1981 3319 
L 1981 2619 
L 1381 2619 
L 1381 1281 
Q 1381 875 1398 808 
Q 1416 741 1477 697 
Q 1538 653 1625 653 
Q 1747 653 1978 738 
L 2053 56 
Q 1747 -75 1359 -75 
Q 1122 -75 931 4 
Q 741 84 652 211 
Q 563 338 528 553 
Q 500 706 500 1172 
L 500 2619 
L 97 2619 
L 97 3319 
L 500 3319 
L 500 3978 
L 1381 4491 
L 1381 3319 
L 1981 3319 
z
" transform="scale(0.015625)"/>
       <path id="Arial-BoldMT-61" d="M 1116 2306 
L 319 2450 
Q 453 2931 781 3162 
Q 1109 3394 1756 3394 
Q 2344 3394 2631 3255 
Q 2919 3116 3036 2902 
Q 3153 2688 3153 2116 
L 3144 1091 
Q 3144 653 3186 445 
Q 3228 238 3344 0 
L 2475 0 
Q 2441 88 2391 259 
Q 2369 338 2359 363 
Q 2134 144 1878 34 
Q 1622 -75 1331 -75 
Q 819 -75 523 203 
Q 228 481 228 906 
Q 228 1188 362 1408 
Q 497 1628 739 1745 
Q 981 1863 1438 1950 
Q 2053 2066 2291 2166 
L 2291 2253 
Q 2291 2506 2166 2614 
Q 2041 2722 1694 2722 
Q 1459 2722 1328 2630 
Q 1197 2538 1116 2306 
z
M 2291 1594 
Q 2122 1538 1756 1459 
Q 1391 1381 1278 1306 
Q 1106 1184 1106 997 
Q 1106 813 1243 678 
Q 1381 544 1594 544 
Q 1831 544 2047 700 
Q 2206 819 2256 991 
Q 2291 1103 2291 1419 
L 2291 1594 
z
" transform="scale(0.015625)"/>
       <path id="Arial-BoldMT-6c" d="M 459 0 
L 459 4581 
L 1338 4581 
L 1338 0 
L 459 0 
z
" transform="scale(0.015625)"/>
       <path id="Arial-BoldMT-20" transform="scale(0.015625)"/>
       <path id="Arial-BoldMT-73" d="M 150 947 
L 1031 1081 
Q 1088 825 1259 692 
Q 1431 559 1741 559 
Q 2081 559 2253 684 
Q 2369 772 2369 919 
Q 2369 1019 2306 1084 
Q 2241 1147 2013 1200 
Q 950 1434 666 1628 
Q 272 1897 272 2375 
Q 272 2806 612 3100 
Q 953 3394 1669 3394 
Q 2350 3394 2681 3172 
Q 3013 2950 3138 2516 
L 2309 2363 
Q 2256 2556 2107 2659 
Q 1959 2763 1684 2763 
Q 1338 2763 1188 2666 
Q 1088 2597 1088 2488 
Q 1088 2394 1175 2328 
Q 1294 2241 1995 2081 
Q 2697 1922 2975 1691 
Q 3250 1456 3250 1038 
Q 3250 581 2869 253 
Q 2488 -75 1741 -75 
Q 1063 -75 667 200 
Q 272 475 150 947 
z
" transform="scale(0.015625)"/>
       <path id="Arial-BoldMT-6d" d="M 394 3319 
L 1203 3319 
L 1203 2866 
Q 1638 3394 2238 3394 
Q 2556 3394 2790 3262 
Q 3025 3131 3175 2866 
Q 3394 3131 3647 3262 
Q 3900 3394 4188 3394 
Q 4553 3394 4806 3245 
Q 5059 3097 5184 2809 
Q 5275 2597 5275 2122 
L 5275 0 
L 4397 0 
L 4397 1897 
Q 4397 2391 4306 2534 
Q 4184 2722 3931 2722 
Q 3747 2722 3584 2609 
Q 3422 2497 3350 2280 
Q 3278 2063 3278 1594 
L 3278 0 
L 2400 0 
L 2400 1819 
Q 2400 2303 2353 2443 
Q 2306 2584 2207 2653 
Q 2109 2722 1941 2722 
Q 1738 2722 1575 2612 
Q 1413 2503 1342 2297 
Q 1272 2091 1272 1613 
L 1272 0 
L 394 0 
L 394 3319 
z
" transform="scale(0.015625)"/>
       <path id="Arial-BoldMT-70" d="M 434 3319 
L 1253 3319 
L 1253 2831 
Q 1413 3081 1684 3237 
Q 1956 3394 2288 3394 
Q 2866 3394 3269 2941 
Q 3672 2488 3672 1678 
Q 3672 847 3265 386 
Q 2859 -75 2281 -75 
Q 2006 -75 1782 34 
Q 1559 144 1313 409 
L 1313 -1263 
L 434 -1263 
L 434 3319 
z
M 1303 1716 
Q 1303 1156 1525 889 
Q 1747 622 2066 622 
Q 2372 622 2575 867 
Q 2778 1113 2778 1672 
Q 2778 2194 2568 2447 
Q 2359 2700 2050 2700 
Q 1728 2700 1515 2451 
Q 1303 2203 1303 1716 
z
" transform="scale(0.015625)"/>
       <path id="Arial-BoldMT-65" d="M 2381 1056 
L 3256 909 
Q 3088 428 2723 176 
Q 2359 -75 1813 -75 
Q 947 -75 531 491 
Q 203 944 203 1634 
Q 203 2459 634 2926 
Q 1066 3394 1725 3394 
Q 2466 3394 2894 2905 
Q 3322 2416 3303 1406 
L 1103 1406 
Q 1113 1016 1316 798 
Q 1519 581 1822 581 
Q 2028 581 2168 693 
Q 2309 806 2381 1056 
z
M 2431 1944 
Q 2422 2325 2234 2523 
Q 2047 2722 1778 2722 
Q 1491 2722 1303 2513 
Q 1116 2303 1119 1944 
L 2431 1944 
z
" transform="scale(0.015625)"/>
       <path id="Arial-BoldMT-69" d="M 459 3769 
L 459 4581 
L 1338 4581 
L 1338 3769 
L 459 3769 
z
M 459 0 
L 459 3319 
L 1338 3319 
L 1338 0 
L 459 0 
z
" transform="scale(0.015625)"/>
       <path id="Arial-BoldMT-7a" d="M 106 0 
L 106 684 
L 1350 2113 
Q 1656 2463 1803 2609 
Q 1650 2600 1400 2597 
L 228 2591 
L 228 3319 
L 2972 3319 
L 2972 2697 
L 1703 1234 
L 1256 750 
Q 1622 772 1709 772 
L 3069 772 
L 3069 0 
L 106 0 
z
" transform="scale(0.015625)"/>
      </defs>
      <use xlink:href="#Arial-BoldMT-54"/>
      <use xlink:href="#Arial-BoldMT-6f" transform="translate(53.708984 0)"/>
      <use xlink:href="#Arial-BoldMT-74" transform="translate(114.792969 0)"/>
      <use xlink:href="#Arial-BoldMT-61" transform="translate(148.09375 0)"/>
      <use xlink:href="#Arial-BoldMT-6c" transform="translate(203.708984 0)"/>
      <use xlink:href="#Arial-BoldMT-20" transform="translate(231.492188 0)"/>
      <use xlink:href="#Arial-BoldMT-73" transform="translate(259.275391 0)"/>
      <use xlink:href="#Arial-BoldMT-61" transform="translate(314.890625 0)"/>
      <use xlink:href="#Arial-BoldMT-6d" transform="translate(370.505859 0)"/>
      <use xlink:href="#Arial-BoldMT-70" transform="translate(459.421875 0)"/>
      <use xlink:href="#Arial-BoldMT-6c" transform="translate(520.505859 0)"/>
      <use xlink:href="#Arial-BoldMT-65" transform="translate(548.289062 0)"/>
      <use xlink:href="#Arial-BoldMT-20" transform="translate(603.904297 0)"/>
      <use xlink:href="#Arial-BoldMT-73" transform="translate(631.6875 0)"/>
      <use xlink:href="#Arial-BoldMT-69" transform="translate(687.302734 0)"/>
      <use xlink:href="#Arial-BoldMT-7a" transform="translate(715.085938 0)"/>
      <use xlink:href="#Arial-BoldMT-65" transform="translate(765.085938 0)"/>
     </g>
    </g>
   </g>
   <g id="matplotlib.axis_2">
    <g id="ytick_1">
     <g id="line2d_6">
      <path d="M 45.922813 331.223438 
L 492.322812 331.223438 
" clip-path="url(#p17eebf7a4e)" style="fill: none; stroke: #ffffff; stroke-linecap: round"/>
     </g>
     <g id="text_7">
      <!-- 0.0 -->
      <g style="fill: #262626" transform="translate(21.522813 334.802344) scale(0.1 -0.1)">
       <defs>
        <path id="ArialMT-2e" d="M 581 0 
L 581 641 
L 1222 641 
L 1222 0 
L 581 0 
z
" transform="scale(0.015625)"/>
       </defs>
       <use xlink:href="#ArialMT-30"/>
       <use xlink:href="#ArialMT-2e" transform="translate(55.615234 0)"/>
       <use xlink:href="#ArialMT-30" transform="translate(83.398438 0)"/>
      </g>
     </g>
    </g>
    <g id="ytick_2">
     <g id="line2d_7">
      <path d="M 45.922813 273.143438 
L 492.322812 273.143438 
" clip-path="url(#p17eebf7a4e)" style="fill: none; stroke: #ffffff; stroke-linecap: round"/>
     </g>
     <g id="text_8">
      <!-- 0.2 -->
      <g style="fill: #262626" transform="translate(21.522813 276.722344) scale(0.1 -0.1)">
       <use xlink:href="#ArialMT-30"/>
       <use xlink:href="#ArialMT-2e" transform="translate(55.615234 0)"/>
       <use xlink:href="#ArialMT-32" transform="translate(83.398438 0)"/>
      </g>
     </g>
    </g>
    <g id="ytick_3">
     <g id="line2d_8">
      <path d="M 45.922813 215.063438 
L 492.322812 215.063438 
" clip-path="url(#p17eebf7a4e)" style="fill: none; stroke: #ffffff; stroke-linecap: round"/>
     </g>
     <g id="text_9">
      <!-- 0.4 -->
      <g style="fill: #262626" transform="translate(21.522813 218.642344) scale(0.1 -0.1)">
       <use xlink:href="#ArialMT-30"/>
       <use xlink:href="#ArialMT-2e" transform="translate(55.615234 0)"/>
       <use xlink:href="#ArialMT-34" transform="translate(83.398438 0)"/>
      </g>
     </g>
    </g>
    <g id="ytick_4">
     <g id="line2d_9">
      <path d="M 45.922813 156.983438 
L 492.322812 156.983438 
" clip-path="url(#p17eebf7a4e)" style="fill: none; stroke: #ffffff; stroke-linecap: round"/>
     </g>
     <g id="text_10">
      <!-- 0.6 -->
      <g style="fill: #262626" transform="translate(21.522813 160.562344) scale(0.1 -0.1)">
       <use xlink:href="#ArialMT-30"/>
       <use xlink:href="#ArialMT-2e" transform="translate(55.615234 0)"/>
       <use xlink:href="#ArialMT-36" transform="translate(83.398438 0)"/>
      </g>
     </g>
    </g>
    <g id="ytick_5">
     <g id="line2d_10">
      <path d="M 45.922813 98.903437 
L 492.322812 98.903437 
" clip-path="url(#p17eebf7a4e)" style="fill: none; stroke: #ffffff; stroke-linecap: round"/>
     </g>
     <g id="text_11">
      <!-- 0.8 -->
      <g style="fill: #262626" transform="translate(21.522813 102.482344) scale(0.1 -0.1)">
       <use xlink:href="#ArialMT-30"/>
       <use xlink:href="#ArialMT-2e" transform="translate(55.615234 0)"/>
       <use xlink:href="#ArialMT-38" transform="translate(83.398438 0)"/>
      </g>
     </g>
    </g>
    <g id="ytick_6">
     <g id="line2d_11">
      <path d="M 45.922813 40.823438 
L 492.322812 40.823438 
" clip-path="url(#p17eebf7a4e)" style="fill: none; stroke: #ffffff; stroke-linecap: round"/>
     </g>
     <g id="text_12">
      <!-- 1.0 -->
      <g style="fill: #262626" transform="translate(21.522813 44.402344) scale(0.1 -0.1)">
       <use xlink:href="#ArialMT-31"/>
       <use xlink:href="#ArialMT-2e" transform="translate(55.615234 0)"/>
       <use xlink:href="#ArialMT-30" transform="translate(83.398438 0)"/>
      </g>
     </g>
    </g>
    <g id="text_13">
     <!-- Ratio of trials with significant unmasking -->
     <g style="fill: #262626" transform="translate(15.207656 286.016016) rotate(-90) scale(0.11 -0.11)">
      <defs>
       <path id="Arial-BoldMT-52" d="M 469 0 
L 469 4581 
L 2416 4581 
Q 3150 4581 3483 4457 
Q 3816 4334 4016 4018 
Q 4216 3703 4216 3297 
Q 4216 2781 3912 2445 
Q 3609 2109 3006 2022 
Q 3306 1847 3501 1637 
Q 3697 1428 4028 894 
L 4588 0 
L 3481 0 
L 2813 997 
Q 2456 1531 2325 1670 
Q 2194 1809 2047 1861 
Q 1900 1913 1581 1913 
L 1394 1913 
L 1394 0 
L 469 0 
z
M 1394 2644 
L 2078 2644 
Q 2744 2644 2909 2700 
Q 3075 2756 3169 2893 
Q 3263 3031 3263 3238 
Q 3263 3469 3139 3611 
Q 3016 3753 2791 3791 
Q 2678 3806 2116 3806 
L 1394 3806 
L 1394 2644 
z
" transform="scale(0.015625)"/>
       <path id="Arial-BoldMT-66" d="M 75 3319 
L 563 3319 
L 563 3569 
Q 563 3988 652 4194 
Q 741 4400 980 4529 
Q 1219 4659 1584 4659 
Q 1959 4659 2319 4547 
L 2200 3934 
Q 1991 3984 1797 3984 
Q 1606 3984 1523 3895 
Q 1441 3806 1441 3553 
L 1441 3319 
L 2097 3319 
L 2097 2628 
L 1441 2628 
L 1441 0 
L 563 0 
L 563 2628 
L 75 2628 
L 75 3319 
z
" transform="scale(0.015625)"/>
       <path id="Arial-BoldMT-72" d="M 1300 0 
L 422 0 
L 422 3319 
L 1238 3319 
L 1238 2847 
Q 1447 3181 1614 3287 
Q 1781 3394 1994 3394 
Q 2294 3394 2572 3228 
L 2300 2463 
Q 2078 2606 1888 2606 
Q 1703 2606 1575 2504 
Q 1447 2403 1373 2137 
Q 1300 1872 1300 1025 
L 1300 0 
z
" transform="scale(0.015625)"/>
       <path id="Arial-BoldMT-77" d="M 1078 0 
L 28 3319 
L 881 3319 
L 1503 1144 
L 2075 3319 
L 2922 3319 
L 3475 1144 
L 4109 3319 
L 4975 3319 
L 3909 0 
L 3066 0 
L 2494 2134 
L 1931 0 
L 1078 0 
z
" transform="scale(0.015625)"/>
       <path id="Arial-BoldMT-68" d="M 1334 4581 
L 1334 2897 
Q 1759 3394 2350 3394 
Q 2653 3394 2897 3281 
Q 3141 3169 3264 2994 
Q 3388 2819 3433 2606 
Q 3478 2394 3478 1947 
L 3478 0 
L 2600 0 
L 2600 1753 
Q 2600 2275 2550 2415 
Q 2500 2556 2373 2639 
Q 2247 2722 2056 2722 
Q 1838 2722 1666 2615 
Q 1494 2509 1414 2295 
Q 1334 2081 1334 1663 
L 1334 0 
L 456 0 
L 456 4581 
L 1334 4581 
z
" transform="scale(0.015625)"/>
       <path id="Arial-BoldMT-67" d="M 378 -219 
L 1381 -341 
Q 1406 -516 1497 -581 
Q 1622 -675 1891 -675 
Q 2234 -675 2406 -572 
Q 2522 -503 2581 -350 
Q 2622 -241 2622 53 
L 2622 538 
Q 2228 0 1628 0 
Q 959 0 569 566 
Q 263 1013 263 1678 
Q 263 2513 664 2953 
Q 1066 3394 1663 3394 
Q 2278 3394 2678 2853 
L 2678 3319 
L 3500 3319 
L 3500 341 
Q 3500 -247 3403 -537 
Q 3306 -828 3131 -993 
Q 2956 -1159 2664 -1253 
Q 2372 -1347 1925 -1347 
Q 1081 -1347 728 -1058 
Q 375 -769 375 -325 
Q 375 -281 378 -219 
z
M 1163 1728 
Q 1163 1200 1367 954 
Q 1572 709 1872 709 
Q 2194 709 2416 961 
Q 2638 1213 2638 1706 
Q 2638 2222 2425 2472 
Q 2213 2722 1888 2722 
Q 1572 2722 1367 2476 
Q 1163 2231 1163 1728 
z
" transform="scale(0.015625)"/>
       <path id="Arial-BoldMT-6e" d="M 3478 0 
L 2600 0 
L 2600 1694 
Q 2600 2231 2544 2389 
Q 2488 2547 2361 2634 
Q 2234 2722 2056 2722 
Q 1828 2722 1647 2597 
Q 1466 2472 1398 2265 
Q 1331 2059 1331 1503 
L 1331 0 
L 453 0 
L 453 3319 
L 1269 3319 
L 1269 2831 
Q 1703 3394 2363 3394 
Q 2653 3394 2893 3289 
Q 3134 3184 3257 3021 
Q 3381 2859 3429 2653 
Q 3478 2447 3478 2063 
L 3478 0 
z
" transform="scale(0.015625)"/>
       <path id="Arial-BoldMT-63" d="M 3353 2338 
L 2488 2181 
Q 2444 2441 2289 2572 
Q 2134 2703 1888 2703 
Q 1559 2703 1364 2476 
Q 1169 2250 1169 1719 
Q 1169 1128 1367 884 
Q 1566 641 1900 641 
Q 2150 641 2309 783 
Q 2469 925 2534 1272 
L 3397 1125 
Q 3263 531 2881 228 
Q 2500 -75 1859 -75 
Q 1131 -75 698 384 
Q 266 844 266 1656 
Q 266 2478 700 2936 
Q 1134 3394 1875 3394 
Q 2481 3394 2839 3133 
Q 3197 2872 3353 2338 
z
" transform="scale(0.015625)"/>
       <path id="Arial-BoldMT-75" d="M 2644 0 
L 2644 497 
Q 2463 231 2167 78 
Q 1872 -75 1544 -75 
Q 1209 -75 943 72 
Q 678 219 559 484 
Q 441 750 441 1219 
L 441 3319 
L 1319 3319 
L 1319 1794 
Q 1319 1094 1367 936 
Q 1416 778 1544 686 
Q 1672 594 1869 594 
Q 2094 594 2272 717 
Q 2450 841 2515 1023 
Q 2581 1206 2581 1919 
L 2581 3319 
L 3459 3319 
L 3459 0 
L 2644 0 
z
" transform="scale(0.015625)"/>
       <path id="Arial-BoldMT-6b" d="M 428 0 
L 428 4581 
L 1306 4581 
L 1306 2150 
L 2334 3319 
L 3416 3319 
L 2281 2106 
L 3497 0 
L 2550 0 
L 1716 1491 
L 1306 1063 
L 1306 0 
L 428 0 
z
" transform="scale(0.015625)"/>
      </defs>
      <use xlink:href="#Arial-BoldMT-52"/>
      <use xlink:href="#Arial-BoldMT-61" transform="translate(72.216797 0)"/>
      <use xlink:href="#Arial-BoldMT-74" transform="translate(127.832031 0)"/>
      <use xlink:href="#Arial-BoldMT-69" transform="translate(161.132812 0)"/>
      <use xlink:href="#Arial-BoldMT-6f" transform="translate(188.916016 0)"/>
      <use xlink:href="#Arial-BoldMT-20" transform="translate(250 0)"/>
      <use xlink:href="#Arial-BoldMT-6f" transform="translate(277.783203 0)"/>
      <use xlink:href="#Arial-BoldMT-66" transform="translate(338.867188 0)"/>
      <use xlink:href="#Arial-BoldMT-20" transform="translate(372.167969 0)"/>
      <use xlink:href="#Arial-BoldMT-74" transform="translate(399.951172 0)"/>
      <use xlink:href="#Arial-BoldMT-72" transform="translate(433.251953 0)"/>
      <use xlink:href="#Arial-BoldMT-69" transform="translate(472.167969 0)"/>
      <use xlink:href="#Arial-BoldMT-61" transform="translate(499.951172 0)"/>
      <use xlink:href="#Arial-BoldMT-6c" transform="translate(555.566406 0)"/>
      <use xlink:href="#Arial-BoldMT-73" transform="translate(583.349609 0)"/>
      <use xlink:href="#Arial-BoldMT-20" transform="translate(638.964844 0)"/>
      <use xlink:href="#Arial-BoldMT-77" transform="translate(666.748047 0)"/>
      <use xlink:href="#Arial-BoldMT-69" transform="translate(744.53125 0)"/>
      <use xlink:href="#Arial-BoldMT-74" transform="translate(772.314453 0)"/>
      <use xlink:href="#Arial-BoldMT-68" transform="translate(805.615234 0)"/>
      <use xlink:href="#Arial-BoldMT-20" transform="translate(866.699219 0)"/>
      <use xlink:href="#Arial-BoldMT-73" transform="translate(894.482422 0)"/>
      <use xlink:href="#Arial-BoldMT-69" transform="translate(950.097656 0)"/>
      <use xlink:href="#Arial-BoldMT-67" transform="translate(977.880859 0)"/>
      <use xlink:href="#Arial-BoldMT-6e" transform="translate(1038.964844 0)"/>
      <use xlink:href="#Arial-BoldMT-69" transform="translate(1100.048828 0)"/>
      <use xlink:href="#Arial-BoldMT-66" transform="translate(1127.832031 0)"/>
      <use xlink:href="#Arial-BoldMT-69" transform="translate(1161.132812 0)"/>
      <use xlink:href="#Arial-BoldMT-63" transform="translate(1188.916016 0)"/>
      <use xlink:href="#Arial-BoldMT-61" transform="translate(1244.53125 0)"/>
      <use xlink:href="#Arial-BoldMT-6e" transform="translate(1300.146484 0)"/>
      <use xlink:href="#Arial-BoldMT-74" transform="translate(1361.230469 0)"/>
      <use xlink:href="#Arial-BoldMT-20" transform="translate(1394.53125 0)"/>
      <use xlink:href="#Arial-BoldMT-75" transform="translate(1422.314453 0)"/>
      <use xlink:href="#Arial-BoldMT-6e" transform="translate(1483.398438 0)"/>
      <use xlink:href="#Arial-BoldMT-6d" transform="translate(1544.482422 0)"/>
      <use xlink:href="#Arial-BoldMT-61" transform="translate(1633.398438 0)"/>
      <use xlink:href="#Arial-BoldMT-73" transform="translate(1689.013672 0)"/>
      <use xlink:href="#Arial-BoldMT-6b" transform="translate(1744.628906 0)"/>
      <use xlink:href="#Arial-BoldMT-69" transform="translate(1800.244141 0)"/>
      <use xlink:href="#Arial-BoldMT-6e" transform="translate(1828.027344 0)"/>
      <use xlink:href="#Arial-BoldMT-67" transform="translate(1889.111328 0)"/>
     </g>
    </g>
   </g>
   <g id="FillBetweenPolyCollection_1">
    <defs>
     <path id="mcae80b9f75" d="M 45.922813 -61.798488 
L 45.922813 -50.182488 
L 50.524874 -50.182488 
L 55.126936 -50.182488 
L 59.728998 -50.182488 
L 64.33106 -51.344088 
L 68.933122 -50.763288 
L 73.535184 -52.505688 
L 78.137245 -47.278488 
L 87.341369 -50.182488 
L 105.749617 -54.248088 
L 124.157864 -53.667288 
L 142.566111 -56.556768 
L 160.974359 -60.056088 
L 179.382606 -64.687968 
L 197.790854 -65.864088 
L 216.199101 -74.576088 
L 234.607349 -72.252888 
L 253.015596 -68.768088 
L 271.423843 -73.995288 
L 289.832091 -75.737688 
L 308.240338 -76.318488 
L 326.648586 -83.288088 
L 345.056833 -80.384088 
L 363.465081 -82.707288 
L 381.873328 -83.868888 
L 400.281575 -86.192088 
L 418.689823 -93.161688 
L 437.09807 -95.470368 
L 455.506318 -102.454488 
L 473.914565 -98.969688 
L 492.322812 -103.601568 
L 492.322812 -125.686488 
L 492.322812 -125.686488 
L 473.914565 -120.459288 
L 455.506318 -124.524888 
L 437.09807 -116.974488 
L 418.689823 -114.651288 
L 400.281575 -107.681688 
L 381.873328 -103.616088 
L 363.465081 -101.888207 
L 345.056833 -98.969688 
L 326.648586 -102.454488 
L 308.240338 -93.742488 
L 289.832091 -93.742488 
L 271.423843 -91.419288 
L 253.015596 -85.030488 
L 234.607349 -89.691407 
L 216.199101 -92.580888 
L 197.790854 -82.126488 
L 179.382606 -80.384088 
L 160.974359 -73.995288 
L 142.566111 -69.348888 
L 124.157864 -65.864088 
L 105.749617 -67.040207 
L 87.341369 -60.636888 
L 78.137245 -56.571288 
L 73.535184 -64.136207 
L 68.933122 -62.379288 
L 64.33106 -63.540888 
L 59.728998 -61.798488 
L 55.126936 -61.217688 
L 50.524874 -61.217688 
L 45.922813 -61.798488 
z
" style="stroke: #1f77b4; stroke-opacity: 0.2; stroke-width: 0.3"/>
    </defs>
    <g clip-path="url(#p17eebf7a4e)">
     <use xlink:href="#mcae80b9f75" x="0" y="372.113125" style="fill: #1f77b4; fill-opacity: 0.2; stroke: #1f77b4; stroke-opacity: 0.2; stroke-width: 0.3"/>
    </g>
   </g>
   <g id="FillBetweenPolyCollection_2">
    <defs>
     <path id="m31ca45a9e5" d="M 45.922813 -58.894488 
L 45.922813 -48.440088 
L 50.524874 -48.440088 
L 55.126936 -53.667288 
L 59.728998 -48.440088 
L 64.33106 -55.409688 
L 68.933122 -54.248088 
L 73.535184 -58.894488 
L 78.137245 -57.732888 
L 87.341369 -61.798488 
L 105.749617 -79.222488 
L 124.157864 -83.288088 
L 142.566111 -93.742488 
L 160.974359 -101.873688 
L 179.382606 -112.328088 
L 197.790854 -121.620888 
L 216.199101 -131.494488 
L 234.607349 -136.721688 
L 253.015596 -142.529688 
L 271.423843 -147.176088 
L 289.832091 -150.660888 
L 308.240338 -154.726488 
L 326.648586 -179.120088 
L 345.056833 -183.185688 
L 363.465081 -186.670488 
L 381.873328 -190.155288 
L 400.281575 -210.483288 
L 418.689823 -215.710488 
L 437.09807 -223.841688 
L 455.506318 -234.296088 
L 473.914565 -240.670368 
L 492.322812 -246.492888 
L 492.322812 -269.724888 
L 492.322812 -269.724888 
L 473.914565 -262.174488 
L 455.506318 -258.689687 
L 437.09807 -246.492888 
L 418.689823 -240.684888 
L 400.281575 -233.715288 
L 381.873328 -216.872088 
L 363.465081 -212.225688 
L 345.056833 -209.902488 
L 326.648586 -204.094488 
L 308.240338 -179.700888 
L 289.832091 -175.635288 
L 271.423843 -171.569688 
L 253.015596 -166.923288 
L 234.607349 -161.696088 
L 216.199101 -156.483407 
L 197.790854 -145.433688 
L 179.382606 -135.560088 
L 160.974359 -122.782488 
L 142.566111 -114.665807 
L 124.157864 -103.035288 
L 105.749617 -97.241808 
L 87.341369 -75.737688 
L 78.137245 -71.672088 
L 73.535184 -73.414488 
L 68.933122 -65.878607 
L 64.33106 -69.348888 
L 59.728998 -58.894488 
L 55.126936 -65.283288 
L 50.524874 -58.894488 
L 45.922813 -58.894488 
z
" style="stroke: #ff7f0e; stroke-opacity: 0.2; stroke-width: 0.3"/>
    </defs>
    <g clip-path="url(#p17eebf7a4e)">
     <use xlink:href="#m31ca45a9e5" x="0" y="372.113125" style="fill: #ff7f0e; fill-opacity: 0.2; stroke: #ff7f0e; stroke-opacity: 0.2; stroke-width: 0.3"/>
    </g>
   </g>
   <g id="FillBetweenPolyCollection_3">
    <defs>
     <path id="md08d7875a2" d="M 45.922813 -76.318488 
L 45.922813 -60.056088 
L 50.524874 -68.768088 
L 55.126936 -67.025688 
L 59.728998 -65.864088 
L 64.33106 -80.964888 
L 68.933122 -71.091288 
L 73.535184 -85.611288 
L 78.137245 -82.126488 
L 87.341369 -91.419288 
L 105.749617 -119.297688 
L 124.157864 -132.656088 
L 142.566111 -158.211288 
L 160.974359 -183.171168 
L 179.382606 -191.316888 
L 197.790854 -209.321688 
L 216.199101 -227.907288 
L 234.607349 -236.619288 
L 253.015596 -241.265688 
L 271.423843 -254.624088 
L 289.832091 -266.820888 
L 308.240338 -268.563288 
L 326.648586 -281.921688 
L 345.056833 -285.406488 
L 363.465081 -292.376088 
L 381.873328 -291.214488 
L 400.281575 -302.249688 
L 418.689823 -303.411288 
L 437.09807 -308.043168 
L 455.506318 -313.284887 
L 473.914565 -315.027288 
L 492.322812 -317.350487 
L 492.322812 -326.062488 
L 492.322812 -326.062488 
L 473.914565 -324.900888 
L 455.506318 -323.739288 
L 437.09807 -319.673688 
L 418.689823 -316.769688 
L 400.281575 -316.188888 
L 381.873328 -307.476888 
L 363.465081 -308.072208 
L 345.056833 -302.264207 
L 326.648586 -298.779408 
L 308.240338 -288.310488 
L 289.832091 -287.729688 
L 271.423843 -276.113688 
L 253.015596 -263.916888 
L 234.607349 -259.851288 
L 216.199101 -251.153808 
L 197.790854 -233.729808 
L 179.382606 -216.291288 
L 160.974359 -208.740888 
L 142.566111 -182.619407 
L 124.157864 -156.468888 
L 105.749617 -143.691288 
L 87.341369 -111.166488 
L 78.137245 -101.292888 
L 73.535184 -104.196888 
L 68.933122 -88.515288 
L 64.33106 -99.550488 
L 59.728998 -81.545688 
L 55.126936 -82.707288 
L 50.524874 -85.611288 
L 45.922813 -76.318488 
z
" style="stroke: #2ca02c; stroke-opacity: 0.2; stroke-width: 0.3"/>
    </defs>
    <g clip-path="url(#p17eebf7a4e)">
     <use xlink:href="#md08d7875a2" x="0" y="372.113125" style="fill: #2ca02c; fill-opacity: 0.2; stroke: #2ca02c; stroke-opacity: 0.2; stroke-width: 0.3"/>
    </g>
   </g>
   <g id="FillBetweenPolyCollection_4">
    <defs>
     <path id="m7622605319" d="M 45.922813 -82.126488 
L 45.922813 -65.864088 
L 50.524874 -72.833688 
L 55.126936 -74.576088 
L 59.728998 -81.545688 
L 64.33106 -94.323288 
L 68.933122 -92.000088 
L 73.535184 -119.863968 
L 78.137245 -112.908888 
L 87.341369 -126.848088 
L 105.749617 -175.635288 
L 124.157864 -204.094488 
L 142.566111 -236.619288 
L 160.974359 -257.513568 
L 179.382606 -274.371288 
L 197.790854 -285.987288 
L 216.199101 -290.633688 
L 234.607349 -295.280088 
L 253.015596 -305.734488 
L 271.423843 -309.800088 
L 289.832091 -314.431968 
L 308.240338 -318.497568 
L 326.648586 -321.996888 
L 345.056833 -321.416088 
L 363.465081 -331.289688 
L 381.873328 -329.547288 
L 400.281575 -329.547288 
L 418.689823 -329.547288 
L 437.09807 -329.547288 
L 455.506318 -329.547288 
L 473.914565 -329.547288 
L 492.322812 -329.547288 
L 492.322812 -331.289688 
L 492.322812 -331.289688 
L 473.914565 -331.289688 
L 455.506318 -331.289688 
L 437.09807 -331.289688 
L 418.689823 -331.289688 
L 400.281575 -331.289688 
L 381.873328 -331.289688 
L 363.465081 -331.289688 
L 345.056833 -328.400208 
L 326.648586 -329.547288 
L 308.240338 -326.643288 
L 289.832091 -323.753807 
L 271.423843 -320.835288 
L 253.015596 -317.945808 
L 234.607349 -309.800088 
L 216.199101 -305.168207 
L 197.790854 -302.830488 
L 179.382606 -292.956887 
L 160.974359 -278.436888 
L 142.566111 -260.432088 
L 124.157864 -228.502608 
L 105.749617 -201.205008 
L 87.341369 -150.675408 
L 78.137245 -137.302488 
L 73.535184 -143.110488 
L 68.933122 -112.328088 
L 64.33106 -115.812888 
L 59.728998 -100.131288 
L 55.126936 -92.580888 
L 50.524874 -90.838488 
L 45.922813 -82.126488 
z
" style="stroke: #d62728; stroke-opacity: 0.2; stroke-width: 0.3"/>
    </defs>
    <g clip-path="url(#p17eebf7a4e)">
     <use xlink:href="#m7622605319" x="0" y="372.113125" style="fill: #d62728; fill-opacity: 0.2; stroke: #d62728; stroke-opacity: 0.2; stroke-width: 0.3"/>
    </g>
   </g>
   <g id="FillBetweenPolyCollection_5">
    <defs>
     <path id="m9692ed5eb3" d="M 45.922813 -56.005007 
L 45.922813 -46.697688 
L 50.524874 -46.697688 
L 55.126936 -47.278488 
L 59.728998 -46.116888 
L 64.33106 -46.116888 
L 68.933122 -47.278488 
L 73.535184 -50.167968 
L 78.137245 -46.683168 
L 87.341369 -47.859288 
L 105.749617 -53.086488 
L 124.157864 -52.505688 
L 142.566111 -54.828888 
L 160.974359 -59.475288 
L 179.382606 -65.283288 
L 197.790854 -65.864088 
L 216.199101 -70.510488 
L 234.607349 -64.687968 
L 253.015596 -60.636888 
L 271.423843 -57.152088 
L 289.832091 -55.409688 
L 308.240338 -53.086488 
L 326.648586 -50.763288 
L 345.056833 -50.182488 
L 363.465081 -49.006368 
L 381.873328 -47.278488 
L 400.281575 -47.278488 
L 418.689823 -44.955288 
L 437.09807 -44.374488 
L 455.506318 -43.793688 
L 473.914565 -43.793688 
L 492.322812 -44.374488 
L 492.322812 -51.924888 
L 492.322812 -51.924888 
L 473.914565 -51.344088 
L 455.506318 -51.344088 
L 437.09807 -52.505688 
L 418.689823 -53.086488 
L 400.281575 -57.152088 
L 381.873328 -56.571288 
L 363.465081 -58.313688 
L 345.056833 -60.070607 
L 326.648586 -62.960088 
L 308.240338 -65.283288 
L 289.832091 -68.187288 
L 271.423843 -70.510488 
L 253.015596 -75.171407 
L 234.607349 -80.384088 
L 216.199101 -86.772888 
L 197.790854 -82.126488 
L 179.382606 -80.384088 
L 160.974359 -73.414488 
L 142.566111 -67.606488 
L 124.157864 -64.702488 
L 105.749617 -64.702488 
L 87.341369 -57.732888 
L 78.137245 -55.409688 
L 73.535184 -60.070607 
L 68.933122 -56.585807 
L 64.33106 -54.828888 
L 59.728998 -54.828888 
L 55.126936 -57.732888 
L 50.524874 -55.990488 
L 45.922813 -56.005007 
z
" style="stroke: #1f77b4; stroke-opacity: 0.2; stroke-width: 0.3"/>
    </defs>
    <g clip-path="url(#p17eebf7a4e)">
     <use xlink:href="#m9692ed5eb3" x="0" y="372.113125" style="fill: #1f77b4; fill-opacity: 0.2; stroke: #1f77b4; stroke-opacity: 0.2; stroke-width: 0.3"/>
    </g>
   </g>
   <g id="FillBetweenPolyCollection_6">
    <defs>
     <path id="m6be3946a30" d="M 45.922813 -55.990488 
L 45.922813 -46.697688 
L 50.524874 -47.278488 
L 55.126936 -50.182488 
L 59.728998 -47.278488 
L 64.33106 -51.924888 
L 68.933122 -53.086488 
L 73.535184 -57.732888 
L 78.137245 -57.732888 
L 87.341369 -60.636888 
L 105.749617 -78.060888 
L 124.157864 -82.707288 
L 142.566111 -93.161688 
L 160.974359 -101.873688 
L 179.382606 -111.747288 
L 197.790854 -122.782488 
L 216.199101 -122.782488 
L 234.607349 -115.812888 
L 253.015596 -118.716888 
L 271.423843 -110.004888 
L 289.832091 -110.585688 
L 308.240338 -108.262488 
L 326.648586 -108.843288 
L 345.056833 -107.086368 
L 363.465081 -107.681688 
L 381.873328 -107.681688 
L 400.281575 -110.004888 
L 418.689823 -105.939288 
L 437.09807 -103.616088 
L 455.506318 -99.550488 
L 473.914565 -99.550488 
L 492.322812 -99.550488 
L 492.322812 -121.040088 
L 492.322812 -121.040088 
L 473.914565 -121.620888 
L 455.506318 -121.620888 
L 437.09807 -125.686488 
L 418.689823 -128.009688 
L 400.281575 -131.494488 
L 381.873328 -130.347408 
L 363.465081 -130.347408 
L 345.056833 -129.171288 
L 326.648586 -131.509007 
L 308.240338 -130.913688 
L 289.832091 -133.236888 
L 271.423843 -132.656088 
L 253.015596 -141.368088 
L 234.607349 -139.059408 
L 216.199101 -146.014488 
L 197.790854 -145.433688 
L 179.382606 -135.560088 
L 160.974359 -123.363288 
L 142.566111 -113.489688 
L 124.157864 -101.873688 
L 105.749617 -97.227288 
L 87.341369 -76.318488 
L 78.137245 -71.105807 
L 73.535184 -72.252888 
L 68.933122 -64.702488 
L 64.33106 -64.702488 
L 59.728998 -57.152088 
L 55.126936 -61.798488 
L 50.524874 -56.571288 
L 45.922813 -55.990488 
z
" style="stroke: #ff7f0e; stroke-opacity: 0.2; stroke-width: 0.3"/>
    </defs>
    <g clip-path="url(#p17eebf7a4e)">
     <use xlink:href="#m6be3946a30" x="0" y="372.113125" style="fill: #ff7f0e; fill-opacity: 0.2; stroke: #ff7f0e; stroke-opacity: 0.2; stroke-width: 0.3"/>
    </g>
   </g>
   <g id="FillBetweenPolyCollection_7">
    <defs>
     <path id="mc15dd6787b" d="M 45.922813 -73.995288 
L 45.922813 -60.056088 
L 50.524874 -67.025688 
L 55.126936 -65.283288 
L 59.728998 -64.702488 
L 64.33106 -78.641688 
L 68.933122 -69.929688 
L 73.535184 -83.868888 
L 78.137245 -80.964888 
L 87.341369 -90.838488 
L 105.749617 -119.878488 
L 124.157864 -133.236888 
L 142.566111 -157.630488 
L 160.974359 -183.185688 
L 179.382606 -190.736088 
L 197.790854 -208.726368 
L 216.199101 -215.129688 
L 234.607349 -215.129688 
L 253.015596 -213.387288 
L 271.423843 -222.680088 
L 289.832091 -220.356888 
L 308.240338 -225.003288 
L 326.648586 -236.619288 
L 345.056833 -234.876888 
L 363.465081 -233.715288 
L 381.873328 -229.649688 
L 400.281575 -231.972888 
L 418.689823 -231.392088 
L 437.09807 -234.876888 
L 455.506318 -241.265688 
L 473.914565 -238.361688 
L 492.322812 -245.331288 
L 492.322812 -267.416208 
L 492.322812 -267.416208 
L 473.914565 -260.432088 
L 455.506318 -263.916888 
L 437.09807 -258.108888 
L 418.689823 -254.638608 
L 400.281575 -254.638608 
L 381.873328 -253.462488 
L 363.465081 -256.381008 
L 345.056833 -258.689687 
L 326.648586 -259.851288 
L 308.240338 -249.396888 
L 289.832091 -245.331288 
L 271.423843 -247.073688 
L 253.015596 -236.633808 
L 234.607349 -238.942488 
L 216.199101 -241.265688 
L 197.790854 -233.729808 
L 179.382606 -215.710488 
L 160.974359 -208.160088 
L 142.566111 -183.185688 
L 124.157864 -156.483407 
L 105.749617 -143.691288 
L 87.341369 -111.747288 
L 78.137245 -100.712088 
L 73.535184 -104.196888 
L 68.933122 -86.772888 
L 64.33106 -97.227288 
L 59.728998 -80.384088 
L 55.126936 -80.964888 
L 50.524874 -83.288088 
L 45.922813 -73.995288 
z
" style="stroke: #2ca02c; stroke-opacity: 0.2; stroke-width: 0.3"/>
    </defs>
    <g clip-path="url(#p17eebf7a4e)">
     <use xlink:href="#mc15dd6787b" x="0" y="372.113125" style="fill: #2ca02c; fill-opacity: 0.2; stroke: #2ca02c; stroke-opacity: 0.2; stroke-width: 0.3"/>
    </g>
   </g>
   <g id="FillBetweenPolyCollection_8">
    <defs>
     <path id="ma6369f34ae" d="M 45.922813 -82.126488 
L 45.922813 -65.283288 
L 50.524874 -72.252888 
L 55.126936 -75.156888 
L 59.728998 -79.803288 
L 64.33106 -94.904088 
L 68.933122 -92.580888 
L 73.535184 -119.297688 
L 78.137245 -114.070488 
L 87.341369 -126.267288 
L 105.749617 -175.054488 
L 124.157864 -204.094488 
L 142.566111 -237.200088 
L 160.974359 -257.528088 
L 179.382606 -274.371288 
L 197.790854 -286.568088 
L 216.199101 -282.502488 
L 234.607349 -285.987288 
L 253.015596 -288.295968 
L 271.423843 -293.523167 
L 289.832091 -298.184088 
L 308.240338 -302.830488 
L 326.648586 -302.830488 
L 345.056833 -305.153688 
L 363.465081 -304.572888 
L 381.873328 -312.123288 
L 400.281575 -315.027288 
L 418.689823 -312.704088 
L 437.09807 -317.350487 
L 455.506318 -316.769688 
L 473.914565 -318.512088 
L 492.322812 -320.254487 
L 492.322812 -327.804888 
L 492.322812 -327.804888 
L 473.914565 -326.643288 
L 455.506318 -326.062488 
L 437.09807 -326.643288 
L 418.689823 -323.158487 
L 400.281575 -324.900888 
L 381.873328 -322.577688 
L 363.465081 -317.350487 
L 345.056833 -317.350487 
L 326.648586 -316.188888 
L 308.240338 -315.608088 
L 289.832091 -312.704088 
L 271.423843 -308.653008 
L 253.015596 -304.572888 
L 234.607349 -303.411288 
L 216.199101 -299.926488 
L 197.790854 -303.411288 
L 179.382606 -293.537688 
L 160.974359 -278.436888 
L 142.566111 -260.432088 
L 124.157864 -229.068888 
L 105.749617 -200.609688 
L 87.341369 -150.660888 
L 78.137245 -137.302488 
L 73.535184 -143.110488 
L 68.933122 -113.489688 
L 64.33106 -115.232088 
L 59.728998 -99.550488 
L 55.126936 -92.000088 
L 50.524874 -89.676888 
L 45.922813 -82.126488 
z
" style="stroke: #d62728; stroke-opacity: 0.2; stroke-width: 0.3"/>
    </defs>
    <g clip-path="url(#p17eebf7a4e)">
     <use xlink:href="#ma6369f34ae" x="0" y="372.113125" style="fill: #d62728; fill-opacity: 0.2; stroke: #d62728; stroke-opacity: 0.2; stroke-width: 0.3"/>
    </g>
   </g>
   <g id="line2d_12">
    <path d="M 45.922813 316.122638 
L 50.524874 316.703438 
L 55.126936 316.703438 
L 59.728998 316.122638 
L 64.33106 314.961038 
L 68.933122 315.541838 
L 73.535184 313.799438 
L 78.137245 320.769038 
L 87.341369 317.284238 
L 105.749617 311.476238 
L 124.157864 312.637838 
L 142.566111 309.733838 
L 160.974359 305.087438 
L 179.382606 299.860238 
L 197.790854 298.117838 
L 216.199101 288.825038 
L 234.607349 291.148238 
L 253.015596 295.213838 
L 271.423843 289.405838 
L 289.832091 287.663438 
L 308.240338 287.082638 
L 326.648586 279.532238 
L 345.056833 282.436238 
L 363.465081 279.532238 
L 381.873328 278.951438 
L 400.281575 275.466638 
L 418.689823 268.497038 
L 437.09807 266.173838 
L 455.506318 258.042638 
L 473.914565 262.108238 
L 492.322812 258.042638 
" clip-path="url(#p17eebf7a4e)" style="fill: none; stroke: #1f77b4; stroke-width: 1.75; stroke-linecap: round"/>
   </g>
   <g id="line2d_13">
    <path d="M 45.922813 318.445838 
L 50.524874 318.445838 
L 55.126936 313.218638 
L 59.728998 318.445838 
L 64.33106 310.314638 
L 68.933122 312.057038 
L 73.535184 306.249038 
L 78.137245 307.410638 
L 87.341369 303.345038 
L 105.749617 284.759438 
L 124.157864 279.532238 
L 142.566111 268.497038 
L 160.974359 259.785038 
L 179.382606 248.169038 
L 197.790854 238.295438 
L 216.199101 228.421838 
L 234.607349 223.194638 
L 253.015596 217.386638 
L 271.423843 212.740238 
L 289.832091 209.836238 
L 308.240338 205.189838 
L 326.648586 180.215438 
L 345.056833 176.149838 
L 363.465081 172.665038 
L 381.873328 168.599438 
L 400.281575 150.013838 
L 418.689823 143.625038 
L 437.09807 136.655438 
L 455.506318 125.039438 
L 473.914565 120.973838 
L 492.322812 114.004238 
" clip-path="url(#p17eebf7a4e)" style="fill: none; stroke: #ff7f0e; stroke-width: 1.75; stroke-linecap: round"/>
   </g>
   <g id="line2d_14">
    <path d="M 45.922813 303.925838 
L 50.524874 295.794638 
L 55.126936 298.117838 
L 59.728998 298.698638 
L 64.33106 282.436238 
L 68.933122 292.890638 
L 73.535184 277.209038 
L 78.137245 280.693838 
L 87.341369 270.820238 
L 105.749617 240.618638 
L 124.157864 227.260238 
L 142.566111 201.705038 
L 160.974359 176.149838 
L 179.382606 168.599438 
L 197.790854 150.594638 
L 216.199101 132.589838 
L 234.607349 123.297038 
L 253.015596 119.231438 
L 271.423843 106.453838 
L 289.832091 94.837838 
L 308.240338 93.095438 
L 326.648586 81.479438 
L 345.056833 77.994638 
L 363.465081 71.605838 
L 381.873328 72.767438 
L 400.281575 62.313038 
L 418.689823 61.732237 
L 437.09807 58.247438 
L 455.506318 53.601038 
L 473.914565 51.858638 
L 492.322812 50.116238 
" clip-path="url(#p17eebf7a4e)" style="fill: none; stroke: #2ca02c; stroke-width: 1.75; stroke-linecap: round"/>
   </g>
   <g id="line2d_15">
    <path d="M 45.922813 298.698638 
L 50.524874 290.567438 
L 55.126936 288.244238 
L 59.728998 281.855438 
L 64.33106 266.754638 
L 68.933122 269.077838 
L 73.535184 240.618638 
L 78.137245 247.007438 
L 87.341369 233.649038 
L 105.749617 183.700238 
L 124.157864 155.821838 
L 142.566111 123.297038 
L 160.974359 104.130638 
L 179.382606 88.449038 
L 197.790854 77.413838 
L 216.199101 73.929037 
L 234.607349 69.282638 
L 253.015596 59.989838 
L 271.423843 56.505038 
L 289.832091 52.439437 
L 308.240338 49.535438 
L 326.648586 46.050637 
L 345.056833 46.631438 
L 363.465081 40.823438 
L 381.873328 41.404238 
L 400.281575 41.404238 
L 418.689823 41.404238 
L 437.09807 41.404238 
L 455.506318 41.404238 
L 473.914565 41.404238 
L 492.322812 41.404238 
" clip-path="url(#p17eebf7a4e)" style="fill: none; stroke: #d62728; stroke-width: 1.75; stroke-linecap: round"/>
   </g>
   <g id="line2d_16"/>
   <g id="line2d_17"/>
   <g id="line2d_18"/>
   <g id="line2d_19"/>
   <g id="line2d_20">
    <path d="M 45.922813 320.769038 
L 50.524874 320.769038 
L 55.126936 319.607438 
L 59.728998 321.930638 
L 64.33106 321.930638 
L 68.933122 320.188238 
L 73.535184 317.284238 
L 78.137245 321.349838 
L 87.341369 319.607438 
L 105.749617 313.218638 
L 124.157864 313.799438 
L 142.566111 310.895438 
L 160.974359 305.668238 
L 179.382606 299.860238 
L 197.790854 298.117838 
L 216.199101 294.052238 
L 234.607349 299.860238 
L 253.015596 304.506638 
L 271.423843 308.572238 
L 289.832091 310.895438 
L 308.240338 313.218638 
L 326.648586 315.541838 
L 345.056833 317.284238 
L 363.465081 318.445838 
L 381.873328 320.188238 
L 400.281575 320.188238 
L 418.689823 323.673038 
L 437.09807 323.673038 
L 455.506318 324.834638 
L 473.914565 324.834638 
L 492.322812 324.253838 
" clip-path="url(#p17eebf7a4e)" style="fill: none; stroke-dasharray: 6.475,2.8; stroke-dashoffset: 0; stroke: #1f77b4; stroke-width: 1.75"/>
   </g>
   <g id="line2d_21">
    <path d="M 45.922813 320.769038 
L 50.524874 320.769038 
L 55.126936 316.122638 
L 59.728998 320.188238 
L 64.33106 313.799438 
L 68.933122 313.218638 
L 73.535184 307.410638 
L 78.137245 307.991438 
L 87.341369 303.925838 
L 105.749617 285.340238 
L 124.157864 280.113038 
L 142.566111 269.077838 
L 160.974359 259.785038 
L 179.382606 248.169038 
L 197.790854 238.295438 
L 216.199101 237.714638 
L 234.607349 245.265038 
L 253.015596 242.361038 
L 271.423843 250.492238 
L 289.832091 250.492238 
L 308.240338 252.815438 
L 326.648586 252.234638 
L 345.056833 254.557838 
L 363.465081 253.396238 
L 381.873328 253.396238 
L 400.281575 251.073038 
L 418.689823 255.138638 
L 437.09807 257.461838 
L 455.506318 261.527438 
L 473.914565 261.527438 
L 492.322812 262.108238 
" clip-path="url(#p17eebf7a4e)" style="fill: none; stroke-dasharray: 6.475,2.8; stroke-dashoffset: 0; stroke: #ff7f0e; stroke-width: 1.75"/>
   </g>
   <g id="line2d_22">
    <path d="M 45.922813 305.668238 
L 50.524874 297.537038 
L 55.126936 299.279438 
L 59.728998 299.860238 
L 64.33106 284.178638 
L 68.933122 294.052238 
L 73.535184 278.370638 
L 78.137245 281.274638 
L 87.341369 270.820238 
L 105.749617 240.618638 
L 124.157864 227.260238 
L 142.566111 201.705038 
L 160.974359 176.149838 
L 179.382606 168.599438 
L 197.790854 150.594638 
L 216.199101 143.044238 
L 234.607349 144.786638 
L 253.015596 145.948238 
L 271.423843 137.236238 
L 289.832091 139.559438 
L 308.240338 134.913038 
L 326.648586 123.877838 
L 345.056833 125.620238 
L 363.465081 126.781838 
L 381.873328 130.266638 
L 400.281575 128.524238 
L 418.689823 128.524238 
L 437.09807 125.039438 
L 455.506318 119.812238 
L 473.914565 122.716238 
L 492.322812 115.746638 
" clip-path="url(#p17eebf7a4e)" style="fill: none; stroke-dasharray: 6.475,2.8; stroke-dashoffset: 0; stroke: #2ca02c; stroke-width: 1.75"/>
   </g>
   <g id="line2d_23">
    <path d="M 45.922813 298.698638 
L 50.524874 291.148238 
L 55.126936 288.825038 
L 59.728998 282.436238 
L 64.33106 267.335438 
L 68.933122 269.077838 
L 73.535184 240.618638 
L 78.137245 247.007438 
L 87.341369 233.649038 
L 105.749617 183.700238 
L 124.157864 155.821838 
L 142.566111 123.297038 
L 160.974359 104.130638 
L 179.382606 88.449038 
L 197.790854 77.413838 
L 216.199101 80.898638 
L 234.607349 76.833038 
L 253.015596 75.671438 
L 271.423843 70.444237 
L 289.832091 66.378638 
L 308.240338 62.893838 
L 326.648586 62.313038 
L 345.056833 60.570637 
L 363.465081 60.570637 
L 381.873328 54.762638 
L 400.281575 51.858638 
L 418.689823 53.601038 
L 437.09807 50.116238 
L 455.506318 50.116238 
L 473.914565 48.954638 
L 492.322812 47.793038 
" clip-path="url(#p17eebf7a4e)" style="fill: none; stroke-dasharray: 6.475,2.8; stroke-dashoffset: 0; stroke: #d62728; stroke-width: 1.75"/>
   </g>
   <g id="patch_3">
    <path d="M 45.922813 331.223438 
L 45.922813 26.303437 
" style="fill: none; stroke: #ffffff; stroke-width: 0.8; stroke-linejoin: miter; stroke-linecap: square"/>
   </g>
   <g id="patch_4">
    <path d="M 492.322812 331.223438 
L 492.322812 26.303437 
" style="fill: none; stroke: #ffffff; stroke-width: 0.8; stroke-linejoin: miter; stroke-linecap: square"/>
   </g>
   <g id="patch_5">
    <path d="M 45.922813 331.223438 
L 492.322812 331.223438 
" style="fill: none; stroke: #ffffff; stroke-width: 0.8; stroke-linejoin: miter; stroke-linecap: square"/>
   </g>
   <g id="patch_6">
    <path d="M 45.922813 26.303437 
L 492.322812 26.303437 
" style="fill: none; stroke: #ffffff; stroke-width: 0.8; stroke-linejoin: miter; stroke-linecap: square"/>
   </g>
   <g id="text_14">
    <!-- Unmasking power - truncated CGR -->
    <g style="fill: #262626" transform="translate(120.112344 20.303437) scale(0.18 -0.18)">
     <defs>
      <path id="Arial-BoldMT-55" d="M 459 4581 
L 1384 4581 
L 1384 2100 
Q 1384 1509 1419 1334 
Q 1478 1053 1701 883 
Q 1925 713 2313 713 
Q 2706 713 2906 873 
Q 3106 1034 3147 1268 
Q 3188 1503 3188 2047 
L 3188 4581 
L 4113 4581 
L 4113 2175 
Q 4113 1350 4038 1009 
Q 3963 669 3761 434 
Q 3559 200 3221 61 
Q 2884 -78 2341 -78 
Q 1684 -78 1345 73 
Q 1006 225 809 467 
Q 613 709 550 975 
Q 459 1369 459 2138 
L 459 4581 
z
" transform="scale(0.015625)"/>
      <path id="Arial-BoldMT-2d" d="M 359 1222 
L 359 2100 
L 2084 2100 
L 2084 1222 
L 359 1222 
z
" transform="scale(0.015625)"/>
      <path id="Arial-BoldMT-64" d="M 3503 0 
L 2688 0 
L 2688 488 
Q 2484 203 2207 64 
Q 1931 -75 1650 -75 
Q 1078 -75 670 386 
Q 263 847 263 1672 
Q 263 2516 659 2955 
Q 1056 3394 1663 3394 
Q 2219 3394 2625 2931 
L 2625 4581 
L 3503 4581 
L 3503 0 
z
M 1159 1731 
Q 1159 1200 1306 963 
Q 1519 619 1900 619 
Q 2203 619 2415 876 
Q 2628 1134 2628 1647 
Q 2628 2219 2422 2470 
Q 2216 2722 1894 2722 
Q 1581 2722 1370 2473 
Q 1159 2225 1159 1731 
z
" transform="scale(0.015625)"/>
      <path id="Arial-BoldMT-43" d="M 3397 1684 
L 4294 1400 
Q 4088 650 3608 286 
Q 3128 -78 2391 -78 
Q 1478 -78 890 545 
Q 303 1169 303 2250 
Q 303 3394 893 4026 
Q 1484 4659 2447 4659 
Q 3288 4659 3813 4163 
Q 4125 3869 4281 3319 
L 3366 3100 
Q 3284 3456 3026 3662 
Q 2769 3869 2400 3869 
Q 1891 3869 1573 3503 
Q 1256 3138 1256 2319 
Q 1256 1450 1568 1081 
Q 1881 713 2381 713 
Q 2750 713 3015 947 
Q 3281 1181 3397 1684 
z
" transform="scale(0.015625)"/>
      <path id="Arial-BoldMT-47" d="M 2597 1684 
L 2597 2456 
L 4591 2456 
L 4591 631 
Q 4300 350 3748 136 
Q 3197 -78 2631 -78 
Q 1913 -78 1378 223 
Q 844 525 575 1086 
Q 306 1647 306 2306 
Q 306 3022 606 3578 
Q 906 4134 1484 4431 
Q 1925 4659 2581 4659 
Q 3434 4659 3914 4301 
Q 4394 3944 4531 3313 
L 3613 3141 
Q 3516 3478 3248 3673 
Q 2981 3869 2581 3869 
Q 1975 3869 1617 3484 
Q 1259 3100 1259 2344 
Q 1259 1528 1621 1120 
Q 1984 713 2572 713 
Q 2863 713 3155 827 
Q 3447 941 3656 1103 
L 3656 1684 
L 2597 1684 
z
" transform="scale(0.015625)"/>
     </defs>
     <use xlink:href="#Arial-BoldMT-55"/>
     <use xlink:href="#Arial-BoldMT-6e" transform="translate(72.216797 0)"/>
     <use xlink:href="#Arial-BoldMT-6d" transform="translate(133.300781 0)"/>
     <use xlink:href="#Arial-BoldMT-61" transform="translate(222.216797 0)"/>
     <use xlink:href="#Arial-BoldMT-73" transform="translate(277.832031 0)"/>
     <use xlink:href="#Arial-BoldMT-6b" transform="translate(333.447266 0)"/>
     <use xlink:href="#Arial-BoldMT-69" transform="translate(389.0625 0)"/>
     <use xlink:href="#Arial-BoldMT-6e" transform="translate(416.845703 0)"/>
     <use xlink:href="#Arial-BoldMT-67" transform="translate(477.929688 0)"/>
     <use xlink:href="#Arial-BoldMT-20" transform="translate(539.013672 0)"/>
     <use xlink:href="#Arial-BoldMT-70" transform="translate(566.796875 0)"/>
     <use xlink:href="#Arial-BoldMT-6f" transform="translate(627.880859 0)"/>
     <use xlink:href="#Arial-BoldMT-77" transform="translate(688.964844 0)"/>
     <use xlink:href="#Arial-BoldMT-65" transform="translate(766.748047 0)"/>
     <use xlink:href="#Arial-BoldMT-72" transform="translate(822.363281 0)"/>
     <use xlink:href="#Arial-BoldMT-20" transform="translate(861.279297 0)"/>
     <use xlink:href="#Arial-BoldMT-2d" transform="translate(889.0625 0)"/>
     <use xlink:href="#Arial-BoldMT-20" transform="translate(922.363281 0)"/>
     <use xlink:href="#Arial-BoldMT-74" transform="translate(950.146484 0)"/>
     <use xlink:href="#Arial-BoldMT-72" transform="translate(983.447266 0)"/>
     <use xlink:href="#Arial-BoldMT-75" transform="translate(1022.363281 0)"/>
     <use xlink:href="#Arial-BoldMT-6e" transform="translate(1083.447266 0)"/>
     <use xlink:href="#Arial-BoldMT-63" transform="translate(1144.53125 0)"/>
     <use xlink:href="#Arial-BoldMT-61" transform="translate(1200.146484 0)"/>
     <use xlink:href="#Arial-BoldMT-74" transform="translate(1255.761719 0)"/>
     <use xlink:href="#Arial-BoldMT-65" transform="translate(1289.0625 0)"/>
     <use xlink:href="#Arial-BoldMT-64" transform="translate(1344.677734 0)"/>
     <use xlink:href="#Arial-BoldMT-20" transform="translate(1405.761719 0)"/>
     <use xlink:href="#Arial-BoldMT-43" transform="translate(1433.544922 0)"/>
     <use xlink:href="#Arial-BoldMT-47" transform="translate(1505.761719 0)"/>
     <use xlink:href="#Arial-BoldMT-52" transform="translate(1583.544922 0)"/>
    </g>
   </g>
   <g id="legend_1">
    <g id="patch_7">
     <path d="M 52.922813 105.015937 
L 129.38375 105.015937 
Q 131.38375 105.015937 131.38375 103.015937 
L 131.38375 33.303437 
Q 131.38375 31.303437 129.38375 31.303437 
L 52.922813 31.303437 
Q 50.922813 31.303437 50.922813 33.303437 
L 50.922813 103.015937 
Q 50.922813 105.015937 52.922813 105.015937 
z
" style="fill: #eaeaf2; opacity: 0.8; stroke: #cccccc; stroke-width: 0.3; stroke-linejoin: miter"/>
    </g>
    <g id="text_15">
     <!-- Scenario -->
     <g style="fill: #262626" transform="translate(70.03375 42.46125) scale(0.1 -0.1)">
      <defs>
       <path id="Arial-BoldMT-53" d="M 231 1491 
L 1131 1578 
Q 1213 1125 1461 912 
Q 1709 700 2131 700 
Q 2578 700 2804 889 
Q 3031 1078 3031 1331 
Q 3031 1494 2936 1608 
Q 2841 1722 2603 1806 
Q 2441 1863 1863 2006 
Q 1119 2191 819 2459 
Q 397 2838 397 3381 
Q 397 3731 595 4036 
Q 794 4341 1167 4500 
Q 1541 4659 2069 4659 
Q 2931 4659 3367 4281 
Q 3803 3903 3825 3272 
L 2900 3231 
Q 2841 3584 2645 3739 
Q 2450 3894 2059 3894 
Q 1656 3894 1428 3728 
Q 1281 3622 1281 3444 
Q 1281 3281 1419 3166 
Q 1594 3019 2269 2859 
Q 2944 2700 3267 2529 
Q 3591 2359 3773 2064 
Q 3956 1769 3956 1334 
Q 3956 941 3737 597 
Q 3519 253 3119 86 
Q 2719 -81 2122 -81 
Q 1253 -81 787 320 
Q 322 722 231 1491 
z
" transform="scale(0.015625)"/>
      </defs>
      <use xlink:href="#Arial-BoldMT-53"/>
      <use xlink:href="#Arial-BoldMT-63" transform="translate(66.699219 0)"/>
      <use xlink:href="#Arial-BoldMT-65" transform="translate(122.314453 0)"/>
      <use xlink:href="#Arial-BoldMT-6e" transform="translate(177.929688 0)"/>
      <use xlink:href="#Arial-BoldMT-61" transform="translate(239.013672 0)"/>
      <use xlink:href="#Arial-BoldMT-72" transform="translate(294.628906 0)"/>
      <use xlink:href="#Arial-BoldMT-69" transform="translate(333.544922 0)"/>
      <use xlink:href="#Arial-BoldMT-6f" transform="translate(361.328125 0)"/>
     </g>
    </g>
    <g id="line2d_24">
     <path d="M 54.922813 53.0925 
L 64.922813 53.0925 
L 74.922813 53.0925 
" style="fill: none; stroke: #1f77b4; stroke-width: 1.75; stroke-linecap: round"/>
    </g>
    <g id="text_16">
     <!-- CGR 0.52 -->
     <g style="fill: #262626" transform="translate(82.922813 56.5925) scale(0.1 -0.1)">
      <defs>
       <path id="ArialMT-43" d="M 3763 1606 
L 4369 1453 
Q 4178 706 3683 314 
Q 3188 -78 2472 -78 
Q 1731 -78 1267 223 
Q 803 525 561 1097 
Q 319 1669 319 2325 
Q 319 3041 592 3573 
Q 866 4106 1370 4382 
Q 1875 4659 2481 4659 
Q 3169 4659 3637 4309 
Q 4106 3959 4291 3325 
L 3694 3184 
Q 3534 3684 3231 3912 
Q 2928 4141 2469 4141 
Q 1941 4141 1586 3887 
Q 1231 3634 1087 3207 
Q 944 2781 944 2328 
Q 944 1744 1114 1308 
Q 1284 872 1643 656 
Q 2003 441 2422 441 
Q 2931 441 3284 734 
Q 3638 1028 3763 1606 
z
" transform="scale(0.015625)"/>
       <path id="ArialMT-47" d="M 2638 1797 
L 2638 2334 
L 4578 2338 
L 4578 638 
Q 4131 281 3656 101 
Q 3181 -78 2681 -78 
Q 2006 -78 1454 211 
Q 903 500 622 1047 
Q 341 1594 341 2269 
Q 341 2938 620 3517 
Q 900 4097 1425 4378 
Q 1950 4659 2634 4659 
Q 3131 4659 3532 4498 
Q 3934 4338 4162 4050 
Q 4391 3763 4509 3300 
L 3963 3150 
Q 3859 3500 3706 3700 
Q 3553 3900 3268 4020 
Q 2984 4141 2638 4141 
Q 2222 4141 1919 4014 
Q 1616 3888 1430 3681 
Q 1244 3475 1141 3228 
Q 966 2803 966 2306 
Q 966 1694 1177 1281 
Q 1388 869 1791 669 
Q 2194 469 2647 469 
Q 3041 469 3416 620 
Q 3791 772 3984 944 
L 3984 1797 
L 2638 1797 
z
" transform="scale(0.015625)"/>
       <path id="ArialMT-52" d="M 503 0 
L 503 4581 
L 2534 4581 
Q 3147 4581 3465 4457 
Q 3784 4334 3975 4021 
Q 4166 3709 4166 3331 
Q 4166 2844 3850 2509 
Q 3534 2175 2875 2084 
Q 3116 1969 3241 1856 
Q 3506 1613 3744 1247 
L 4541 0 
L 3778 0 
L 3172 953 
Q 2906 1366 2734 1584 
Q 2563 1803 2427 1890 
Q 2291 1978 2150 2013 
Q 2047 2034 1813 2034 
L 1109 2034 
L 1109 0 
L 503 0 
z
M 1109 2559 
L 2413 2559 
Q 2828 2559 3062 2645 
Q 3297 2731 3419 2920 
Q 3541 3109 3541 3331 
Q 3541 3656 3305 3865 
Q 3069 4075 2559 4075 
L 1109 4075 
L 1109 2559 
z
" transform="scale(0.015625)"/>
       <path id="ArialMT-20" transform="scale(0.015625)"/>
       <path id="ArialMT-35" d="M 266 1200 
L 856 1250 
Q 922 819 1161 601 
Q 1400 384 1738 384 
Q 2144 384 2425 690 
Q 2706 997 2706 1503 
Q 2706 1984 2436 2262 
Q 2166 2541 1728 2541 
Q 1456 2541 1237 2417 
Q 1019 2294 894 2097 
L 366 2166 
L 809 4519 
L 3088 4519 
L 3088 3981 
L 1259 3981 
L 1013 2750 
Q 1425 3038 1878 3038 
Q 2478 3038 2890 2622 
Q 3303 2206 3303 1553 
Q 3303 931 2941 478 
Q 2500 -78 1738 -78 
Q 1113 -78 717 272 
Q 322 622 266 1200 
z
" transform="scale(0.015625)"/>
      </defs>
      <use xlink:href="#ArialMT-43"/>
      <use xlink:href="#ArialMT-47" transform="translate(72.216797 0)"/>
      <use xlink:href="#ArialMT-52" transform="translate(150 0)"/>
      <use xlink:href="#ArialMT-20" transform="translate(222.216797 0)"/>
      <use xlink:href="#ArialMT-30" transform="translate(250 0)"/>
      <use xlink:href="#ArialMT-2e" transform="translate(305.615234 0)"/>
      <use xlink:href="#ArialMT-35" transform="translate(333.398438 0)"/>
      <use xlink:href="#ArialMT-32" transform="translate(389.013672 0)"/>
     </g>
    </g>
    <g id="line2d_25">
     <path d="M 54.922813 67.237812 
L 64.922813 67.237812 
L 74.922813 67.237812 
" style="fill: none; stroke: #ff7f0e; stroke-width: 1.75; stroke-linecap: round"/>
    </g>
    <g id="text_17">
     <!-- CGR 0.54 -->
     <g style="fill: #262626" transform="translate(82.922813 70.737812) scale(0.1 -0.1)">
      <use xlink:href="#ArialMT-43"/>
      <use xlink:href="#ArialMT-47" transform="translate(72.216797 0)"/>
      <use xlink:href="#ArialMT-52" transform="translate(150 0)"/>
      <use xlink:href="#ArialMT-20" transform="translate(222.216797 0)"/>
      <use xlink:href="#ArialMT-30" transform="translate(250 0)"/>
      <use xlink:href="#ArialMT-2e" transform="translate(305.615234 0)"/>
      <use xlink:href="#ArialMT-35" transform="translate(333.398438 0)"/>
      <use xlink:href="#ArialMT-34" transform="translate(389.013672 0)"/>
     </g>
    </g>
    <g id="line2d_26">
     <path d="M 54.922813 81.383125 
L 64.922813 81.383125 
L 74.922813 81.383125 
" style="fill: none; stroke: #2ca02c; stroke-width: 1.75; stroke-linecap: round"/>
    </g>
    <g id="text_18">
     <!-- CGR 0.56 -->
     <g style="fill: #262626" transform="translate(82.922813 84.883125) scale(0.1 -0.1)">
      <use xlink:href="#ArialMT-43"/>
      <use xlink:href="#ArialMT-47" transform="translate(72.216797 0)"/>
      <use xlink:href="#ArialMT-52" transform="translate(150 0)"/>
      <use xlink:href="#ArialMT-20" transform="translate(222.216797 0)"/>
      <use xlink:href="#ArialMT-30" transform="translate(250 0)"/>
      <use xlink:href="#ArialMT-2e" transform="translate(305.615234 0)"/>
      <use xlink:href="#ArialMT-35" transform="translate(333.398438 0)"/>
      <use xlink:href="#ArialMT-36" transform="translate(389.013672 0)"/>
     </g>
    </g>
    <g id="line2d_27">
     <path d="M 54.922813 95.528437 
L 64.922813 95.528437 
L 74.922813 95.528437 
" style="fill: none; stroke: #d62728; stroke-width: 1.75; stroke-linecap: round"/>
    </g>
    <g id="text_19">
     <!-- CGR 0.58 -->
     <g style="fill: #262626" transform="translate(82.922813 99.028437) scale(0.1 -0.1)">
      <use xlink:href="#ArialMT-43"/>
      <use xlink:href="#ArialMT-47" transform="translate(72.216797 0)"/>
      <use xlink:href="#ArialMT-52" transform="translate(150 0)"/>
      <use xlink:href="#ArialMT-20" transform="translate(222.216797 0)"/>
      <use xlink:href="#ArialMT-30" transform="translate(250 0)"/>
      <use xlink:href="#ArialMT-2e" transform="translate(305.615234 0)"/>
      <use xlink:href="#ArialMT-35" transform="translate(333.398438 0)"/>
      <use xlink:href="#ArialMT-38" transform="translate(389.013672 0)"/>
     </g>
    </g>
   </g>
  </g>
 </g>
 <defs>
  <clipPath id="p17eebf7a4e">
   <rect x="45.922813" y="26.303437" width="446.4" height="304.92"/>
  </clipPath>
 </defs>
</svg>
